<svg width="72" height="64" viewBox="0 0 72 64" fill="none" xmlns="http://www.w3.org/2000/svg">
<g clip-path="url(#clip0_5128_703)">
<path d="M31.9706 4H22.6292C19.2448 4 16.2226 6.1375 15.0986 9.325L0.387144 50.9C0.137374 51.625 0 52.4 0 53.175C0 56.9375 3.05969 60 6.81873 60H31.9706V52C31.9706 49.7875 33.7565 48 35.9669 48C38.1774 48 39.9633 49.7875 39.9633 52V60H65.1152C68.8867 60 71.9339 56.9375 71.9339 53.175C71.9339 52.4 71.7965 51.625 71.5467 50.9L56.8353 9.325C55.6988 6.1375 52.6891 4 49.3047 4H39.9633V12C39.9633 14.2125 38.1774 16 35.9669 16C33.7565 16 31.9706 14.2125 31.9706 12V4ZM39.9633 28V36C39.9633 38.2125 38.1774 40 35.9669 40C33.7565 40 31.9706 38.2125 31.9706 36V28C31.9706 25.7875 33.7565 24 35.9669 24C38.1774 24 39.9633 25.7875 39.9633 28Z" fill="#193054"/>
</g>
<defs>
<clipPath id="clip0_5128_703">
<rect width="71.9339" height="64" fill="white"/>
</clipPath>
</defs>
</svg>
