<svg width="64" height="64" viewBox="0 0 64 64" fill="none" xmlns="http://www.w3.org/2000/svg">
<path d="M21.563 49.6293L37.5523 12.2853C37.821 11.6616 38.3177 11.1639 38.9408 10.8938C39.564 10.6237 40.2667 10.6015 40.9056 10.8319C41.5446 11.0622 42.0715 11.5276 42.379 12.1332C42.6865 12.7388 42.7513 13.4389 42.5603 14.0906L42.4536 14.384L26.4643 51.728C26.1955 52.3517 25.6989 52.8494 25.0758 53.1195C24.4526 53.3896 23.7499 53.4117 23.1109 53.1814C22.472 52.9511 21.945 52.4857 21.6375 51.8801C21.3301 51.2745 21.2652 50.5744 21.4563 49.9226L21.563 49.6293ZM6.11495 30.1146L16.7816 19.448C17.2615 18.9697 17.9054 18.692 18.5826 18.6714C19.2598 18.6507 19.9195 18.8885 20.4277 19.3366C20.9359 19.7847 21.2544 20.4094 21.3187 21.0839C21.3829 21.7584 21.188 22.432 20.7736 22.968L20.5523 23.2186L11.7709 32L20.5523 40.7813C21.0356 41.2601 21.3177 41.9055 21.3408 42.5854C21.3638 43.2654 21.1262 43.9284 20.6764 44.4389C20.2266 44.9493 19.5987 45.2685 18.9213 45.3312C18.2438 45.3939 17.5681 45.1952 17.0323 44.776L16.7816 44.552L6.11495 33.8853C5.65581 33.4261 5.37999 32.8152 5.33924 32.1671C5.29849 31.5191 5.49561 30.8784 5.89361 30.3653L6.11495 30.1146ZM43.4483 19.4453C43.9075 18.9862 44.5184 18.7103 45.1665 18.6696C45.8145 18.6288 46.4552 18.826 46.9683 19.224L47.2163 19.4453L57.8856 30.1146C58.3448 30.5738 58.6206 31.1847 58.6613 31.8328C58.7021 32.4809 58.505 33.1216 58.1069 33.6346L57.8856 33.888L47.2163 44.5413C46.7364 45.0196 46.0925 45.2972 45.4153 45.3179C44.7381 45.3386 44.0784 45.1007 43.5702 44.6526C43.062 44.2046 42.7435 43.5798 42.6792 42.9054C42.615 42.2309 42.8099 41.5573 43.2243 41.0213L43.4483 40.768L52.2243 32L43.443 23.216C42.943 22.7159 42.6622 22.0377 42.6622 21.3306C42.6622 20.6235 42.943 19.9454 43.443 19.4453H43.4483Z" fill="#193054"/>
</svg>
