<svg width="75" height="69" viewBox="0 0 75 69" fill="none" xmlns="http://www.w3.org/2000/svg">
<path d="M22.5 6.8999C20.5109 6.8999 18.6032 7.62686 17.1967 8.92087C15.7902 10.2149 15 11.9699 15 13.7999V24.1499H24.375C26.8614 24.1499 29.246 25.0586 31.0041 26.6761C32.7623 28.2936 33.75 30.4874 33.75 32.7749V44.8499H45V51.7499H33.75V55.1999H54.375C54.8723 55.1999 55.3492 55.0182 55.7008 54.6947C56.0525 54.3712 56.25 53.9324 56.25 53.4749C56.25 53.0174 56.0525 52.5786 55.7008 52.2551C55.3492 51.9316 54.8723 51.7499 54.375 51.7499H48.75V44.8499H60C61.9891 44.8499 63.8968 44.1229 65.3033 42.8289C66.7098 41.5349 67.5 39.7799 67.5 37.9499V13.7999C67.5 11.9699 66.7098 10.2149 65.3033 8.92087C63.8968 7.62686 61.9891 6.8999 60 6.8999H22.5ZM13.125 27.5999C11.6332 27.5999 10.2024 28.1451 9.14752 29.1156C8.09263 30.0861 7.5 31.4024 7.5 32.7749V56.9249C7.5 58.2974 8.09263 59.6137 9.14752 60.5842C10.2024 61.5547 11.6332 62.0999 13.125 62.0999H24.375C25.8668 62.0999 27.2976 61.5547 28.3525 60.5842C29.4074 59.6137 30 58.2974 30 56.9249V32.7749C30 31.4024 29.4074 30.0861 28.3525 29.1156C27.2976 28.1451 25.8668 27.5999 24.375 27.5999H13.125ZM15 53.4749C15 53.0174 15.1975 52.5786 15.5492 52.2551C15.9008 51.9316 16.3777 51.7499 16.875 51.7499H20.625C21.1223 51.7499 21.5992 51.9316 21.9508 52.2551C22.3025 52.5786 22.5 53.0174 22.5 53.4749C22.5 53.9324 22.3025 54.3712 21.9508 54.6947C21.5992 55.0182 21.1223 55.1999 20.625 55.1999H16.875C16.3777 55.1999 15.9008 55.0182 15.5492 54.6947C15.1975 54.3712 15 53.9324 15 53.4749Z" fill="#193054"/>
</svg>
