<svg width="64" height="64" viewBox="0 0 64 64" fill="none" xmlns="http://www.w3.org/2000/svg">
<g clip-path="url(#clip0_5128_691)">
<path d="M38.9205 64.0002C27.6405 64.0002 18.4405 54.8402 18.4405 43.5202C18.4336 39.8011 19.4436 36.1508 21.3612 32.9642C23.2789 29.7775 26.0311 27.1758 29.3205 25.4402C30.2805 24.9202 31.5205 25.2802 32.0405 26.2802C32.5605 27.2402 32.2005 28.4802 31.2005 29.0002C28.5556 30.4026 26.3426 32.4989 24.7993 35.0641C23.2559 37.6293 22.4405 40.5665 22.4405 43.5602C22.4405 52.6402 29.8405 60.0402 38.9205 60.0402C48.0005 60.0402 55.4005 52.6402 55.4005 43.5602C55.4005 40.2402 54.4005 37.0402 52.5605 34.3202C51.9205 33.4002 52.1605 32.1602 53.0805 31.5602C54.0005 30.9202 55.2405 31.1602 55.8405 32.0802C58.1605 35.4802 59.4005 39.4802 59.4005 43.6002C59.4005 54.8802 50.2405 64.0802 38.9205 64.0802V64.0002Z" fill="#193054"/>
<path d="M46 56H31.8C30.68 56 29.8 55.12 29.8 54C29.8 52.88 30.68 52 31.8 52H46C47.1201 52 48 52.88 48 54C48 55.12 47.1201 56 46 56ZM40.3601 48H31.84C30.72 48 29.84 47.12 29.84 46C29.84 44.88 30.72 44 31.84 44H40.3601C41.4801 44 42.3601 44.88 42.3601 46C42.3601 47.12 41.4801 48 40.3601 48Z" fill="#193054"/>
<path d="M34.6797 55.4802C33.5597 55.4802 32.6797 54.6002 32.6797 53.4802V39.6402C32.6797 36.5602 34.3997 33.8402 37.1197 32.4402C38.1197 31.9602 39.3197 32.3602 39.7997 33.3202C40.2797 34.3202 39.8797 35.5202 38.9197 36.0002C37.5597 36.6802 36.6797 38.0802 36.6797 39.6002V53.4402C36.6797 54.5602 35.7997 55.4402 34.6797 55.4402V55.4802Z" fill="#193054"/>
<path d="M45.2796 37.48C34.9596 37.48 26.5596 29.08 26.5596 18.76C26.5596 8.44 34.9596 0 45.2796 0C55.5996 0 63.9996 8.4 63.9996 18.72C63.9996 29.04 55.5996 37.44 45.2796 37.44V37.48ZM45.2796 4C37.1596 4 30.5596 10.6 30.5596 18.72C30.5596 26.84 37.1596 33.44 45.2796 33.44C53.3996 33.44 59.9996 26.84 59.9996 18.72C59.9996 10.6 53.3996 4 45.2796 4Z" fill="#193054"/>
<path d="M45 29.72C41.12 29.72 38 26.56 38 22.72V14.72C38 10.84 41.16 7.71997 45 7.71997C48.84 7.71997 52 10.88 52 14.72C52 15.84 51.12 16.72 50 16.72C48.88 16.72 48 15.84 48 14.72C48 13.08 46.64 11.72 45 11.72C43.36 11.72 42 13.08 42 14.72V22.72C42 24.36 43.36 25.72 45 25.72C46.64 25.72 48 24.36 48 22.72C48 21.6 48.88 20.72 50 20.72C51.12 20.72 52 21.6 52 22.72C52 26.6 48.84 29.72 45 29.72Z" fill="#193054"/>
<path d="M44 17.8401H38C36.88 17.8401 36 16.9601 36 15.8401C36 14.7201 36.88 13.8401 38 13.8401H44C45.12 13.8401 46 14.7201 46 15.8401C46 16.9601 45.12 17.8401 44 17.8401ZM44 24.0001H38C36.88 24.0001 36 23.1201 36 22.0001C36 20.8801 36.88 20.0001 38 20.0001H44C45.12 20.0001 46 20.8801 46 22.0001C46 23.1201 45.12 24.0001 44 24.0001ZM21.6 53.6001C9.68 53.6001 0 43.9201 0 32.0001C0.00130569 28.4468 0.878664 24.9488 2.5544 21.8155C4.23013 18.6823 6.65255 16.0105 9.60717 14.0368C12.5618 12.0631 15.9575 10.8484 19.4936 10.5001C23.0297 10.1518 26.5971 10.6807 29.88 12.0401C30.92 12.4801 31.4 13.6401 30.96 14.6401C30.52 15.6801 29.36 16.1601 28.36 15.7201C25.6849 14.6213 22.7805 14.1977 19.903 14.4867C17.0255 14.7756 14.2634 15.7682 11.8602 17.377C9.45696 18.9857 7.48656 21.1611 6.12276 23.7113C4.75896 26.2615 4.04368 29.1081 4.04 32.0001C4.04 41.6801 11.96 49.6001 21.64 49.6001C22.76 49.6001 23.64 50.4801 23.64 51.6001C23.64 52.7201 22.76 53.6001 21.64 53.6001H21.6Z" fill="#193054"/>
<path d="M21.8799 37.9999C20.7599 37.9999 19.8799 37.1199 19.8799 35.9999V19.3999C19.8799 18.2799 20.7599 17.3999 21.8799 17.3999C22.9999 17.3999 23.8799 18.2799 23.8799 19.3999V35.9999C23.8799 37.1199 22.9999 37.9999 21.8799 37.9999Z" fill="#193054"/>
<path d="M21.2003 34.0002C19.365 34.0002 17.6048 33.2711 16.3071 31.9733C15.0093 30.6756 14.2803 28.9155 14.2803 27.0802C14.2803 25.2449 15.0093 23.4847 16.3071 22.187C17.6048 20.8892 19.365 20.1602 21.2003 20.1602H22.6003C26.4003 20.1602 29.5203 23.2402 29.5203 27.0802V27.8002C29.5203 28.9202 28.6403 29.8002 27.5203 29.8002C26.4003 29.8002 25.5203 28.9202 25.5203 27.8002V27.0802C25.5203 25.4802 24.2003 24.1602 22.6003 24.1602H21.2003C19.6003 24.1602 18.2803 25.4802 18.2803 27.0802C18.2803 28.6802 19.6003 30.0002 21.2003 30.0002C22.3203 30.0002 23.2003 30.8802 23.2003 32.0002C23.2003 33.1202 22.3203 34.0002 21.2003 34.0002ZM20.0003 43.6802C20.0003 43.6802 19.6803 43.6802 19.5203 43.6002C16.4403 42.8402 14.2803 40.0802 14.2803 36.9202V36.2002C14.2803 35.0802 15.1603 34.2002 16.2803 34.2002C17.4003 34.2002 18.2803 35.0802 18.2803 36.2002V36.9202C18.2803 38.2402 19.2003 39.4002 20.4803 39.7202C21.5603 40.0002 22.2003 41.0802 21.9203 42.1602C21.6803 43.0802 20.8803 43.6802 20.0003 43.6802Z" fill="#193054"/>
</g>
<defs>
<clipPath id="clip0_5128_691">
<rect width="64" height="64" fill="white"/>
</clipPath>
</defs>
</svg>
