<svg width="84" height="64" viewBox="0 0 84 64" fill="none" xmlns="http://www.w3.org/2000/svg">
<path d="M41.796 0C33.0439 0 25.9503 7.09528 25.9512 15.8465C25.9512 23.7894 31.8327 30.5052 39.7062 31.5534V56.5277V61.44C39.7062 61.9942 39.9264 62.5258 40.3183 62.9177C40.7102 63.3096 41.2418 63.5298 41.796 63.5298C42.3503 63.5298 42.8818 63.3096 43.2737 62.9177C43.6656 62.5258 43.8858 61.9942 43.8858 61.44V31.5526C51.7601 30.5052 57.6408 23.7894 57.6408 15.8465C57.6417 7.09444 50.5481 0 41.796 0ZM43.3374 3.78671C46.2673 4.06674 49.0451 5.48195 51.017 7.67039C53.1687 10.0093 54.3122 13.2359 54.1082 16.4099C54.0021 19.9341 52.1388 23.2561 49.3719 25.3843C49.3903 25.3258 49.458 25.1269 49.458 25.1269L49.3661 25.1377C50.3968 24.4138 50.2388 22.9694 50.9978 22.0407C51.2853 21.0476 50.2672 20.3387 50.8507 19.4201C50.3449 19.4811 49.4497 18.8767 48.8896 19.6993C48.2501 19.7076 47.6299 20.4415 47.0355 20.0587C46.2456 19.5906 45.3386 19.0414 45.1154 18.0834C45.2116 17.3361 44.9817 16.379 45.0527 15.6868C45.4063 14.4881 46.3584 13.7684 46.5549 12.5848C46.6368 12.5129 47.3264 11.9745 47.3549 11.9528C48.195 11.7355 49.3368 10.3871 49.8384 11.7388C50.0097 11.8625 51.1541 12.4385 51.0513 11.9837C51.0797 11.2732 52.9739 11.6594 52.0001 10.7298C51.8997 10.6705 51.5161 10.5576 51.2619 10.6287C51.1575 10.6538 50.7077 11.1528 50.3232 10.4833C49.7322 9.93238 50.2923 11.9586 49.499 10.9112C50.3148 10.6396 48.4616 9.69164 48.898 10.2425C49.5383 11.3309 48.3454 10.6162 48.5619 9.86634C47.5287 9.73929 48.0303 11.6795 47.0615 11.977H47.0807L46.911 11.9996L46.6519 12.0247C46.4128 11.7806 45.7156 11.7497 45.9221 11.045C45.4824 10.2843 45.9179 9.9934 46.6953 10.0653C47.4802 9.56374 45.0636 8.96188 46.6159 8.70024C45.9363 8.74371 45.6521 8.76962 45.5643 7.93119C45.673 8.97108 44.3297 8.32157 45.0502 7.70299C45.3244 7.51909 44.42 7.14292 45.1806 7.01419C45.6897 6.98661 46.6911 9.04965 46.875 7.81249C47.2211 7.70132 46.5532 7.04094 46.7137 7.00583C45.8126 7.29255 45.5484 5.71016 45.5409 5.11833C46.3401 5.14926 47.1676 4.92189 45.9547 4.73631C45.2274 4.40696 44.4785 4.10102 43.6944 3.97061L43.3374 3.78671ZM38.7625 4.1729L39.1119 4.20049C40.2964 4.23894 41.5059 4.11105 42.6712 4.33591C42.6879 4.87758 42.8075 5.88737 41.75 5.85143C40.8807 5.89991 40.0548 7.87686 39.5658 6.45078C39.6226 5.71935 40.8823 4.24396 39.3618 4.78062C39.0375 5.2479 39.1211 6.11725 38.5209 6.01443C38.3077 6.78431 37.7075 6.32539 37.5888 5.99186C37.3004 6.16072 37.8037 6.59372 37.4802 6.82444C38.4139 6.1975 37.5562 7.60936 38.0904 7.97215C37.5805 8.462 38.4916 9.71421 37.4175 9.39739C36.4269 9.23941 38.1882 8.14602 36.9744 8.66764C36.2121 8.839 36.2522 9.27451 36.8231 9.38904C36.3107 9.86969 35.6587 9.89644 35.3553 9.67993C34.5545 10.1879 33.8276 10.8039 33.1952 11.5106C32.2548 11.5549 32.4655 13.4591 32.0133 13.266C31.9631 12.6809 32.1637 11.7396 31.5644 11.8759C30.9215 11.6636 30.5119 13.5026 30.7769 13.9707C31.5886 12.9852 30.8304 14.6804 31.0277 15.0106C31.5017 15.7328 30.7167 17.0235 31.8402 17.2717C32.2381 16.501 32.6076 17.1999 32.6954 17.1071C33.0615 17.0427 33.3206 17.9455 33.9768 17.8235C34.7375 17.744 34.3613 19.2387 35.3996 19.4033C36.666 19.7711 36.5347 21.4689 37.9299 21.6804C38.7549 22.1627 41.0646 22.3734 40.3415 23.7C39.2607 24.1447 39.9536 26.1133 38.3629 25.7287C37.8613 25.8733 37.7711 26.5404 37.1792 26.6332L36.8716 26.6775C36.0184 26.2672 35.2153 25.7597 34.4784 25.1653C34.4282 25.0633 34.3747 24.963 34.3379 24.8728L34.3965 24.9313C34.2778 24.6354 34.103 24.3628 33.9509 24.0836C33.3332 22.9878 32.3008 22.1819 31.8561 20.9765C31.0043 19.8873 31.6973 18.7179 31.5267 17.5827C31.4766 16.9808 31.3295 17.9396 31.128 17.1773C30.6683 16.2352 30.6683 14.8284 30.2235 14.0677L30.1441 13.959C30.3849 12.3056 30.9508 10.7023 31.8728 9.29792C33.4276 6.79685 35.9496 4.97539 38.7625 4.1729ZM43.7044 4.33424C43.9293 4.3217 44.6866 4.58752 44.1516 4.65356L43.9008 4.56913C43.6116 4.40278 43.6024 4.33925 43.7044 4.33424ZM38.653 4.55408C38.4925 4.53904 38.551 4.70204 38.7365 4.57415C38.7095 4.56437 38.6815 4.55764 38.653 4.55408ZM37.9851 5.46022C37.9207 5.46858 37.8012 5.52626 37.6097 5.66251C37.3715 5.76533 36.8933 6.39561 37.4534 5.92917C37.873 5.85895 38.1807 5.43514 37.9851 5.46022ZM46.5699 5.77034C46.4529 5.7787 46.8332 6.08632 46.6535 5.78706C46.6269 5.77663 46.5986 5.77097 46.5699 5.77034ZM36.6894 5.90994C36.5891 5.90326 36.4428 5.9484 36.238 6.06877C35.5692 6.12561 35.5333 7.59683 35.5525 7.50822C35.7506 7.37614 35.9262 6.9724 36.1828 6.9958C36.661 6.94565 37.119 5.94171 36.6894 5.90994ZM42.8852 5.93836C43.3675 5.91747 44.124 6.30282 43.0758 6.43239C42.9061 6.43239 42.7197 6.40063 42.591 6.27775C42.5015 6.03867 42.6662 5.94756 42.8852 5.93836ZM46.5975 6.12895C46.3969 6.11056 47.3641 6.79267 46.9553 6.27775C46.753 6.17577 46.6443 6.13313 46.5975 6.12895ZM44.5796 6.50762C44.6381 6.48255 44.7426 6.80856 44.5504 6.59289C44.5545 6.53855 44.5671 6.51348 44.5796 6.50762ZM45.3211 6.68568C45.3679 6.69821 45.5418 7.05933 45.3353 6.82444C45.3044 6.7166 45.3052 6.6815 45.3211 6.68568ZM47.4217 6.68735C47.3214 6.68735 47.3289 6.79434 47.6341 7.06435C47.7235 7.47311 47.5128 7.66955 47.9684 7.30091C48.0654 6.98075 47.5914 6.68735 47.4217 6.68735ZM34.1173 8.17779C33.9735 8.16107 34.1014 8.82061 34.2644 8.3199C34.1992 8.22126 34.1507 8.18197 34.1173 8.17779ZM36.3968 8.46869C36.3057 8.46785 36.391 8.68185 36.5506 8.56148C36.4771 8.49293 36.4269 8.46952 36.3968 8.46869ZM50.3625 8.55646C50.1752 8.57819 50.7771 9.83792 50.9209 9.26365C51.6832 9.14662 50.8039 8.49711 50.6333 8.77714C50.4912 8.61247 50.406 8.55145 50.3625 8.55646ZM34.1356 8.78717C34.0236 8.81225 33.9559 9.4977 34.185 8.82312C34.1682 8.79386 34.1524 8.78299 34.1356 8.78717ZM49.0066 9.48099C48.9239 9.46678 48.9866 9.55538 49.3527 9.82873C49.4672 9.79446 50.034 10.3219 49.9011 10.026C49.6854 9.81201 49.1437 9.50356 49.0066 9.48099ZM33.8523 9.486C33.7311 9.46092 33.4937 9.8747 33.9074 9.58631C33.9016 9.52111 33.8807 9.49102 33.8523 9.486ZM50.6375 10.0344C50.574 10.0611 50.8674 10.4774 50.8448 10.1781C50.7194 10.0594 50.6584 10.0252 50.6375 10.0344ZM48.1155 10.6028C48.2677 10.5785 48.1774 11.2807 47.8798 10.9338C47.9868 10.6989 48.0637 10.6103 48.1155 10.6028ZM51.2419 10.8494C51.4082 10.8277 51.5512 11.2991 51.0897 11.0793C51.129 10.9188 51.1867 10.8561 51.2419 10.8494ZM42.2725 11.5315C42.4514 11.5474 42.4179 11.8383 42.0267 11.636C42.1287 11.5524 42.2131 11.5265 42.2725 11.5315ZM32.4471 13.0679C32.514 13.0671 32.6644 13.5686 32.4245 13.2836C32.4111 13.1239 32.4245 13.0679 32.4471 13.0679ZM32.3133 13.4725C32.3802 13.4842 32.3493 14.127 32.2139 13.7341C32.259 13.536 32.2908 13.4692 32.3142 13.4725M31.6287 13.6798C31.6964 13.6873 31.7926 13.7132 31.9221 13.7601C32.1646 14.4405 32.8266 14.6612 32.6394 14.9613C33.1158 15.1519 33.8096 16.0563 32.687 15.6526C31.9405 15.3516 32.947 15.0825 32.0642 14.8442C32.03 14.4731 31.1523 13.6305 31.6287 13.6798ZM45.5484 13.8679C45.6605 13.8679 45.7474 14.3193 45.418 14.2399C45.4414 13.9615 45.4983 13.8679 45.5484 13.8679ZM32.5382 14.0718C32.5808 14.0443 32.6903 14.1922 32.6377 14.3786L32.5825 14.341C32.5106 14.1671 32.5123 14.0886 32.5382 14.0718ZM44.7092 14.0902C45.0268 14.0719 45.5911 14.3301 44.863 14.3544H44.6181L44.5738 14.3335C44.4709 14.1621 44.5654 14.0978 44.7092 14.0902ZM31.8737 14.9847C32.0158 15.0139 32.4254 15.4695 31.9539 15.3065C31.7993 15.0449 31.8093 14.9713 31.8737 14.9847ZM33.4912 15.6751C33.6684 15.6526 33.9066 16.1299 33.3658 15.9092C33.38 15.7462 33.4326 15.6827 33.4912 15.6751ZM34.3538 16.5696C34.4249 16.598 34.4901 17.6813 34.2978 17.1689L34.2886 16.9909C34.3045 16.6682 34.3304 16.5604 34.3538 16.5696ZM42.9638 17.2918C43.0984 17.306 43.5255 17.5844 43.0725 17.4941C42.9019 17.3328 42.9028 17.2851 42.9638 17.2918ZM43.6242 17.4423C43.7454 17.4398 43.7011 17.8126 43.513 17.5175C43.559 17.464 43.5966 17.4423 43.6242 17.4423ZM43.5138 17.7649C43.7002 17.7348 43.5531 18.106 43.3274 17.8627C43.3812 17.8163 43.445 17.7828 43.5138 17.7649ZM50.3683 20.098C50.4377 20.1055 50.3993 20.4399 50.2647 20.2317C50.3123 20.1297 50.3449 20.0955 50.3683 20.098Z" fill="#193054"/>
</svg>
