<svg width="29" height="28" viewBox="0 0 29 28" fill="none" xmlns="http://www.w3.org/2000/svg">
<path d="M5.16634 7.00016C5.78518 7.00016 6.37867 6.75433 6.81626 6.31675C7.25384 5.87916 7.49967 5.28567 7.49967 4.66683C7.49967 4.04799 7.25384 3.4545 6.81626 3.01691C6.37867 2.57933 5.78518 2.3335 5.16634 2.3335C4.5475 2.3335 3.95401 2.57933 3.51643 3.01691C3.07884 3.4545 2.83301 4.04799 2.83301 4.66683C2.83301 5.28567 3.07884 5.87916 3.51643 6.31675C3.95401 6.75433 4.5475 7.00016 5.16634 7.00016ZM6.33301 24.5002C7.26127 24.5002 8.1515 24.1314 8.80788 23.475C9.46426 22.8187 9.83301 21.9284 9.83301 21.0002C9.83301 20.0719 9.46426 19.1817 8.80788 18.5253C8.1515 17.8689 7.26127 17.5002 6.33301 17.5002C5.40475 17.5002 4.51451 17.8689 3.85813 18.5253C3.20176 19.1817 2.83301 20.0719 2.83301 21.0002C2.83301 21.9284 3.20176 22.8187 3.85813 23.475C4.51451 24.1314 5.40475 24.5002 6.33301 24.5002ZM22.6663 25.6668C23.5946 25.6668 24.4848 25.2981 25.1412 24.6417C25.7976 23.9853 26.1663 23.0951 26.1663 22.1668C26.1663 21.2386 25.7976 20.3483 25.1412 19.692C24.4848 19.0356 23.5946 18.6668 22.6663 18.6668C21.7381 18.6668 20.8478 19.0356 20.1915 19.692C19.5351 20.3483 19.1663 21.2386 19.1663 22.1668C19.1663 23.0951 19.5351 23.9853 20.1915 24.6417C20.8478 25.2981 21.7381 25.6668 22.6663 25.6668ZM13.333 16.3335C14.5707 16.3335 15.7577 15.8418 16.6328 14.9667C17.508 14.0915 17.9997 12.9045 17.9997 11.6668C17.9997 10.4292 17.508 9.24217 16.6328 8.367C15.7577 7.49183 14.5707 7.00016 13.333 7.00016C12.0953 7.00016 10.9083 7.49183 10.0332 8.367C9.15801 9.24217 8.66634 10.4292 8.66634 11.6668C8.66634 12.9045 9.15801 14.0915 10.0332 14.9667C10.9083 15.8418 12.0953 16.3335 13.333 16.3335ZM20.333 7.00016C20.9518 7.00016 21.5453 6.75433 21.9829 6.31675C22.4205 5.87916 22.6663 5.28567 22.6663 4.66683C22.6663 4.04799 22.4205 3.4545 21.9829 3.01691C21.5453 2.57933 20.9518 2.3335 20.333 2.3335C19.7142 2.3335 19.1207 2.57933 18.6831 3.01691C18.2455 3.4545 17.9997 4.04799 17.9997 4.66683C17.9997 5.28567 18.2455 5.87916 18.6831 6.31675C19.1207 6.75433 19.7142 7.00016 20.333 7.00016Z" stroke="#182E50" stroke-width="2" stroke-linecap="round" stroke-linejoin="round"/>
<path d="M6.91602 6.41699L9.24935 8.75033M17.9993 7.00033L16.8327 8.16699M20.3327 19.542L16.8327 15.167M8.66602 18.0837L10.9993 15.7503" stroke="#182E50" stroke-width="2" stroke-linecap="round" stroke-linejoin="round"/>
</svg>
