<svg width="64" height="64" viewBox="0 0 64 64" fill="none" xmlns="http://www.w3.org/2000/svg">
<path d="M50.6663 56C48.933 56 47.3774 55.5004 45.9997 54.5013C44.6219 53.5022 43.6663 52.224 43.133 50.6667H29.333C26.3997 50.6667 23.8886 49.6222 21.7997 47.5333C19.7108 45.4444 18.6663 42.9333 18.6663 40C18.6663 37.0667 19.7108 34.5556 21.7997 32.4667C23.8886 30.3778 26.3997 29.3333 29.333 29.3333H34.6663C36.133 29.3333 37.389 28.8116 38.4343 27.768C39.4797 26.7244 40.0014 25.4684 39.9997 24C39.9979 22.5316 39.4761 21.2764 38.4343 20.2347C37.3926 19.1929 36.1366 18.6702 34.6663 18.6667H20.8663C20.2886 20.2222 19.3215 21.5004 17.965 22.5013C16.6086 23.5022 15.0646 24.0018 13.333 24C11.1108 24 9.2219 23.2222 7.66634 21.6667C6.11079 20.1111 5.33301 18.2222 5.33301 16C5.33301 13.7778 6.11079 11.8889 7.66634 10.3333C9.2219 8.77778 11.1108 8 13.333 8C15.0663 8 16.6112 8.50044 17.9677 9.50133C19.3241 10.5022 20.2903 11.7796 20.8663 13.3333H34.6663C37.5997 13.3333 40.1108 14.3778 42.1997 16.4667C44.2886 18.5556 45.333 21.0667 45.333 24C45.333 26.9333 44.2886 29.4444 42.1997 31.5333C40.1108 33.6222 37.5997 34.6667 34.6663 34.6667H29.333C27.8663 34.6667 26.6112 35.1893 25.5677 36.2347C24.5241 37.28 24.0015 38.5351 23.9997 40C23.9979 41.4649 24.5206 42.7209 25.5677 43.768C26.6148 44.8151 27.8699 45.3369 29.333 45.3333H43.133C43.7108 43.7778 44.6779 42.5004 46.0343 41.5013C47.3908 40.5022 48.9348 40.0018 50.6663 40C52.8886 40 54.7775 40.7778 56.333 42.3333C57.8886 43.8889 58.6663 45.7778 58.6663 48C58.6663 50.2222 57.8886 52.1111 56.333 53.6667C54.7775 55.2222 52.8886 56 50.6663 56ZM13.333 18.6667C14.0886 18.6667 14.7223 18.4107 15.2343 17.8987C15.7463 17.3867 16.0015 16.7538 15.9997 16C15.9979 15.2462 15.7419 14.6133 15.2317 14.1013C14.7215 13.5893 14.0886 13.3333 13.333 13.3333C12.5775 13.3333 11.9446 13.5893 11.4343 14.1013C10.9241 14.6133 10.6681 15.2462 10.6663 16C10.6646 16.7538 10.9206 17.3876 11.4343 17.9013C11.9481 18.4151 12.581 18.6702 13.333 18.6667Z" fill="#193054"/>
</svg>
