<svg width="29" height="29" viewBox="0 0 29 29" fill="none" xmlns="http://www.w3.org/2000/svg">
<path d="M14.5003 4.1499C9.34366 4.1499 5.16699 6.23824 5.16699 8.81657C5.16699 11.3949 9.34366 13.4832 14.5003 13.4832C19.657 13.4832 23.8337 11.3949 23.8337 8.81657C23.8337 6.23824 19.657 4.1499 14.5003 4.1499ZM5.16699 11.1499V14.6499C5.16699 17.2282 9.34366 19.3166 14.5003 19.3166C19.657 19.3166 23.8337 17.2282 23.8337 14.6499V11.1499C23.8337 13.7282 19.657 15.8166 14.5003 15.8166C9.34366 15.8166 5.16699 13.7282 5.16699 11.1499ZM5.16699 16.9832V20.4832C5.16699 23.0616 9.34366 25.1499 14.5003 25.1499C19.657 25.1499 23.8337 23.0616 23.8337 20.4832V16.9832C23.8337 19.5616 19.657 21.6499 14.5003 21.6499C9.34366 21.6499 5.16699 19.5616 5.16699 16.9832Z" fill="black"/>
</svg>
