<svg width="64" height="64" viewBox="0 0 64 64" fill="none" xmlns="http://www.w3.org/2000/svg">
<path d="M58.1871 41.1199L51.5204 52.6666C50.2138 54.9599 47.7871 56.1599 45.3338 55.9999H40.0004V61.3332L33.3338 49.3332L40.0004 37.3332V42.6666H47.5204L41.6004 32.3999L53.1471 25.7332L57.9471 34.0532C59.3338 36.1066 59.5204 38.8532 58.1871 41.1199ZM24.5604 8.15991H37.8938C40.5071 8.15991 42.7738 9.67991 43.8671 11.8666L46.5338 16.5066L51.1471 13.8399L44.1071 25.5999L30.3738 25.8399L34.9871 23.1732L31.2271 16.6399L25.3338 26.9066L13.7604 20.2399L18.5604 11.9199C19.6538 9.70658 21.9204 8.15991 24.5604 8.15991ZM13.4671 52.6932L6.80042 41.1466C5.49375 38.8799 5.68042 36.1599 7.04042 34.1066L9.70708 29.4932L5.09375 26.8266L18.8004 27.0399L25.8671 38.8266L21.2537 36.1599L17.4938 42.6666H29.3338V55.9999H19.7338C18.4844 56.0903 17.2348 55.8284 16.127 55.2438C15.0192 54.6593 14.0976 53.7756 13.4671 52.6932Z" fill="#193054"/>
</svg>
