<svg width="64" height="64" viewBox="0 0 64 64" fill="none" xmlns="http://www.w3.org/2000/svg">
<path d="M32.0003 45.3332C33.4148 45.3332 34.7714 44.7713 35.7716 43.7711C36.7718 42.7709 37.3337 41.4143 37.3337 39.9998C37.3337 38.5854 36.7718 37.2288 35.7716 36.2286C34.7714 35.2284 33.4148 34.6665 32.0003 34.6665C30.5858 34.6665 29.2293 35.2284 28.2291 36.2286C27.2289 37.2288 26.667 38.5854 26.667 39.9998C26.667 41.4143 27.2289 42.7709 28.2291 43.7711C29.2293 44.7713 30.5858 45.3332 32.0003 45.3332ZM48.0003 21.3332C49.4148 21.3332 50.7714 21.8951 51.7716 22.8953C52.7718 23.8955 53.3337 25.252 53.3337 26.6665V53.3332C53.3337 54.7477 52.7718 56.1042 51.7716 57.1044C50.7714 58.1046 49.4148 58.6665 48.0003 58.6665H16.0003C14.5858 58.6665 13.2293 58.1046 12.2291 57.1044C11.2289 56.1042 10.667 54.7477 10.667 53.3332V26.6665C10.667 25.252 11.2289 23.8955 12.2291 22.8953C13.2293 21.8951 14.5858 21.3332 16.0003 21.3332H18.667V15.9998C18.667 12.4636 20.0718 9.07223 22.5722 6.57175C25.0727 4.07126 28.4641 2.6665 32.0003 2.6665C33.7513 2.6665 35.4851 3.01138 37.1028 3.68144C38.7204 4.35151 40.1903 5.33363 41.4284 6.57175C42.6665 7.80986 43.6487 9.27972 44.3187 10.8974C44.9888 12.5151 45.3337 14.2489 45.3337 15.9998V21.3332H48.0003ZM32.0003 7.99984C29.8786 7.99984 27.8438 8.84269 26.3435 10.343C24.8432 11.8433 24.0003 13.8781 24.0003 15.9998V21.3332H40.0003V15.9998C40.0003 13.8781 39.1575 11.8433 37.6572 10.343C36.1569 8.84269 34.1221 7.99984 32.0003 7.99984Z" fill="#193054"/>
</svg>
