<svg width="24" height="24" viewBox="0 0 24 24" fill="none" xmlns="http://www.w3.org/2000/svg">
<path d="M20.8939 15.553C21.0123 15.7901 21.0318 16.0646 20.948 16.316C20.8641 16.5675 20.6839 16.7754 20.4469 16.894L12.4469 20.894C12.3081 20.9634 12.1551 20.9995 11.9999 20.9995C11.8447 20.9995 11.6917 20.9634 11.5529 20.894L3.55291 16.894C3.32418 16.7707 3.15245 16.5631 3.07409 16.3153C2.99574 16.0676 3.01691 15.799 3.13312 15.5666C3.24934 15.3342 3.45147 15.1561 3.6967 15.0701C3.94193 14.9842 4.211 14.997 4.44691 15.106L11.9999 18.88L19.5539 15.105C19.791 14.9866 20.0655 14.9671 20.3169 15.051C20.5684 15.1348 20.7763 15.315 20.8949 15.552M20.8949 11.552C21.0133 11.7891 21.0328 12.0636 20.949 12.315C20.8651 12.5665 20.6849 12.7744 20.4479 12.893L12.4479 16.893C12.3091 16.9624 12.1561 16.9985 12.0009 16.9985C11.8457 16.9985 11.6927 16.9624 11.5539 16.893L3.55391 12.893C3.32518 12.7697 3.15345 12.5621 3.07509 12.3144C2.99674 12.0666 3.01791 11.798 3.13412 11.5656C3.25034 11.3332 3.45247 11.1551 3.6977 11.0691C3.94293 10.9832 4.212 10.996 4.44791 11.105L11.9999 14.88L19.5539 11.105C19.791 10.9866 20.0655 10.9671 20.3169 11.051C20.5684 11.1348 20.7763 11.315 20.8949 11.552ZM12.0079 3C12.0452 3 12.0822 3.00233 12.1189 3.007L12.2299 3.027L12.3159 3.051L12.3279 3.057L12.3399 3.059L12.3689 3.073L12.4189 3.092L12.4349 3.101L12.4469 3.106L20.4469 7.106C20.6128 7.18914 20.7523 7.31679 20.8497 7.47467C20.9472 7.63256 20.9988 7.81445 20.9988 8C20.9988 8.18555 20.9472 8.36744 20.8497 8.52532C20.7523 8.68321 20.6128 8.81086 20.4469 8.894L12.4469 12.894C12.3081 12.9634 12.1551 12.9995 11.9999 12.9995C11.8447 12.9995 11.6917 12.9634 11.5529 12.894L3.55291 8.894C3.38703 8.81086 3.24755 8.68321 3.15007 8.52532C3.0526 8.36744 3.00098 8.18555 3.00098 8C3.00098 7.81445 3.0526 7.63256 3.15007 7.47467C3.24755 7.31679 3.38703 7.18914 3.55291 7.106L11.5529 3.106L11.5639 3.101L11.5819 3.091L11.6599 3.059L11.6709 3.057L11.6839 3.051L11.7699 3.027L11.8799 3.007L11.9359 3.002L12.0079 3Z" fill="#182E50"/>
</svg>
