<svg width="25" height="25" viewBox="0 0 25 25" fill="none" xmlns="http://www.w3.org/2000/svg">
<g clip-path="url(#clip0_3066_3352)">
<path fill-rule="evenodd" clip-rule="evenodd" d="M8 2.25131H17C17.1989 2.25131 17.3897 2.33037 17.5303 2.47111C17.671 2.61184 17.75 2.80272 17.75 3.00175V21.0122C17.75 21.2112 17.671 21.4021 17.5303 21.5429C17.3897 21.6836 17.1989 21.7627 17 21.7627H8C7.80109 21.7627 7.61032 21.6836 7.46967 21.5429C7.32902 21.4021 7.25 21.2112 7.25 21.0122V3.00175C7.25 2.80272 7.32902 2.61184 7.46967 2.47111C7.61032 2.33037 7.80109 2.25131 8 2.25131ZM5 3.00175C5 2.20563 5.31607 1.44213 5.87868 0.879191C6.44129 0.316254 7.20435 0 8 0L17 0C17.7956 0 18.5587 0.316254 19.1213 0.879191C19.6839 1.44213 20 2.20563 20 3.00175V21.0122C20 21.8083 19.6839 22.5718 19.1213 23.1348C18.5587 23.6977 17.7956 24.014 17 24.014H8C7.20435 24.014 6.44129 23.6977 5.87868 23.1348C5.31607 22.5718 5 21.8083 5 21.0122V3.00175ZM12.5 19.5113C12.8978 19.5113 13.2794 19.3532 13.5607 19.0717C13.842 18.7903 14 18.4085 14 18.0105C14 17.6124 13.842 17.2307 13.5607 16.9492C13.2794 16.6677 12.8978 16.5096 12.5 16.5096C12.1022 16.5096 11.7206 16.6677 11.4393 16.9492C11.158 17.2307 11 17.6124 11 18.0105C11 18.4085 11.158 18.7903 11.4393 19.0717C11.7206 19.3532 12.1022 19.5113 12.5 19.5113Z" fill="black"/>
</g>
<defs>
<clipPath id="clip0_3066_3352">
<rect width="24" height="24.014" fill="white" transform="translate(0.5)"/>
</clipPath>
</defs>
</svg>
