<svg width="54" height="54" viewBox="0 0 54 54" fill="none" xmlns="http://www.w3.org/2000/svg">
<path d="M32.5935 7.07176C33.1678 7.23329 33.6544 7.61628 33.9464 8.13651C34.2384 8.65675 34.3118 9.27165 34.1505 9.84601L24.183 45.369C24.1032 45.6535 23.9682 45.9196 23.7856 46.1519C23.603 46.3843 23.3764 46.5784 23.1188 46.7232C22.8612 46.868 22.5776 46.9606 22.2842 46.9958C21.9908 47.031 21.6933 47.008 21.4088 46.9283C21.1242 46.8485 20.8582 46.7134 20.6258 46.5308C20.3935 46.3483 20.1994 46.1217 20.0546 45.8641C19.9098 45.6065 19.8171 45.3228 19.782 45.0294C19.7468 44.736 19.7697 44.4386 19.8495 44.154L29.817 8.63101C29.8967 8.3462 30.0318 8.0799 30.2146 7.84735C30.3973 7.6148 30.6241 7.42056 30.882 7.27574C31.1399 7.13092 31.4238 7.03836 31.7174 7.00336C32.0111 6.96836 32.3088 6.9916 32.5935 7.07176ZM16.2158 15.8625C16.6376 16.2844 16.8745 16.8566 16.8745 17.4533C16.8745 18.0499 16.6376 18.6221 16.2158 19.044L8.262 27L16.2158 34.9538C16.4248 35.1627 16.5907 35.4107 16.7039 35.6837C16.817 35.9567 16.8754 36.2493 16.8755 36.5448C16.8756 36.8404 16.8175 37.133 16.7045 37.4061C16.5915 37.6792 16.4258 37.9273 16.2169 38.1364C16.008 38.3454 15.7599 38.5113 15.487 38.6245C15.214 38.7377 14.9213 38.796 14.6258 38.7961C14.3303 38.7962 14.0376 38.7381 13.7645 38.6251C13.4914 38.5121 13.2433 38.3464 13.0343 38.1375L3.4875 28.5908C3.06569 28.1688 2.82874 27.5966 2.82874 27C2.82874 26.4034 3.06569 25.8312 3.4875 25.4093L13.0343 15.8625C13.4562 15.4407 14.0284 15.2037 14.625 15.2037C15.2216 15.2037 15.7938 15.4407 16.2158 15.8625ZM37.7843 19.044C37.5694 18.8365 37.3979 18.5882 37.28 18.3137C37.1621 18.0392 37.1 17.7439 37.0974 17.4452C37.0948 17.1464 37.1518 16.8501 37.2649 16.5736C37.378 16.2971 37.5451 16.0459 37.7564 15.8346C37.9676 15.6234 38.2188 15.4563 38.4954 15.3432C38.7719 15.23 39.0682 15.1731 39.3669 15.1757C39.6657 15.1783 39.9609 15.2404 40.2354 15.3583C40.5099 15.4762 40.7582 15.6476 40.9658 15.8625L50.5125 25.4093C50.9343 25.8312 51.1713 26.4034 51.1713 27C51.1713 27.5966 50.9343 28.1688 50.5125 28.5908L40.9658 38.1375C40.5436 38.5594 39.9711 38.7963 39.3742 38.7961C38.7774 38.7959 38.205 38.5586 37.7831 38.1364C37.3612 37.7142 37.1243 37.1417 37.1245 36.5448C37.1248 35.948 37.3621 35.3757 37.7843 34.9538L45.738 27L37.7843 19.044Z" fill="white"/>
</svg>
