<svg width="1440" height="2800" viewBox="0 0 1440 2800" fill="none" xmlns="http://www.w3.org/2000/svg">
<g clip-path="url(#clip0_4903_5078)">
<g filter="url(#filter0_d_4903_5078)">
<rect y="3" width="1440" height="2797" fill="url(#paint0_linear_4903_5078)"/>
</g>
<path d="M-9.26318 539.59C19.8496 515.026 90.5862 514.145 137.998 528.803C185.41 543.461 216.605 568.796 251.237 591.34C285.869 613.883 330.442 635.605 385.183 637.666C455.167 640.303 519.031 609.941 588.748 614.134C643.086 617.403 683.978 641.044 706.687 665.81C719.526 679.812 723.919 695.956 734.499 710.44C782.473 776.126 703.368 834.05 766.826 875.106C835.539 919.561 912.952 917.61 951.176 909.593C1000.13 899.324 1108.69 864.714 1079.57 795.627C1067.75 767.56 1057.74 738.766 1061.4 710.093C1066.87 667.164 1131.19 625.639 1212.43 623.214C1268.11 621.552 1325.84 637.046 1377.97 626.621C1413.01 619.615 1437.39 601.623 1446.19 582.363C1454.98 563.103 1450.02 542.735 1439.98 523.627M-9.08741 541.518C22.6305 517.011 94.6448 515.054 144.048 529.774C192.27 544.142 224.248 569.721 258.151 592.743C291.654 615.494 333.906 637.467 386.724 640.66C454.232 644.71 517.545 617.051 586.891 621.424C642.032 624.972 684.289 646.93 709.613 670.938C724.162 684.729 730.791 701.018 742.175 715.99C790.426 779.463 715.257 836.095 777.237 876.324C843.928 919.578 919.345 918.659 957.813 911.14C1006.56 901.612 1110.84 868.132 1085.61 801.365C1075.22 773.839 1066.85 745.28 1070.72 716.887C1076.27 675.066 1137.75 634.779 1216.07 631.422C1270.25 629.099 1327.23 643.185 1378.87 632.975C1414.24 626.021 1439.32 608.74 1449.86 590.058C1460.5 571.203 1458.16 550.933 1450.05 531.571M-8.9108 543.446C25.4123 518.996 98.6915 515.969 150.101 530.745C199.117 544.833 231.901 570.639 265.068 594.147C297.45 617.098 337.372 639.331 388.266 643.654C453.298 649.119 516.08 624.077 585.036 628.713C640.995 632.475 684.667 652.822 712.54 676.067C728.831 689.652 737.652 706.079 749.849 721.541C798.197 782.826 727.147 838.14 787.643 877.543C852.312 919.596 925.723 919.705 964.446 912.687C1012.97 903.892 1113.04 871.519 1091.65 807.102C1082.69 780.101 1075.95 751.792 1080.04 723.679C1085.67 682.967 1144.32 643.904 1219.7 639.628C1272.41 636.637 1328.61 649.321 1379.77 639.328C1415.46 632.426 1441.27 615.848 1453.53 597.752C1466.03 579.292 1466.3 559.13 1460.13 539.514M-8.73681 545.373C28.1914 520.981 102.724 516.891 156.151 531.716C205.95 545.534 239.557 571.553 271.981 595.552C303.254 618.697 340.834 641.196 389.806 646.648C452.362 653.528 514.602 631.154 583.18 636.003C639.948 640.016 685.11 658.712 715.466 681.196C733.535 694.578 744.497 711.14 757.524 727.092C805.809 786.216 739.038 840.186 798.052 878.762C860.701 919.614 932.096 920.748 971.083 914.235C1019.37 906.168 1115.31 874.879 1097.69 812.841C1090.17 786.35 1085.2 758.314 1089.37 730.475C1095.29 690.88 1150.92 653.015 1223.34 647.836C1274.6 644.171 1329.94 655.397 1380.66 645.683C1416.66 638.79 1443.26 622.953 1457.2 605.448C1471.59 587.374 1474.45 567.329 1470.2 547.459M-8.56091 547.301C30.9708 522.966 106.749 517.821 162.203 532.687C212.772 546.243 247.222 572.459 278.899 596.955C309.07 620.287 344.302 643.059 391.35 649.641C451.432 657.936 513.127 638.235 581.326 643.291C638.904 647.56 685.619 664.595 718.395 686.324C738.273 699.503 751.329 716.199 765.202 732.643C813.281 789.631 750.93 842.231 808.464 879.98C869.091 919.632 938.463 921.786 977.722 915.782C1025.77 908.435 1117.65 878.205 1103.73 818.579C1097.67 792.579 1094.36 764.829 1098.7 737.268C1104.76 698.785 1157.53 662.106 1226.98 656.044C1276.8 651.696 1331.32 661.52 1381.56 652.038C1417.88 645.184 1445.29 630.053 1460.87 613.144C1477.19 595.451 1482.59 575.527 1480.28 555.404M-8.38665 549.228C33.7502 524.949 110.761 518.757 168.254 533.657C219.582 546.96 254.896 573.36 285.813 598.358C314.894 621.871 347.736 644.97 392.891 652.634C450.46 662.405 511.65 645.321 579.47 650.579C637.857 655.106 686.183 670.468 721.322 691.451C743.043 704.421 758.145 721.258 772.878 738.193C820.623 793.068 762.821 844.275 818.873 881.198C877.48 919.649 944.82 922.818 984.357 917.329C1032.15 910.694 1120.08 881.499 1109.78 824.316C1105.18 798.791 1103.5 771.344 1108.02 744.061C1114.22 706.689 1164.16 671.174 1230.62 664.25C1279.02 659.207 1332.7 667.643 1382.46 658.39C1419.1 651.578 1447.34 637.15 1464.55 620.838C1482.81 603.523 1490.74 583.724 1490.36 563.347M-8.21065 551.155C36.5314 526.935 114.767 519.701 174.306 534.628C226.386 547.685 262.581 574.256 292.729 599.763C320.73 623.452 351.191 646.841 394.432 655.629C449.512 666.822 510.172 652.414 577.614 657.87C636.811 662.659 686.795 676.331 724.248 696.581C747.838 709.337 764.943 726.322 780.553 743.745C827.848 796.529 774.71 846.321 829.28 882.417C885.865 919.667 951.17 923.845 990.993 918.876C1038.52 912.945 1122.61 884.763 1115.81 830.054C1112.7 804.986 1112.64 777.86 1117.35 750.855C1123.67 714.595 1170.81 680.22 1234.25 672.457C1281.25 666.707 1334.07 673.769 1383.36 664.744C1420.32 657.976 1449.42 644.252 1468.22 628.533C1488.47 611.597 1498.88 591.922 1500.43 571.29M-8.03423 553.083C39.313 528.919 118.766 520.653 180.358 535.599C233.183 548.417 270.276 575.147 299.645 601.166C326.576 625.027 354.644 648.71 395.975 658.623C448.564 671.237 508.695 659.51 575.76 665.158C635.766 670.212 687.451 682.176 727.177 701.71C752.662 714.241 771.726 731.385 788.232 749.295C834.972 800.011 786.604 848.366 839.691 883.635C894.254 919.684 957.516 924.866 997.631 920.422C1044.89 915.188 1138.42 887.301 1121.86 835.791C1114.04 811.49 1121.78 784.375 1126.68 757.648C1133.11 722.499 1177.47 689.239 1237.89 680.664C1283.5 674.192 1335.45 679.899 1384.26 671.097C1421.54 664.374 1451.54 651.357 1471.89 636.227C1494.15 619.675 1507.02 600.119 1510.51 579.234M-7.8604 555.011C42.0919 530.905 122.755 521.613 186.407 536.57C239.969 549.156 277.979 576.032 306.557 602.57C332.431 626.597 358.096 650.576 397.514 661.616C447.615 675.647 507.211 666.61 573.902 672.447C634.714 677.77 688.138 688.005 730.1 706.838C757.502 719.136 778.484 736.452 795.904 754.846C841.997 803.513 798.49 850.411 850.099 884.854C902.641 919.703 963.853 925.881 1004.26 921.97C1051.25 917.424 1142.27 890.629 1127.89 841.529C1120.88 817.601 1130.91 790.891 1136 764.442C1142.54 730.404 1184.13 698.228 1241.52 688.872C1285.76 681.66 1336.83 686.031 1385.15 677.451C1422.76 670.774 1453.68 658.469 1475.56 643.923C1499.87 627.76 1515.16 608.318 1520.58 587.178M-7.68467 556.938C44.8712 532.889 126.738 522.579 192.459 537.541C246.753 549.902 285.698 576.913 313.473 603.974C338.301 628.163 361.549 652.44 399.055 664.61C446.665 680.057 505.729 673.714 572.046 679.737C633.665 685.332 688.854 693.819 733.027 711.967C762.363 724.02 785.225 741.525 803.58 760.397C848.943 807.035 810.382 852.457 860.507 886.072C911.028 919.721 970.186 926.889 1010.9 923.517C1057.6 919.65 1146 893.986 1133.93 847.267C1127.84 823.663 1140.04 797.407 1145.32 771.236C1151.97 738.309 1190.81 707.185 1245.16 697.079C1288.03 689.108 1338.21 692.166 1386.05 683.805C1423.98 677.176 1455.85 665.589 1479.23 651.618C1505.61 635.852 1523.31 616.515 1530.66 595.122M-7.50978 558.866C47.6513 534.873 130.716 523.552 198.51 538.511C253.532 550.652 293.428 577.79 320.389 605.377C344.182 629.724 365.004 654.303 400.597 667.603C445.719 684.464 504.248 680.824 570.192 687.026C632.616 692.897 689.593 699.613 735.955 717.095C767.239 728.892 791.942 746.602 811.257 765.947C855.812 810.574 822.272 854.502 870.917 887.29C919.417 919.738 976.519 927.889 1017.54 925.065C1063.95 921.868 1149.59 897.372 1139.97 853.005C1134.92 829.678 1149.16 803.923 1154.65 778.03C1161.39 746.214 1197.47 716.108 1248.8 705.287C1290.31 696.534 1339.59 698.302 1386.95 690.159C1425.21 683.58 1458.05 672.718 1482.9 659.313C1511.38 643.956 1531.45 624.713 1540.73 603.066M-7.33414 560.793C50.432 536.859 134.689 524.534 204.561 539.483C260.306 551.41 301.172 578.664 327.304 606.782C350.076 631.283 368.461 656.164 402.14 670.597C444.776 688.869 502.765 687.937 568.337 694.315C631.565 700.467 690.347 705.393 738.883 722.225C772.127 733.753 798.636 751.686 818.934 771.499C862.614 814.134 834.165 856.548 881.329 888.51C927.807 919.757 982.849 928.883 1024.18 926.613C1070.3 924.078 1137.18 900.673 1146.02 858.744C1150.87 835.71 1158.29 810.438 1163.98 784.824C1170.8 754.118 1204.14 724.995 1252.44 713.495C1292.59 703.935 1340.98 704.442 1387.85 696.514C1426.44 689.986 1460.26 679.859 1486.58 667.009C1517.17 652.074 1539.6 632.912 1550.82 611.012M-7.15806 562.721C53.2133 538.842 138.659 525.521 210.614 540.453C267.08 552.171 308.929 579.533 334.22 608.185C355.982 632.838 371.921 658.023 403.683 673.59C443.837 693.271 501.281 695.052 566.483 701.604C630.514 708.038 691.11 711.156 741.811 727.352C777.023 738.601 805.3 756.777 826.611 777.048C869.355 817.708 845.937 858.641 891.738 889.727C936.079 919.821 989.177 929.867 1030.81 928.158C1076.65 926.276 1140.57 903.802 1152.06 864.479C1158.68 841.816 1167.4 816.951 1173.3 791.616C1180.2 762.019 1210.79 733.842 1256.08 721.7C1294.85 711.306 1342.37 710.581 1388.75 702.866C1427.67 696.392 1462.48 687.009 1490.25 674.702C1522.97 660.201 1547.74 641.107 1560.89 618.954M-6.98388 564.649C55.9926 540.828 142.621 526.516 216.664 541.424C273.847 552.938 316.701 580.401 341.134 609.589C361.896 634.393 375.38 659.882 405.222 676.585C442.897 697.672 499.793 702.173 564.625 708.894C629.458 715.615 691.875 716.905 744.736 732.481C781.921 743.439 811.93 761.878 834.284 782.6C876.035 821.302 857.823 860.687 902.144 890.946C944.465 919.839 995.501 930.845 1037.45 929.706C1082.99 928.469 1144.14 906.934 1158.09 870.218C1166.57 847.923 1176.5 823.467 1182.63 798.41C1189.59 769.923 1217.4 742.654 1259.71 729.908C1297.09 718.648 1343.75 716.725 1389.64 709.221C1428.89 702.801 1464.71 694.172 1493.92 682.398C1528.79 668.346 1555.88 649.306 1570.97 626.899M-6.80797 566.576C58.7737 542.813 146.583 527.517 222.714 542.395C280.613 553.71 324.487 581.266 348.048 610.993C367.824 635.944 378.845 661.739 406.762 679.579C441.963 702.072 498.303 709.296 562.769 716.183C628.402 723.195 692.645 722.64 747.661 737.61C786.822 748.267 818.527 766.992 841.958 788.151C882.667 824.912 869.713 862.732 912.552 892.164C952.855 919.855 1001.83 931.814 1044.08 931.253C1089.34 930.652 1147.9 910.078 1164.13 875.956C1174.56 854.036 1185.6 829.98 1191.95 805.204C1198.98 777.825 1223.98 751.429 1263.35 738.115C1299.29 725.958 1345.14 722.87 1390.54 715.573C1430.12 709.212 1466.94 701.344 1497.59 690.092C1534.61 676.502 1564.03 657.503 1581.04 634.842M-6.63369 568.504C61.5515 544.797 150.539 528.526 228.765 543.366C287.377 554.485 332.287 582.128 354.964 612.397C373.764 637.494 382.314 663.594 408.305 682.571C441.035 706.47 496.816 716.421 560.914 723.471C627.345 730.777 693.414 728.361 750.59 742.737C791.729 753.082 825.088 772.116 849.636 793.7C889.258 828.536 881.61 864.773 922.963 893.381C961.25 919.868 1008.16 932.772 1050.72 932.798C1095.69 932.826 1151.85 913.245 1170.18 881.692C1182.68 860.163 1194.69 836.492 1201.28 811.996C1208.35 785.725 1230.51 760.169 1266.98 746.321C1301.45 733.235 1346.54 729.017 1391.44 721.927C1431.36 715.625 1469.18 708.527 1501.26 697.787C1540.44 684.673 1572.17 665.701 1591.12 642.785M-6.45743 570.431C64.3329 546.782 154.495 529.54 234.817 544.336C294.141 555.264 340.107 582.988 361.88 613.799C379.718 639.042 385.789 665.449 409.846 685.564C440.111 710.868 495.324 723.549 559.058 730.759C626.285 738.364 694.18 734.071 753.516 747.865C796.631 757.889 831.599 777.258 857.311 799.25C895.807 832.178 893.507 866.814 933.371 894.599C969.645 919.882 1014.49 933.724 1057.35 934.345C1102.04 934.992 1155.97 916.458 1176.21 887.429C1190.93 866.324 1203.76 843.003 1210.6 818.788C1217.71 793.624 1236.97 768.882 1270.62 754.527C1303.55 740.48 1347.92 735.165 1392.33 728.279C1432.58 722.039 1471.41 715.719 1504.93 705.481C1546.27 692.855 1580.31 673.898 1601.19 650.728M-6.28234 572.358C67.1131 548.766 158.446 530.562 240.869 545.307C300.903 556.047 347.939 583.848 368.795 615.204C385.68 640.591 389.341 667.285 411.388 688.559C439.288 715.24 493.832 730.683 557.203 738.049C625.224 745.956 694.942 739.773 756.444 752.995C801.536 762.688 838.065 782.421 864.988 804.802C902.325 835.839 905.507 868.817 943.782 895.819C978.133 919.861 1020.83 934.669 1063.99 935.893C1108.4 937.152 1160.25 919.733 1182.26 893.168C1199.35 872.537 1212.83 849.516 1219.93 825.583C1227.07 801.525 1243.37 777.573 1274.26 762.735C1305.57 747.697 1349.32 741.318 1393.24 734.634C1433.82 728.458 1473.65 722.922 1508.61 713.177C1552.1 701.052 1588.46 682.096 1611.27 658.673M-6.10737 574.286C69.8933 550.751 162.395 531.589 246.92 546.278C307.664 556.834 355.788 584.707 375.71 616.608C391.653 642.138 392.805 669.148 412.929 691.552C438.354 719.648 492.337 737.817 555.346 745.338C624.16 753.551 695.695 745.464 759.368 758.123C806.433 767.48 844.467 787.605 872.662 810.352C908.808 839.515 917.396 870.861 954.189 897.036C986.519 919.878 1027.17 935.604 1070.63 937.44C1114.76 939.304 1164.65 923.09 1188.29 898.905C1207.92 878.821 1221.88 856.025 1229.25 832.376C1236.41 809.422 1249.68 786.249 1277.89 770.942C1307.49 754.886 1350.71 747.47 1394.13 740.987C1435.05 734.876 1475.87 730.131 1512.27 720.87C1557.92 709.257 1596.6 690.292 1621.34 666.615M-5.93165 576.214C72.6725 552.736 166.344 532.623 252.972 547.25C314.426 557.626 363.652 585.567 382.625 618.012C397.639 643.687 396.271 671.013 414.472 694.546C437.42 724.057 490.813 745.02 553.491 752.627C623.064 761.222 696.443 751.148 762.297 763.252C811.331 772.265 850.806 792.818 880.34 815.904C915.271 843.21 929.289 872.908 964.599 898.255C994.908 919.897 1033.52 936.531 1077.27 938.987C1121.14 941.45 1169.16 926.55 1194.34 904.643C1216.68 885.205 1230.92 862.533 1238.58 839.17C1245.75 817.32 1255.91 794.92 1281.53 779.15C1309.3 762.059 1352.13 753.669 1395.03 747.342C1436.31 741.34 1478.1 737.35 1515.95 728.566C1563.74 717.476 1604.74 698.491 1631.42 674.561M-5.75702 578.141C75.4523 554.721 170.25 533.728 259.021 548.22C321.157 558.465 371.532 586.425 389.54 619.415C403.634 645.236 399.734 672.876 416.011 697.539C436.486 728.464 489.327 752.129 551.634 759.916C622.008 768.791 697.182 756.824 765.223 768.381C816.223 777.043 857.067 798.063 888.015 821.454C921.714 846.925 941.178 874.953 975.007 899.474C1003.3 919.915 1039.88 937.451 1083.9 940.535C1127.51 943.59 1173.69 930.137 1200.37 910.382C1225.59 891.714 1239.94 869.039 1247.91 845.965C1255.07 825.216 1262.04 803.599 1285.17 787.358C1311 769.22 1353.51 759.807 1395.93 753.696C1437.53 747.748 1480.32 744.575 1519.62 736.262C1569.56 725.702 1612.89 706.689 1641.5 682.505M-5.58123 580.068C78.2333 556.705 174.234 534.708 265.073 549.19C327.946 559.215 379.428 587.283 396.455 620.819C409.638 646.785 403.198 674.739 417.553 700.533C435.552 732.872 487.843 759.239 549.779 767.206C620.956 776.36 697.916 762.495 768.15 773.51C821.111 781.815 863.239 803.351 895.691 827.006C928.143 850.661 953.069 876.998 985.417 900.693C1011.68 919.933 1046.25 938.363 1090.54 942.082C1133.9 945.724 1178.19 933.866 1206.42 916.12C1234.64 898.374 1248.94 875.543 1257.23 852.758C1264.39 833.109 1268.08 812.293 1288.81 795.565C1312.58 776.38 1354.89 765.945 1396.83 760.05C1438.76 754.154 1482.52 751.803 1523.29 743.957C1575.36 733.935 1621.03 714.887 1651.58 690.449" stroke="url(#paint1_linear_4903_5078)" stroke-opacity="0.25" stroke-miterlimit="10"/>
<g opacity="0.18">
<path d="M-300.65 180.949C-289.392 161.729 -276.413 143.362 -261.804 125.979C-255.31 118.251 -248.281 110.565 -237.841 106.021C-211.148 94.4063 -170.946 106.262 -137.555 120.948C-106.802 134.475 -77.2185 150.514 -49.6368 168.617C-22.3032 186.556 3.54971 206.781 34.0017 220.239C64.4532 233.697 101.984 238.903 122.701 224.84C135.028 216.473 139.558 202.446 138.327 187.985C137.096 173.523 130.599 158.55 122.977 143.964C114.25 127.263 103.72 109.828 105.136 93.8396C106.601 77.2892 122.206 64.7392 143.344 63.1104C173.416 60.7933 206.127 78.2526 236.537 92.0456C275.169 109.568 317.747 122.733 356.574 121.265C395.402 119.798 429.018 100.852 431.14 70.8097" stroke="#8A8A8A" stroke-miterlimit="10"/>
<path d="M-295.761 186.586C-284.71 167.633 -271.847 149.583 -257.308 132.572C-250.846 125.01 -243.851 117.507 -233.583 113.024C-212.956 104.021 -184.297 108.942 -157.044 118.222C-149.618 120.748 -142.295 123.598 -135.267 126.576C-105.037 139.399 -75.8754 154.729 -48.603 172.12C-21.579 189.353 4.0012 208.964 34.0493 221.963C50.8949 229.251 69.7044 234.305 86.9635 235.336C101.996 236.229 115.906 233.997 126.012 227.382C127.817 226.201 129.466 224.903 130.963 223.497C140.186 214.841 143.449 202.307 142.505 189.431C142.201 185.296 141.498 181.119 140.496 176.932C137.879 165.993 133.267 154.904 128.222 144.067C120.244 126.872 111.313 109.255 113.568 93.2684C115.808 77.3915 130.732 65.1619 151.357 63.4814C180.701 61.0896 212.572 77.5934 242.125 90.4602C244.454 91.4747 246.797 92.4717 249.153 93.4506C284.757 108.236 323.01 118.612 357.845 116.615C394.983 114.488 426.841 95.5803 428.343 66.1417" stroke="#909090" stroke-miterlimit="10"/>
<path d="M-290.871 192.23C-280.029 173.542 -267.28 155.81 -252.812 139.17C-246.382 131.774 -239.42 124.456 -229.325 120.034C-209.053 111.157 -181.062 115.626 -154.361 124.337C-147.078 126.707 -139.891 129.391 -132.982 132.205C-103.28 144.321 -74.538 158.942 -47.5752 175.616C-20.8623 192.14 4.45502 211.118 34.0885 223.675C51.5274 231.064 70.8715 236.345 88.7338 237.604C104.255 238.688 118.767 236.595 129.321 229.918C131.21 228.725 132.941 227.405 134.511 225.97C144.191 217.128 147.512 204.175 146.683 190.863C146.416 186.595 145.754 182.284 144.811 177.971C142.347 166.704 138.046 155.274 133.47 144.145C126.243 126.453 118.892 108.673 122.009 92.6649C124.969 77.466 139.265 65.5562 159.377 63.8237C187.993 61.3565 219.022 76.9013 247.717 88.8391C249.979 89.7805 252.253 90.7038 254.538 91.6092C289.077 105.283 325.866 114.535 359.112 111.915C394.558 109.126 424.655 90.2543 425.537 61.4194" stroke="#4B4B4B" stroke-miterlimit="10"/>
<path d="M-285.388 198.094C-274.761 179.715 -262.139 162.34 -247.752 146.111C-241.36 138.899 -234.436 131.781 -224.523 127.43C-204.623 118.699 -177.32 122.704 -151.193 130.824C-144.06 133.032 -137.014 135.544 -130.227 138.187C-101.073 149.568 -72.7738 163.442 -46.1412 179.361C-19.7585 195.137 5.28562 213.424 34.473 225.523C52.4976 232.993 72.3575 238.494 90.8112 239.977C106.809 241.251 121.912 239.3 132.907 232.577C134.879 231.374 136.688 230.036 138.332 228.574C148.462 219.565 151.838 206.222 151.126 192.502C150.895 188.111 150.275 183.674 149.392 179.246C147.081 167.674 143.095 155.927 138.99 144.531C132.519 126.38 126.729 108.497 130.733 92.4818C134.354 77.9946 148.068 66.4341 167.65 64.6524C195.516 62.1155 225.678 76.6614 253.492 87.6405C255.684 88.5058 257.888 89.354 260.101 90.1834C293.548 102.714 328.843 110.815 360.476 107.575C394.2 104.127 422.511 85.3343 422.77 57.1705" stroke="#9B9B9B" stroke-miterlimit="10"/>
<path d="M-279.589 204.068C-269.183 186.019 -256.694 169.024 -242.393 153.224C-236.04 146.204 -229.159 139.294 -219.43 135.021C-199.909 126.446 -173.307 129.982 -147.764 137.501C-140.783 139.544 -133.881 141.882 -127.22 144.351C-98.625 154.981 -70.7809 168.092 -44.4876 183.239C-18.4475 198.246 6.32353 215.807 35.0443 227.445C53.6511 234.984 74.0143 240.699 93.0507 242.406C109.52 243.868 125.206 242.06 136.638 235.3C138.692 234.088 140.579 232.735 142.296 231.248C152.871 222.083 156.302 208.366 155.707 194.256C155.512 189.746 154.935 185.191 154.111 180.652C151.954 168.79 148.286 156.741 144.653 145.092C138.941 126.504 134.684 108.554 139.6 92.5379C143.824 78.7764 157.009 67.5824 176.052 65.7543C203.156 63.15 232.44 76.6813 259.363 86.6886C261.486 87.4775 263.617 88.2487 265.757 89.0014C298.098 100.372 331.884 107.314 361.89 103.458C393.88 99.3543 420.393 80.6641 420.028 53.2042" stroke="#A0A0A0" stroke-miterlimit="10"/>
<path d="M-273.789 210.034C-263.604 192.315 -251.246 175.698 -237.034 160.328C-230.722 153.499 -223.882 146.798 -214.338 142.601C-195.195 134.183 -169.295 137.251 -144.333 144.17C-137.505 146.048 -130.747 148.213 -124.212 150.507C-96.1782 160.389 -68.7876 172.738 -42.8356 187.111C-17.1354 201.353 7.36829 218.174 35.6167 229.368C54.8085 236.972 75.6713 242.905 95.2906 244.835C112.23 246.483 128.5 244.821 140.368 238.023C142.504 236.803 144.469 235.434 146.258 233.921C157.279 224.601 160.763 210.511 160.283 196.011C160.126 191.382 159.591 186.708 158.825 182.059C156.824 169.908 153.44 157.556 150.311 145.655C145.307 126.629 142.601 108.625 148.462 92.597C153.233 79.5516 165.941 68.7321 184.447 66.8567C210.79 64.1851 239.196 76.7036 265.228 85.7397C267.28 86.4515 269.341 87.1466 271.407 87.8227C302.645 98.035 334.923 103.82 363.303 99.3502C393.558 94.5934 418.275 76.004 417.286 49.2474" stroke="#A6A6A6" stroke-miterlimit="10"/>
<path d="M-267.993 215.992C-258.029 198.603 -245.803 182.364 -231.678 167.422C-225.405 160.784 -218.607 154.291 -209.249 150.171C-190.484 141.909 -165.284 144.51 -140.906 150.83C-134.23 152.545 -127.615 154.535 -121.207 156.655C-93.7316 165.79 -66.7943 177.379 -41.1826 190.982C-15.8228 204.459 8.4184 220.53 36.1879 231.29C55.9677 238.953 77.328 245.11 97.5292 247.263C114.938 249.098 131.792 247.579 144.096 240.743C146.313 239.514 148.357 238.13 150.217 236.592C161.683 227.116 165.221 212.654 164.856 197.765C164.736 193.019 164.243 188.225 163.537 183.466C161.691 171.025 158.619 158.372 155.965 146.22C151.714 126.757 150.475 108.703 157.318 92.6599C162.582 80.3189 174.87 69.8835 192.838 67.962C218.419 65.2233 245.948 76.7306 271.09 84.7982C273.072 85.4338 275.06 86.0524 277.054 86.6518C307.187 95.7083 337.959 100.339 364.714 95.2544C393.237 89.8457 416.157 71.3572 414.546 45.3034" stroke="#ABABAB" stroke-miterlimit="10"/>
<path d="M-262.195 221.944C-252.453 204.883 -240.359 189.022 -226.321 174.508C-220.088 168.061 -213.331 161.776 -204.158 157.732C-185.772 149.625 -161.271 151.76 -137.477 157.482C-130.952 159.033 -124.481 160.849 -118.199 162.796C-91.2825 171.185 -64.7998 182.015 -39.5277 194.847C-14.5098 207.56 9.47615 222.872 36.7622 233.211C57.1324 240.929 78.9859 247.314 99.768 249.688C117.647 251.71 135.083 250.334 147.823 243.461C150.122 242.224 152.244 240.824 154.176 239.261C166.087 229.629 169.677 214.796 169.429 199.517C169.346 194.655 168.895 189.742 168.248 184.873C166.556 172.145 163.798 159.188 161.618 146.786C158.12 126.888 158.305 108.783 166.171 92.7255C171.876 81.076 183.794 71.0359 201.224 69.0674C226.045 66.2626 252.697 76.7597 276.948 83.8595C278.86 84.4192 280.777 84.961 282.698 85.484C311.727 93.3875 340.993 96.8644 366.124 91.1678C392.914 85.1076 414.041 66.7217 411.807 41.3688" stroke="#B1B1B1" stroke-miterlimit="10"/>
<path d="M-255.833 228.048C-246.319 211.352 -234.366 195.9 -220.426 181.843C-214.238 175.6 -207.528 169.536 -198.547 165.576C-180.553 157.641 -156.771 159.342 -133.576 164.421C-127.209 165.815 -120.885 167.445 -114.733 169.214C-88.3965 176.842 -62.3861 186.892 -37.4729 198.929C-12.8129 210.855 10.9034 225.368 37.6813 235.275C58.6278 243.024 80.9556 249.629 102.303 252.218C120.638 254.421 138.643 253.192 151.807 246.295C154.186 245.053 156.384 243.639 158.388 242.055C170.733 232.289 174.374 217.118 174.24 201.485C174.194 196.515 173.785 191.495 173.197 186.525C171.66 173.537 169.219 160.309 167.512 147.684C164.771 127.393 166.333 109.27 175.254 93.2382C181.348 82.2883 192.934 72.6766 209.815 70.667C233.857 67.8012 259.614 77.2701 282.958 83.3914C284.799 83.8733 286.644 84.3385 288.489 84.7853C316.396 91.522 344.135 93.8435 367.624 87.5486C392.664 80.8521 411.982 62.6057 409.128 38.0059" stroke="#B7B7B7" stroke-miterlimit="10"/>
<path d="M-249.059 234.233C-239.779 217.922 -227.973 202.899 -214.139 189.315C-208 183.284 -201.34 177.447 -192.556 173.577C-174.963 165.825 -151.91 167.061 -129.326 171.526C-123.119 172.753 -116.947 174.204 -110.928 175.795C-85.1831 182.656 -59.6593 191.919 -35.117 203.149C-10.8288 214.275 12.6101 227.962 38.8626 237.435C60.3754 245.199 83.1589 252.017 105.06 254.816C123.839 257.195 142.401 256.112 155.981 249.202C158.437 247.956 160.711 246.532 162.784 244.929C175.556 235.043 179.244 219.559 179.226 203.596C179.216 198.527 178.849 193.408 178.32 188.347C176.939 175.12 174.813 161.641 173.58 148.812C171.595 128.162 174.48 110.034 184.498 94.0643C190.931 83.809 202.225 74.6526 218.549 72.6042C241.801 69.6819 266.65 78.1164 289.076 83.2566C290.845 83.6616 292.615 84.0492 294.386 84.4185C321.156 89.9874 347.357 91.1578 369.196 84.2779C392.476 76.9603 409.978 58.8797 406.507 35.0613" stroke="#BCBCBC" stroke-miterlimit="10"/>
<path d="M-242.301 240.372C-233.253 224.44 -221.595 209.84 -207.867 196.724C-201.775 190.9 -195.166 185.289 -186.578 181.507C-169.385 173.934 -147.057 174.707 -125.085 178.566C-119.036 179.628 -113.017 180.903 -107.13 182.317C-81.9765 188.419 -56.9358 196.901 -32.7639 207.335C-8.84698 217.671 14.3181 230.534 40.0443 239.589C62.1219 247.359 85.3593 254.396 107.809 257.405C127.031 259.959 146.148 259.022 160.144 252.097C162.678 250.847 165.027 249.413 167.168 247.79C180.365 237.784 184.102 221.986 184.197 205.694C184.224 200.527 183.899 195.308 183.43 190.156C182.204 176.689 180.394 162.958 179.632 149.925C178.401 128.916 182.555 110.76 193.716 94.8676C200.447 85.282 211.491 76.5923 227.258 74.5044C249.721 71.5255 273.665 78.9354 295.178 83.1057C296.875 83.4343 298.571 83.7451 300.266 84.038C325.902 88.4503 350.571 88.4807 370.764 81.0199C392.291 73.0854 407.984 55.165 403.897 32.1189" stroke="#C2C2C2" stroke-miterlimit="10"/>
<path d="M-235.562 246.468C-226.746 230.91 -215.235 216.726 -201.612 204.071C-195.569 198.454 -189.009 193.064 -180.617 189.368C-163.823 181.972 -142.217 182.286 -120.854 185.545C-114.966 186.443 -109.096 187.543 -103.342 188.782C-78.7762 194.134 -54.2199 201.843 -30.4179 211.488C-6.87063 221.041 16.0238 233.08 41.2228 241.73C63.8682 249.504 87.5551 256.767 110.553 259.983C130.217 262.712 149.887 261.918 164.296 254.978C166.909 253.724 169.332 252.279 171.542 250.636C185.163 240.511 188.946 224.397 189.156 207.777C189.218 202.511 188.935 197.192 188.525 191.949C187.454 178.243 185.96 164.26 185.665 151.022C185.189 129.654 190.551 111.441 202.905 95.6487C209.898 86.709 220.726 78.4976 235.94 76.3708C257.618 73.3363 280.659 79.7314 301.26 82.939C302.884 83.1913 304.508 83.4266 306.129 83.6435C330.636 86.9096 353.776 85.8088 372.33 77.7707C392.108 69.2224 405.997 51.4589 401.297 29.174" stroke="#C7C7C7" stroke-miterlimit="10"/>
<path d="M-228.841 252.525C-220.256 237.336 -208.891 223.563 -195.374 211.363C-189.377 205.949 -182.868 200.779 -174.671 197.168C-158.275 189.947 -137.388 189.805 -116.634 192.47C-110.902 193.206 -105.184 194.133 -99.5632 195.198C-75.5849 199.805 -51.509 206.75 -28.0758 215.613C-4.8967 224.392 17.7297 235.608 42.3997 243.865C65.6118 251.636 89.7468 259.133 113.29 262.555C133.393 265.457 153.615 264.805 168.437 257.85C171.127 256.591 173.624 255.135 175.903 253.472C189.946 243.226 193.777 226.799 194.1 209.849C194.199 204.484 193.957 199.065 193.606 193.731C192.689 179.784 191.545 165.558 191.681 152.108C192.013 130.391 198.468 112.075 212.066 96.412C219.289 88.0925 229.936 80.3732 244.596 78.2069C265.492 75.1158 287.633 80.5063 307.325 82.7601C308.878 82.9374 310.428 83.0974 311.974 83.2391C335.355 85.3697 356.972 83.1455 373.891 74.5346C391.926 65.3769 404.018 47.7655 398.707 26.2331" stroke="#CDCDCD" stroke-miterlimit="10"/>
<path d="M-222.137 258.546C-213.782 243.719 -202.562 230.352 -189.149 218.603C-183.201 213.389 -176.742 208.436 -168.738 204.909C-152.738 197.859 -132.57 197.265 -112.422 199.341C-106.848 199.915 -101.279 200.671 -95.7907 201.564C-72.3973 205.432 -48.8023 211.621 -25.7369 219.71C-2.92342 227.722 19.4375 238.115 43.5798 245.993C67.3596 253.752 91.9353 261.489 116.025 265.116C136.566 268.192 157.338 267.681 172.57 260.709C175.338 259.446 177.908 257.978 180.255 256.295C194.72 245.926 198.597 229.186 199.034 211.908C199.168 206.445 198.97 200.926 198.676 195.5C197.912 181.314 197.082 166.835 197.685 153.179C198.765 131.102 206.307 112.651 221.206 97.1543C228.631 89.4306 239.122 82.2171 253.232 80.0121C273.348 76.8646 294.593 81.2586 313.377 82.5658C314.859 82.6689 316.336 82.7538 317.808 82.8208C340.066 83.824 360.164 80.4868 375.454 71.3052C391.752 61.5407 402.053 44.0785 396.132 23.2889" stroke="#D2D2D2" stroke-miterlimit="10"/>
<path d="M-215.451 264.532C-207.325 250.064 -196.25 237.098 -182.942 225.794C-177.04 220.779 -170.63 216.041 -162.821 212.597C-147.215 205.717 -127.764 204.671 -108.219 206.165C-102.802 206.579 -97.3826 207.165 -92.0254 207.889C-69.2144 211.025 -46.0995 216.462 -23.3998 223.784C-0.954912 231.035 21.1421 240.605 44.757 248.113C69.102 255.853 94.1191 263.841 118.751 267.672C139.73 270.919 161.049 270.548 176.691 263.558C179.535 262.291 182.18 260.811 184.594 259.109C199.478 248.619 203.403 231.564 203.953 213.956C204.124 208.394 203.967 202.775 203.732 197.258C203.121 182.831 202.603 168.102 203.67 154.239C205.495 131.802 214.061 113.167 230.317 97.8803C237.922 90.7285 248.279 84.0339 261.842 81.791C281.179 78.5871 301.531 81.9928 319.411 82.3611C320.822 82.3895 322.227 82.401 323.624 82.3939C344.764 82.2781 363.348 77.8347 377.014 68.0854C391.579 57.7182 400.094 40.4011 393.567 20.3467" stroke="#D8D8D8" stroke-miterlimit="10"/>
<path d="M-208.781 270.487C-200.884 256.373 -189.955 243.803 -176.749 232.941C-170.896 228.122 -164.535 223.597 -156.918 220.235C-141.706 213.522 -122.969 212.028 -104.024 212.944C-98.7643 213.198 -93.4935 213.617 -88.2676 214.171C-66.0388 216.581 -43.4 221.272 -21.0659 227.834C1.01352 234.33 22.847 243.079 45.9359 250.227C70.8472 257.941 96.3022 266.186 121.474 270.221C142.887 273.638 164.754 273.406 180.804 266.398C183.725 265.126 186.443 263.635 188.926 261.913C204.228 251.3 208.2 233.932 208.862 215.995C209.068 210.334 208.952 204.614 208.776 199.006C208.319 184.339 208.111 169.358 209.641 155.288C212.209 132.49 221.732 113.615 239.402 98.5902C247.169 91.9864 257.412 85.8257 270.426 83.5433C288.989 80.283 308.449 82.7079 325.429 82.1441C326.768 82.0993 328.1 82.037 329.424 81.9563C349.448 80.7295 366.524 75.1879 378.571 64.8737C391.41 53.9058 398.146 36.7313 391.013 17.4036" stroke="#DEDEDE" stroke-miterlimit="10"/>
<path d="M-202.131 276.413C-194.462 262.649 -183.675 250.471 -170.574 240.045C-164.766 235.421 -158.456 231.105 -151.031 227.825C-136.211 221.278 -118.186 219.337 -99.8407 219.681C-94.7373 219.777 -89.615 220.029 -84.5199 220.414C-62.8705 222.103 -40.7084 226.055 -18.7378 231.862C2.97664 237.61 24.5497 245.537 47.1128 252.336C72.589 260.013 98.4785 268.525 124.19 272.763C146.037 276.351 168.449 276.257 184.906 269.23C187.903 267.952 190.695 266.45 193.245 264.708C208.963 253.971 212.983 236.289 213.757 218.023C213.998 212.263 213.924 206.444 213.806 200.743C213.5 185.835 213.603 170.603 215.595 156.325C218.903 133.166 229.319 113.988 248.462 99.2837C256.378 93.2039 266.518 87.5925 278.988 85.2713C296.778 81.9555 315.35 83.4056 331.431 81.9151C332.7 81.7966 333.96 81.6619 335.211 81.5089C354.123 79.1794 369.694 72.5446 380.127 61.6683C391.246 50.1033 396.206 33.0676 388.472 14.4591" stroke="#E3E3E3" stroke-miterlimit="10"/>
<path d="M-195.498 282.31C-188.056 268.892 -177.413 257.103 -164.415 247.109C-158.655 242.678 -152.392 238.571 -145.16 235.372C-130.73 228.989 -113.416 226.602 -95.6677 226.379C-90.7204 226.317 -85.7467 226.404 -80.7806 226.623C-59.7089 227.595 -38.0219 230.813 -16.4143 235.871C4.93727 240.877 26.2484 247.982 48.2881 254.441C74.3287 262.073 100.65 270.862 126.899 275.301C149.179 279.059 172.133 279.103 188.996 272.055C192.07 270.773 194.934 269.258 197.552 267.496C213.686 256.636 217.752 238.639 218.638 220.044C218.915 214.186 218.881 208.266 218.822 202.474C218.667 187.325 219.08 171.841 221.532 157.356C225.578 133.836 236.822 114.284 257.494 99.966C265.551 94.3868 275.598 89.3396 287.524 86.979C304.543 83.6069 322.229 84.0887 337.416 81.679C338.614 81.4884 339.802 81.2807 340.979 81.0552C358.783 77.6289 372.854 69.9083 381.679 58.4731C391.082 46.3128 394.275 29.4139 385.94 11.5188" stroke="#E9E9E9" stroke-miterlimit="10"/>
<path d="M-188.881 288.181C-181.665 275.105 -171.166 263.7 -158.27 254.135C-152.556 249.896 -146.343 245.996 -139.3 242.876C-125.261 236.654 -108.666 233.801 -91.5016 233.038C-86.7127 232.813 -81.8834 232.742 -77.0473 232.796C-56.5519 233.057 -35.3372 235.545 -14.092 239.859C6.89788 244.128 27.947 250.411 49.4669 256.538C76.0695 264.113 102.822 273.19 129.606 277.831C152.317 281.757 175.812 281.937 193.079 274.868C196.229 273.58 199.165 272.055 201.851 270.272C218.399 259.288 222.511 240.977 223.51 222.053C223.822 216.095 223.83 210.076 223.828 204.192C223.826 188.801 224.545 173.065 227.457 158.372C232.238 134.49 244.248 114.489 266.505 100.63C274.697 95.5284 284.656 91.0602 296.039 88.6609C312.29 85.2325 329.094 84.7531 343.388 81.428C344.515 81.1657 345.632 80.8855 346.736 80.5877C363.435 76.0713 376.011 67.2718 383.233 55.2789C390.926 42.5257 392.356 25.761 383.423 8.57197" stroke="#EEEEEE" stroke-miterlimit="10"/>
<path d="M-182.284 294.028C-175.294 281.291 -164.937 270.268 -152.142 261.128C-146.475 257.078 -140.311 253.384 -133.459 250.342C-119.808 244.282 -103.919 240.992 -87.3474 239.664C-82.7142 239.283 -78.031 239.049 -73.3245 238.937C-53.4032 238.491 -32.6608 240.255 -11.7769 243.83C8.85185 247.365 29.6398 252.829 50.6412 258.632C77.8056 266.138 104.986 275.517 132.304 280.358C155.446 284.453 179.479 284.768 197.148 277.678C200.374 276.385 203.384 274.848 206.136 273.045C223.097 261.936 227.255 243.312 228.365 224.058C228.712 218.002 228.761 211.882 228.818 205.906C228.966 190.274 229.992 174.286 233.36 159.385C238.874 135.141 251.593 114.61 275.483 101.286C283.812 96.6409 293.681 92.7661 304.523 90.3274C320.009 86.8427 335.933 85.4078 349.337 81.1735C350.395 80.8387 351.44 80.4874 352.471 80.118C368.067 74.5175 379.154 64.6437 384.778 52.0955C390.767 38.7525 390.44 22.1185 380.91 5.6305" stroke="#F4F4F4" stroke-miterlimit="10"/>
<path d="M-175.703 299.851C-168.937 287.45 -158.721 276.805 -146.029 268.087C-140.408 264.225 -134.292 260.734 -127.63 257.771C-114.366 251.869 -99.1814 248.146 -83.2004 246.257C-78.7213 245.722 -74.1848 245.324 -69.6075 245.048C-50.2593 243.898 -29.986 244.943 -9.46161 247.783C10.8067 250.591 31.3328 255.233 51.8194 260.72C79.5434 268.146 107.151 277.838 135.002 282.878C158.571 287.14 183.143 287.591 201.215 280.479C204.515 279.181 207.597 277.631 210.417 275.808C227.789 264.575 231.994 245.636 233.215 226.053C233.598 219.897 233.687 213.677 233.801 207.609C234.099 191.736 235.433 175.495 239.256 160.385C245.501 135.778 258.876 114.631 284.445 101.925C292.917 97.7147 302.689 94.4473 312.995 91.9707C327.718 88.4304 342.764 86.0446 355.282 80.9049C356.27 80.4992 357.243 80.0762 358.202 79.6352C372.701 72.9562 382.303 62.0142 386.332 48.9125C390.623 34.9816 388.545 18.4758 378.42 2.68195" stroke="#F9F9F9" stroke-miterlimit="10"/>
<path d="M-169.136 305.653C-153.934 277.607 -119.662 259.274 -79.0595 252.815C-38.4574 246.356 8.00018 251.136 53.0031 262.802C81.2849 270.134 109.32 280.153 137.702 285.393C166.084 290.632 196.021 290.492 214.694 278.564C238.063 263.636 238.063 235.076 238.779 209.303C239.956 166.918 249.37 121.918 293.391 102.548C315.317 92.9003 343.978 90.6759 363.926 79.14C391.584 63.1463 396.749 29.0364 375.951 -0.2745" stroke="white" stroke-miterlimit="10"/>
</g>
<path d="M-174.974 1558.98C-130.433 1532.51 -83.335 1507.7 -34.0162 1484.72C-12.092 1474.51 10.8751 1464.47 37.2826 1459.91C104.793 1448.25 173.541 1474.85 225.213 1504.23C272.803 1531.29 315.186 1561.88 351.169 1595.13C386.828 1628.09 416.901 1664.16 463.953 1691.05C511.005 1717.94 581.762 1733.95 639.822 1717.31C674.367 1707.4 699.351 1687.28 713.063 1665.24C726.776 1643.21 730.316 1619.26 731.124 1595.65C732.051 1568.61 730.121 1540.08 750.948 1516.33C772.508 1491.74 818.437 1476.25 863.405 1478.41C927.38 1481.47 974.555 1514.88 1021.14 1542.26C1080.33 1577.05 1152.46 1606.15 1233.35 1612.4C1314.24 1618.65 1404.11 1597.47 1442.14 1552.72M-169.696 1570.12C-125.95 1544.07 -79.5208 1519.78 -30.8361 1497.4C-9.19768 1487.46 13.4628 1477.72 39.4196 1473.23C91.5563 1464.2 144.492 1477.83 189.681 1497.69C201.997 1503.1 213.742 1508.98 224.739 1514.98C272.034 1540.81 314.345 1570.17 350.497 1602.22C386.32 1633.97 416.537 1668.98 463.263 1695.04C489.459 1709.65 522.16 1721.33 556.2 1726.64C585.855 1731.25 616.718 1730.93 644.728 1723.2C649.732 1721.82 654.548 1720.23 659.173 1718.44C687.666 1707.46 708.347 1689.35 720.831 1669.82C724.838 1663.54 728.079 1657.12 730.722 1650.61C737.626 1633.62 740.632 1615.97 742.472 1598.6C745.445 1571.05 746.948 1542.66 769.437 1519.15C791.772 1495.81 835.89 1480.7 879.829 1482.67C942.344 1485.46 988.866 1517.18 1034.73 1542.93C1038.35 1544.96 1042.01 1546.97 1045.72 1548.95C1101.77 1578.9 1168.17 1602.8 1241.44 1607.39C1319.55 1612.28 1405.67 1590.83 1441.68 1546.97M-164.416 1581.26C-121.467 1555.63 -75.7017 1531.86 -27.6512 1510.09C-6.29622 1500.41 16.0553 1490.97 41.5591 1486.54C92.7689 1477.66 144.813 1490.44 189.49 1509.29C201.683 1514.42 213.331 1520.01 224.267 1525.72C271.261 1550.33 313.502 1578.47 349.826 1609.3C385.809 1639.86 416.209 1673.78 462.571 1699.03C489.854 1713.88 523.372 1726 558.361 1731.77C588.773 1736.77 620.677 1736.79 649.632 1729.09C654.812 1727.71 659.811 1726.12 664.613 1724.31C694.203 1713.17 715.428 1694.5 728.597 1674.39C732.815 1667.94 736.279 1661.34 739.171 1654.68C746.725 1637.27 750.721 1619.22 753.817 1601.56C758.84 1573.5 763.706 1545.28 787.925 1521.98C810.92 1499.87 853.34 1485.15 896.25 1486.93C957.307 1489.46 1003.18 1519.48 1048.32 1543.6C1051.87 1545.5 1055.48 1547.38 1059.12 1549.23C1114.23 1577.22 1178.86 1599.07 1249.52 1602.38C1324.85 1605.92 1407.23 1584.21 1441.21 1541.22M-159.138 1592.39C-116.983 1567.19 -71.8851 1543.93 -24.4687 1522.77C-3.39943 1513.37 18.6478 1504.22 43.6963 1499.86C93.9792 1491.12 145.131 1503.05 189.297 1520.89C201.365 1525.74 212.917 1531.04 223.793 1536.47C270.49 1559.85 312.661 1586.77 349.155 1616.39C385.3 1645.74 415.917 1678.56 461.879 1703.02C490.263 1718.12 524.585 1730.67 560.523 1736.91C591.693 1742.29 624.637 1742.66 654.538 1734.98C659.898 1733.61 665.075 1732 670.056 1730.17C700.745 1718.89 722.508 1699.65 736.365 1678.96C740.795 1672.34 744.481 1665.56 747.622 1658.74C755.827 1640.92 760.812 1622.47 765.163 1604.52C772.231 1575.94 780.39 1547.91 806.414 1524.81C829.955 1503.92 870.792 1489.59 912.671 1491.19C972.271 1493.45 1017.49 1521.78 1061.9 1544.27C1065.4 1546.04 1068.94 1547.79 1072.53 1549.51C1126.69 1575.54 1189.55 1595.34 1257.61 1597.37C1330.16 1599.55 1408.8 1577.57 1440.75 1535.47M-153.86 1603.53C-112.5 1578.75 -68.0708 1556.01 -21.2863 1535.45C-0.500446 1526.32 21.2379 1517.46 45.8357 1513.18C95.1918 1504.58 145.451 1515.66 189.107 1532.48C201.052 1537.06 212.504 1542.07 223.322 1547.21C269.721 1569.36 311.82 1595.06 348.485 1623.47C384.791 1651.62 415.659 1683.32 461.189 1707C490.686 1722.35 525.8 1735.34 562.686 1742.04C594.615 1747.81 628.598 1748.52 659.444 1740.87C664.982 1739.51 670.339 1737.89 675.498 1736.04C707.284 1724.61 729.591 1704.8 744.135 1683.53C748.776 1676.74 752.686 1669.79 756.075 1662.81C764.928 1644.57 770.907 1625.72 776.513 1607.47C785.63 1578.38 797.001 1550.57 824.905 1527.64C848.88 1507.94 888.247 1494.04 929.094 1495.45C987.236 1497.44 1031.8 1524.09 1075.49 1544.94C1078.93 1546.58 1082.41 1548.2 1085.93 1549.79C1139.14 1573.86 1200.24 1591.61 1265.69 1592.36C1335.46 1593.18 1410.36 1570.94 1440.28 1529.73M-148.58 1614.67C-108.014 1590.31 -64.2519 1568.09 -18.1016 1548.13C2.3986 1539.27 23.8303 1530.71 47.9752 1526.49C96.4067 1518.04 145.772 1528.27 188.919 1544.08C200.738 1548.38 212.095 1553.1 222.85 1557.96C268.949 1578.88 310.979 1603.36 347.814 1630.56C384.282 1657.51 415.429 1688.06 460.499 1710.99C491.12 1726.57 527.015 1740.01 564.849 1747.17C597.535 1753.33 632.558 1754.38 664.348 1746.77C670.065 1745.41 675.601 1743.78 680.939 1741.9C713.823 1730.32 736.671 1709.96 751.901 1688.11C756.753 1681.13 760.888 1674.01 764.524 1666.87C774.027 1648.22 780.935 1628.96 787.858 1610.43C798.924 1580.81 813.531 1553.23 843.393 1530.47C867.7 1511.95 905.697 1498.49 945.515 1499.71C1002.2 1501.43 1046.11 1526.39 1089.07 1545.6C1092.46 1547.12 1095.88 1548.61 1099.34 1550.07C1151.6 1572.18 1210.93 1587.88 1273.77 1587.35C1340.76 1586.81 1411.92 1564.31 1439.81 1523.98M-143.302 1625.8C-103.533 1601.87 -60.4376 1580.16 -14.9191 1560.81C5.29766 1552.22 26.4227 1543.95 50.1123 1539.81C97.6169 1531.49 146.09 1540.88 188.726 1555.68C200.42 1559.7 211.681 1564.13 222.376 1568.71C268.178 1588.4 310.138 1611.65 347.143 1637.64C383.774 1663.39 415.222 1692.79 459.807 1714.98C491.564 1730.79 528.229 1744.68 567.011 1752.31C600.455 1758.85 636.519 1760.24 669.254 1752.66C675.15 1751.3 680.867 1749.67 686.379 1747.77C720.36 1736.04 743.752 1715.11 759.666 1692.68C764.73 1685.53 769.088 1678.23 772.972 1670.93C783.126 1651.86 791.019 1632.2 799.203 1613.39C812.309 1583.25 829.98 1555.89 861.881 1533.3C886.421 1515.93 923.15 1502.94 961.936 1503.97C1017.16 1505.43 1060.42 1528.69 1102.66 1546.27C1105.99 1547.66 1109.35 1549.02 1112.74 1550.35C1164.05 1570.5 1221.62 1584.15 1281.86 1582.35C1346.07 1580.44 1413.49 1557.68 1439.35 1518.23M-138.022 1636.94C-99.0476 1613.43 -56.6187 1592.24 -11.7343 1573.5C8.19669 1565.17 29.0151 1557.2 52.254 1553.12C98.8318 1544.95 146.413 1553.49 188.538 1567.27C200.108 1571.02 211.273 1575.16 221.907 1579.45C267.412 1597.91 309.299 1619.95 346.476 1644.73C383.267 1669.27 415.043 1697.5 459.119 1718.97C492.024 1735 529.447 1749.35 569.176 1757.44C603.38 1764.37 640.482 1766.1 674.163 1758.55C680.237 1757.2 686.133 1755.56 691.824 1753.63C726.903 1741.75 750.835 1720.25 767.437 1697.25C772.712 1689.93 777.293 1682.45 781.426 1675C792.227 1655.51 801.11 1635.45 810.551 1616.34C825.699 1585.69 846.35 1558.53 880.372 1536.13C905.054 1519.87 940.604 1507.39 978.36 1508.22C1032.12 1509.42 1074.73 1530.99 1116.24 1546.94C1119.52 1548.19 1122.82 1549.42 1126.15 1550.63C1176.51 1568.82 1232.31 1580.42 1289.94 1577.33C1351.37 1574.07 1415.05 1551.05 1438.88 1512.48M-132.744 1648.07C-94.5642 1624.99 -52.8043 1604.32 -8.5518 1586.18C11.0958 1578.12 31.6076 1570.45 54.3912 1566.44C100.044 1558.41 146.69 1566.16 188.345 1578.87C199.779 1582.35 210.859 1586.19 221.433 1590.2C266.638 1607.43 308.456 1628.24 345.802 1651.81C382.756 1675.16 414.878 1702.19 458.424 1722.96C492.488 1739.2 530.657 1754.02 571.334 1762.58C606.295 1769.89 644.438 1771.97 679.064 1764.45C685.315 1763.09 691.392 1761.44 697.262 1759.49C733.438 1747.47 757.913 1725.41 775.2 1701.82C780.687 1694.33 785.491 1686.67 789.872 1679.06C801.324 1659.15 811.197 1638.69 821.894 1619.3C839.089 1588.13 862.634 1561.16 898.856 1538.95C923.598 1523.79 958.05 1511.83 994.776 1512.48C1047.08 1513.41 1089.03 1533.29 1129.82 1547.6C1133.04 1548.73 1136.28 1549.83 1139.55 1550.91C1188.96 1567.14 1242.99 1576.69 1298.02 1572.33C1356.67 1567.7 1416.61 1544.42 1438.41 1506.73M-127.467 1659.21C-90.0833 1636.55 -48.9877 1616.4 -5.36938 1598.86C13.9925 1591.07 34.1977 1583.7 56.5283 1579.76C101.255 1571.87 147.005 1578.77 188.152 1590.46C199.46 1593.68 210.446 1597.22 220.959 1600.94C265.867 1616.95 307.613 1636.54 345.131 1658.9C382.247 1681.04 414.736 1706.88 457.734 1726.95C492.969 1743.4 531.869 1758.69 573.499 1767.71C609.22 1775.41 648.401 1777.83 683.97 1770.34C690.4 1768.99 696.656 1767.33 702.705 1765.36C739.979 1753.19 764.995 1730.56 782.97 1706.39C788.669 1698.72 793.695 1690.89 798.323 1683.12C810.425 1662.8 821.288 1641.94 833.242 1622.25C852.483 1590.57 878.839 1563.76 917.347 1541.78C942.075 1527.67 975.505 1516.28 1011.2 1516.74C1062.05 1517.4 1103.35 1535.59 1143.41 1548.27C1146.57 1549.27 1149.75 1550.24 1152.96 1551.19C1201.42 1565.46 1253.68 1572.96 1306.11 1567.32C1361.97 1561.33 1418.17 1537.79 1437.95 1500.98M-122.187 1670.35C-85.5976 1648.11 -45.171 1628.47 -2.18459 1611.54C16.8939 1604.03 36.7901 1596.94 58.6678 1593.07C102.467 1585.33 147.328 1591.39 187.962 1602.06C199.147 1605 210.032 1608.25 220.488 1611.69C265.096 1626.47 306.774 1644.84 344.462 1665.99C381.739 1686.93 414.611 1711.55 457.045 1730.94C493.462 1747.58 533.084 1763.36 575.66 1772.85C612.137 1780.93 652.359 1783.69 688.874 1776.23C695.483 1774.89 701.92 1773.22 708.145 1771.22C746.516 1758.9 772.076 1735.71 790.736 1710.97C796.646 1703.12 801.896 1695.12 806.774 1687.18C819.525 1666.45 831.381 1645.18 844.589 1625.21C865.879 1593.01 894.965 1566.32 935.838 1544.61C960.489 1531.52 992.959 1520.72 1027.62 1521C1077.01 1521.39 1117.66 1537.89 1157 1548.94C1160.1 1549.81 1163.22 1550.65 1166.36 1551.47C1213.88 1563.78 1264.37 1569.23 1314.19 1562.31C1367.28 1554.96 1419.73 1531.15 1437.48 1495.23M-116.909 1681.48C-81.1143 1659.67 -41.3545 1640.55 0.995499 1624.23C19.7883 1616.98 39.3801 1610.19 60.8048 1606.39C103.677 1598.78 147.649 1604 187.769 1613.66C198.828 1616.32 209.619 1619.28 220.014 1622.44C264.324 1635.99 305.931 1653.14 343.788 1673.07C381.228 1692.81 414.497 1716.2 456.352 1734.93C493.966 1751.75 534.297 1768.03 577.822 1777.98C615.06 1786.45 656.32 1789.55 693.78 1782.12C700.568 1780.78 707.184 1779.11 713.588 1777.08C753.058 1764.62 779.158 1740.86 798.504 1715.54C804.625 1707.52 810.098 1699.34 815.222 1691.25C828.624 1670.1 841.472 1648.43 855.932 1628.16C879.276 1595.45 911.005 1568.83 954.324 1547.44C978.845 1535.33 1010.41 1525.17 1044.04 1525.26C1091.97 1525.38 1131.97 1540.19 1170.58 1549.6C1173.63 1550.34 1176.69 1551.06 1179.77 1551.75C1226.33 1562.1 1275.06 1565.49 1322.27 1557.29C1372.58 1548.59 1421.29 1524.52 1437.01 1489.48M-111.631 1692.62C-76.6332 1671.23 -37.5401 1652.63 4.17805 1636.91C22.6874 1629.93 41.9704 1623.44 62.9421 1619.71C104.888 1612.24 147.97 1616.61 187.576 1625.25C198.513 1627.64 209.205 1630.31 219.538 1633.18C263.549 1645.5 305.088 1661.43 343.115 1680.16C380.717 1698.69 414.397 1720.85 455.658 1738.91C494.479 1755.92 535.51 1772.7 579.981 1783.11C617.975 1791.97 660.276 1795.42 698.682 1788.02C705.648 1786.68 712.443 1785 719.026 1782.95C759.592 1770.33 786.237 1746.01 806.267 1720.11C812.6 1711.92 818.296 1703.56 823.669 1695.31C837.72 1673.74 851.626 1651.7 867.276 1631.12C892.772 1597.92 926.966 1571.28 972.808 1550.27C997.157 1539.11 1027.85 1529.62 1060.46 1529.52C1106.93 1529.37 1146.27 1542.49 1184.16 1550.27C1187.15 1550.88 1190.15 1551.47 1193.17 1552.03C1238.78 1560.42 1285.74 1561.76 1330.35 1552.29C1377.88 1542.22 1422.85 1517.89 1436.54 1483.74M-106.351 1703.75C-72.1476 1682.79 -33.7211 1664.71 7.36284 1649.59C25.5865 1642.88 44.5628 1636.68 65.0815 1633.02C106.103 1625.7 148.295 1629.22 187.386 1636.85C198.199 1638.95 208.794 1641.34 219.066 1643.92C262.78 1655.02 304.247 1669.72 342.443 1687.24C380.21 1704.58 414.314 1725.48 454.97 1742.9C495.016 1760.07 536.725 1777.37 582.148 1788.25C620.9 1797.49 664.241 1801.28 703.59 1793.91C710.736 1792.57 717.709 1790.88 724.471 1788.81C766.136 1776.05 793.319 1751.16 814.038 1724.68C820.579 1716.31 826.503 1707.78 832.122 1699.37C846.822 1677.39 861.719 1654.94 878.625 1634.08C906.171 1600.36 942.86 1573.65 991.301 1553.1C1015.44 1542.85 1045.31 1534.07 1076.88 1533.78C1121.9 1533.37 1160.59 1544.8 1197.75 1550.94C1200.68 1551.42 1203.62 1551.88 1206.58 1552.3C1251.24 1558.74 1296.44 1558.03 1338.44 1547.28C1383.19 1535.85 1424.42 1511.26 1436.08 1477.99M-101.073 1714.89C-67.6643 1694.35 -29.9045 1676.78 10.5453 1662.27C28.4855 1655.83 47.1552 1649.93 67.221 1646.34C107.315 1639.16 148.62 1641.83 187.195 1648.44C197.885 1650.27 208.383 1652.37 218.595 1654.67C262.011 1664.54 303.406 1678.02 341.774 1694.32C379.699 1710.46 414.237 1730.1 454.278 1746.89C495.557 1764.2 537.937 1782.04 584.308 1793.38C623.82 1803.01 668.2 1807.14 708.494 1799.8C715.816 1798.47 722.973 1796.77 729.909 1794.67C772.67 1781.76 800.397 1756.31 821.803 1729.26C828.559 1720.71 834.703 1712 840.571 1703.44C855.921 1681.04 871.81 1658.19 889.971 1637.03C919.563 1602.81 958.677 1575.93 1009.79 1555.92C1033.7 1546.56 1062.76 1538.51 1093.3 1538.04C1136.86 1537.36 1174.9 1547.1 1211.33 1551.61C1214.21 1551.96 1217.09 1552.29 1219.98 1552.59C1263.7 1557.07 1307.13 1554.3 1346.52 1542.27C1388.49 1529.48 1425.98 1504.63 1435.61 1472.24M-95.7931 1726.03C-63.1787 1705.91 -26.0879 1688.86 13.73 1674.95C31.3846 1668.78 49.7476 1663.18 69.3604 1659.65C108.528 1652.62 148.945 1654.44 187.007 1660.04C197.574 1661.59 207.974 1663.4 218.125 1665.42C261.242 1674.06 302.57 1686.32 341.108 1701.41C379.195 1716.34 414.172 1734.71 453.59 1750.88C496.119 1768.32 539.157 1786.71 586.473 1798.51C626.742 1808.53 672.163 1813 713.402 1805.69C720.903 1804.37 728.239 1802.66 735.354 1800.54C779.214 1787.48 807.482 1761.46 829.574 1733.83C836.538 1725.11 842.908 1716.22 849.024 1707.5C865.024 1684.69 881.903 1661.44 901.318 1639.99C932.959 1605.25 974.431 1578.12 1028.28 1558.75C1051.95 1550.24 1080.21 1542.96 1109.73 1542.3C1151.82 1541.35 1189.21 1549.4 1224.92 1552.27C1227.74 1552.5 1230.56 1552.7 1233.39 1552.87C1276.15 1555.39 1317.81 1550.57 1354.61 1537.26C1393.79 1523.11 1427.54 1498 1435.14 1466.49M-90.5152 1737.16C-58.6976 1717.47 -22.2712 1700.94 16.9126 1687.63C34.2837 1681.73 52.3378 1676.42 71.4976 1672.97C109.738 1666.07 149.27 1667.04 186.814 1671.63C197.258 1672.91 207.561 1674.44 217.652 1676.16C260.471 1683.57 301.727 1694.61 340.436 1708.49C378.684 1722.23 414.114 1739.31 452.898 1754.87C496.691 1772.43 540.369 1791.38 588.636 1803.65C629.662 1814.05 676.123 1818.86 718.308 1811.59C725.988 1810.26 733.503 1808.55 740.797 1806.4C785.753 1793.2 814.565 1766.61 837.342 1738.4C844.517 1729.51 851.11 1720.45 857.475 1711.56C874.124 1688.33 891.994 1664.69 912.666 1642.94C946.354 1607.69 990.13 1580.19 1046.77 1561.58C1070.19 1553.88 1097.67 1547.41 1126.15 1546.56C1166.79 1545.34 1203.52 1551.7 1238.51 1552.94C1241.27 1553.04 1244.03 1553.11 1246.79 1553.15C1288.61 1553.71 1328.51 1546.84 1362.69 1532.25C1399.1 1516.74 1429.11 1491.37 1434.68 1460.74M-85.2375 1748.3C-54.2143 1729.03 -18.4569 1713.02 20.095 1700.32C37.1804 1694.69 54.9302 1689.67 73.6347 1686.29C110.951 1679.53 149.593 1679.65 186.621 1683.23C196.942 1684.23 207.145 1685.47 217.178 1686.91C259.699 1693.09 300.883 1702.91 339.763 1715.58C378.173 1728.11 414.058 1743.91 452.204 1758.86C497.274 1776.52 541.58 1796.05 590.794 1808.79C632.579 1819.58 680.079 1824.73 723.21 1817.48C731.068 1816.16 738.762 1814.44 746.235 1812.27C792.29 1798.92 821.643 1771.76 845.105 1742.98C852.492 1733.91 859.308 1724.67 865.921 1715.63C883.22 1691.98 902.083 1667.94 924.009 1645.9C959.746 1610.14 1005.78 1582.15 1065.25 1564.41C1088.43 1557.5 1115.12 1551.86 1142.57 1550.82C1181.75 1549.33 1217.82 1554 1252.09 1553.61C1254.79 1553.58 1257.5 1553.52 1260.2 1553.43C1301.06 1552.03 1339.19 1543.11 1370.77 1527.24C1404.4 1510.37 1430.66 1484.74 1434.21 1455M-79.9574 1759.44C-49.7287 1740.59 -14.6379 1725.09 23.2798 1713C40.0818 1707.64 57.5226 1702.92 75.7765 1699.6C112.166 1692.99 149.928 1692.21 186.433 1694.83C196.633 1695.54 206.736 1696.5 216.708 1697.65C258.931 1702.61 300.047 1711.21 339.096 1722.67C377.669 1734 414.014 1748.49 451.518 1762.85C497.88 1780.59 542.799 1800.72 592.961 1813.92C635.504 1825.1 684.045 1830.59 728.121 1823.37C736.158 1822.05 744.031 1820.32 751.682 1818.13C798.834 1804.63 828.728 1776.91 852.88 1747.54C860.478 1738.3 867.517 1728.89 874.379 1719.69C892.329 1695.62 912.181 1671.18 935.364 1648.85C973.147 1612.57 1021.4 1583.97 1083.75 1567.24C1106.7 1561.08 1132.58 1556.3 1159 1555.08C1196.72 1553.32 1232.14 1556.3 1265.68 1554.27C1268.33 1554.11 1270.97 1553.92 1273.61 1553.7C1313.53 1550.35 1349.89 1539.38 1378.87 1522.23C1409.71 1504 1432.23 1478.1 1433.75 1449.24M-74.6797 1770.57C-45.2477 1752.15 -10.8237 1737.17 26.4622 1725.68C42.9785 1720.59 60.1127 1716.16 77.9135 1712.92C113.376 1706.45 150.246 1704.82 186.24 1706.42C196.315 1706.85 206.322 1707.53 216.234 1708.4C258.159 1712.13 299.204 1719.5 338.422 1729.75C377.158 1739.88 413.967 1753.07 450.824 1766.83C498.495 1784.64 544.009 1805.39 595.119 1819.05C638.422 1830.62 688.001 1836.45 733.02 1829.26C741.236 1827.95 749.29 1826.21 757.118 1824C805.368 1810.35 835.804 1782.06 860.641 1752.12C868.451 1742.7 875.712 1733.11 882.823 1723.75C901.423 1699.27 922.265 1674.43 946.702 1651.81C986.532 1615.02 1036.99 1585.65 1102.23 1570.07C1124.98 1564.63 1150.02 1560.75 1175.41 1559.34C1211.67 1557.31 1246.44 1558.6 1279.26 1554.94C1281.85 1554.65 1284.43 1554.33 1287 1553.98C1325.97 1548.67 1360.57 1535.65 1386.94 1517.22C1415 1497.63 1433.79 1471.47 1433.27 1443.5M-69.4018 1781.71C-40.7643 1763.71 -7.007 1749.25 29.6447 1738.36C45.8776 1733.54 62.7052 1729.41 80.0507 1726.24C114.586 1719.91 150.564 1717.43 186.048 1718.02C195.999 1718.18 205.909 1718.56 215.761 1719.15C257.386 1721.64 298.361 1727.8 337.751 1736.84C376.647 1745.76 413.926 1757.63 450.131 1770.82C499.127 1788.67 545.222 1810.06 597.282 1824.19C641.342 1836.14 691.961 1842.32 737.926 1835.16C746.319 1833.85 754.554 1832.1 762.561 1829.86C811.908 1816.06 842.887 1787.21 868.409 1756.69C876.43 1747.1 883.915 1737.33 891.274 1727.82C910.522 1702.92 932.358 1677.68 958.05 1654.77C999.928 1617.46 1052.59 1587.18 1120.72 1572.89C1143.3 1568.16 1167.47 1565.2 1191.83 1563.6C1226.64 1561.31 1260.76 1560.9 1292.84 1555.61C1295.38 1555.19 1297.9 1554.74 1300.41 1554.26C1338.43 1546.99 1371.26 1531.92 1395.02 1512.21C1420.31 1491.26 1435.35 1464.84 1432.81 1437.75M-64.1218 1792.84C0.575035 1752.01 93.6051 1730.75 185.857 1729.61C278.109 1728.48 369.343 1746.38 449.441 1774.81C499.778 1792.68 546.437 1814.73 599.445 1829.32C652.452 1843.91 715.033 1850.37 768.001 1835.72C834.292 1817.4 867.9 1772.36 899.722 1731.88C952.054 1665.31 1024.64 1596.45 1139.21 1575.72C1196.28 1565.4 1258.65 1568.28 1313.82 1554.54C1390.3 1535.49 1441.21 1482.86 1432.34 1432" stroke="url(#paint2_linear_4903_5078)" stroke-opacity="0.11" stroke-width="2.32296" stroke-miterlimit="10"/>
<path d="M0 2417.38C29.1156 2395.28 99.8591 2394.49 147.276 2407.67C194.692 2420.86 225.891 2443.65 260.526 2463.92C295.161 2484.2 339.738 2503.74 394.485 2505.59C464.475 2507.97 528.346 2480.66 598.069 2484.43C652.412 2487.37 693.309 2508.63 716.019 2530.91C728.86 2543.5 733.254 2558.02 743.834 2571.05C791.813 2630.13 712.7 2682.24 776.165 2719.16C844.884 2759.15 922.305 2757.4 960.532 2750.18C1009.5 2740.95 1118.06 2709.82 1088.94 2647.67C1077.12 2622.43 1067.11 2596.53 1070.76 2570.74C1076.23 2532.13 1140.57 2494.78 1221.81 2492.59C1277.49 2491.1 1335.23 2505.04 1387.37 2495.66C1422.41 2489.36 1446.79 2473.17 1455.59 2455.85C1464.39 2438.53 1459.42 2420.21 1449.38 2403.02M0.175791 2419.11C31.8968 2397.07 103.918 2395.31 153.326 2408.55C201.553 2421.47 233.534 2444.48 267.44 2465.19C300.946 2485.65 343.203 2505.42 396.026 2508.29C463.54 2511.93 526.859 2487.05 596.212 2490.98C651.359 2494.18 693.619 2513.93 718.947 2535.52C733.497 2547.93 740.127 2562.58 751.511 2576.04C799.767 2633.14 724.591 2684.07 786.576 2720.26C853.274 2759.17 928.698 2758.34 967.17 2751.58C1015.92 2743.01 1120.21 2712.89 1094.98 2652.84C1084.59 2628.08 1076.21 2602.39 1080.09 2576.85C1085.64 2539.23 1147.12 2503 1225.45 2499.98C1279.64 2497.89 1336.62 2510.56 1388.27 2501.37C1423.64 2495.12 1448.73 2479.58 1459.27 2462.77C1469.9 2445.81 1467.57 2427.58 1459.46 2410.16M0.352423 2420.85C34.6788 2398.85 107.965 2396.13 159.38 2409.42C208.401 2422.09 241.188 2445.31 274.358 2466.45C306.743 2487.09 346.669 2507.09 397.567 2510.98C462.606 2515.9 525.394 2493.37 594.357 2497.54C650.321 2500.92 693.998 2519.23 721.873 2540.13C738.166 2552.35 746.988 2567.13 759.186 2581.04C807.539 2636.16 736.482 2685.91 796.984 2721.36C861.659 2759.18 935.077 2759.28 973.804 2752.97C1022.33 2745.06 1122.41 2715.94 1101.02 2658C1092.06 2633.71 1085.32 2608.25 1089.41 2582.96C1095.04 2546.34 1153.7 2511.2 1229.08 2507.36C1281.8 2504.67 1338 2516.08 1389.17 2507.09C1424.86 2500.88 1450.68 2485.97 1462.93 2469.69C1475.44 2453.09 1475.71 2434.95 1469.53 2417.31M0.526423 2422.58C37.4582 2400.64 111.998 2396.96 165.431 2410.29C215.234 2422.72 248.844 2446.13 281.272 2467.71C312.547 2488.53 350.132 2508.77 399.108 2513.67C461.67 2519.86 523.916 2499.74 592.5 2504.1C649.274 2507.71 694.441 2524.52 724.8 2544.75C742.87 2556.78 753.833 2571.68 766.862 2586.03C815.151 2639.21 748.374 2687.75 807.394 2722.45C870.049 2759.2 941.451 2760.22 980.441 2754.36C1028.74 2747.1 1124.68 2718.96 1107.06 2663.16C1099.54 2639.33 1094.57 2614.11 1098.74 2589.07C1104.66 2553.46 1160.29 2519.4 1232.72 2514.74C1283.98 2511.45 1339.34 2521.54 1390.06 2512.8C1426.06 2506.6 1452.67 2492.36 1466.61 2476.61C1481 2460.36 1483.85 2442.33 1479.61 2424.45M0.702346 2424.31C40.2379 2402.42 116.023 2397.8 171.483 2411.17C222.056 2423.36 256.51 2446.94 288.19 2468.98C318.364 2489.96 353.6 2510.44 400.652 2516.37C460.74 2523.83 522.441 2506.11 590.647 2510.65C648.23 2514.49 694.95 2529.82 727.729 2549.36C747.609 2561.21 760.666 2576.23 774.541 2591.02C822.624 2642.28 760.267 2689.59 817.807 2723.55C878.44 2759.21 947.818 2761.15 987.081 2755.75C1035.13 2749.14 1127.03 2721.95 1113.11 2668.32C1107.04 2644.93 1103.73 2619.97 1108.07 2595.18C1114.13 2560.57 1166.91 2527.58 1236.36 2522.12C1286.19 2518.21 1340.71 2527.05 1390.96 2518.52C1427.28 2512.36 1454.69 2498.75 1470.28 2483.54C1486.59 2467.62 1492 2449.7 1489.69 2431.6M0.87662 2426.05C43.0176 2404.21 120.036 2398.64 177.534 2412.04C228.868 2424.01 264.185 2447.75 295.105 2470.24C324.188 2491.39 357.034 2512.16 402.193 2519.06C459.767 2527.85 520.963 2512.48 588.791 2517.21C647.184 2521.28 695.514 2535.1 730.656 2553.97C752.379 2565.64 767.483 2580.78 782.218 2596.01C829.967 2645.37 772.16 2691.43 828.217 2724.64C886.829 2759.23 954.176 2762.08 993.717 2757.14C1041.51 2751.17 1129.46 2724.92 1119.15 2673.48C1114.55 2650.52 1112.87 2625.83 1117.4 2601.29C1123.59 2567.68 1173.54 2535.73 1240 2529.51C1288.41 2524.97 1342.09 2532.56 1391.86 2524.23C1428.5 2518.11 1456.74 2505.13 1473.95 2490.46C1492.22 2474.88 1500.15 2457.07 1499.77 2438.75M1.05263 2427.78C45.799 2405.99 124.042 2399.49 183.587 2412.91C235.672 2424.66 271.87 2448.56 302.021 2471.5C330.025 2492.81 360.489 2513.85 403.734 2521.75C458.82 2531.82 519.486 2518.86 586.935 2523.77C646.137 2528.07 696.126 2540.37 733.582 2558.59C757.175 2570.06 774.281 2585.34 789.893 2601.01C837.192 2648.49 784.049 2693.27 838.625 2725.74C895.216 2759.25 960.526 2763 1000.35 2758.53C1047.89 2753.2 1131.98 2727.85 1125.19 2678.64C1122.07 2656.09 1122.02 2631.69 1126.72 2607.4C1133.04 2574.79 1180.19 2543.87 1243.64 2536.89C1290.64 2531.72 1343.47 2538.07 1392.76 2529.95C1429.72 2523.86 1458.83 2511.52 1477.62 2497.38C1497.87 2482.15 1508.29 2464.45 1509.84 2445.89M1.22907 2429.51C48.5809 2407.78 128.042 2400.34 189.64 2413.79C242.47 2425.32 279.566 2449.36 308.938 2472.76C335.872 2494.23 363.943 2515.53 405.278 2524.44C457.872 2535.79 518.008 2525.24 585.08 2530.32C645.092 2534.87 696.781 2545.63 736.512 2563.2C762 2574.47 781.065 2589.89 797.572 2606C844.317 2651.62 795.944 2695.11 849.037 2726.84C903.606 2759.26 966.874 2763.92 1006.99 2759.93C1054.25 2755.22 1147.79 2730.13 1131.23 2683.8C1123.41 2661.94 1131.16 2637.55 1136.05 2613.51C1142.49 2581.9 1186.85 2551.98 1247.27 2544.27C1292.89 2538.45 1344.84 2543.58 1393.66 2535.66C1430.94 2529.62 1460.95 2517.91 1481.3 2504.3C1503.56 2489.41 1516.44 2471.82 1519.92 2453.04M1.40292 2431.25C51.3601 2409.56 132.031 2401.21 195.689 2414.66C249.256 2425.98 287.27 2450.16 315.851 2474.03C341.727 2495.64 367.395 2517.21 406.817 2527.14C456.922 2539.76 516.525 2531.63 583.222 2536.88C644.04 2541.67 697.469 2550.87 739.436 2567.81C766.84 2578.87 787.824 2594.45 805.246 2610.99C851.343 2654.77 807.832 2696.95 859.445 2727.93C911.993 2759.28 973.211 2764.84 1013.63 2761.32C1060.61 2757.23 1151.65 2733.13 1137.27 2688.96C1130.26 2667.44 1140.29 2643.42 1145.37 2619.63C1151.92 2589.01 1193.51 2560.07 1250.91 2551.65C1295.15 2545.17 1346.22 2549.1 1394.55 2541.38C1432.16 2535.37 1463.09 2524.31 1484.97 2511.22C1509.28 2496.68 1524.58 2479.2 1529.99 2460.18M1.57867 2432.98C54.1397 2411.35 136.014 2402.08 201.742 2415.53C256.041 2426.65 294.99 2450.95 322.767 2475.29C347.598 2497.05 370.848 2518.88 408.357 2529.83C455.972 2543.72 515.042 2538.02 581.366 2543.44C642.991 2548.47 698.185 2556.1 742.363 2572.43C771.701 2583.27 794.565 2599.01 812.922 2615.99C858.289 2657.94 819.725 2698.79 869.855 2729.03C920.381 2759.29 979.545 2765.74 1020.26 2762.71C1066.97 2759.23 1155.38 2736.15 1143.31 2694.12C1137.21 2672.89 1149.42 2649.28 1154.7 2625.74C1161.35 2596.12 1200.19 2568.12 1254.55 2559.03C1297.42 2551.86 1347.61 2554.61 1395.45 2547.09C1433.39 2541.13 1465.26 2530.71 1488.64 2518.14C1515.02 2503.96 1532.72 2486.57 1540.07 2467.33M1.75357 2434.71C56.92 2413.13 139.993 2402.95 207.793 2416.41C262.821 2427.33 302.721 2451.74 329.684 2476.55C353.48 2498.45 374.304 2520.56 409.901 2532.52C455.027 2547.69 513.561 2544.41 579.511 2549.99C641.941 2555.27 698.925 2561.31 745.291 2577.04C776.578 2587.65 801.283 2603.58 820.6 2620.98C865.159 2661.12 831.616 2700.63 880.266 2730.12C928.771 2759.31 985.878 2766.64 1026.9 2764.1C1073.32 2761.23 1158.96 2739.19 1149.35 2699.29C1144.29 2678.3 1158.54 2655.14 1164.03 2631.85C1170.76 2603.23 1206.86 2576.15 1258.18 2566.42C1299.7 2558.54 1348.99 2560.13 1396.35 2552.81C1434.61 2546.89 1467.45 2537.12 1492.31 2525.06C1520.79 2511.25 1540.86 2493.94 1550.15 2474.47M1.92923 2436.45C59.701 2414.92 143.966 2403.83 213.845 2417.28C269.596 2428.01 310.465 2452.52 336.6 2477.81C359.374 2499.85 377.76 2522.23 411.443 2535.21C454.083 2551.65 512.078 2550.81 577.656 2556.55C640.891 2562.08 699.678 2566.51 748.219 2581.65C781.466 2592.02 807.978 2608.15 828.278 2625.97C871.962 2664.32 843.51 2702.47 890.678 2731.22C937.162 2759.33 992.208 2767.54 1033.54 2765.49C1079.67 2763.21 1146.56 2742.16 1155.39 2704.45C1160.25 2683.73 1167.66 2661 1173.36 2637.96C1180.18 2610.34 1213.52 2584.14 1261.82 2573.8C1301.98 2565.2 1350.38 2565.66 1397.25 2558.53C1435.84 2552.65 1469.66 2543.55 1495.99 2531.99C1526.58 2518.55 1549.01 2501.32 1560.23 2481.62M2.10533 2438.18C62.4825 2416.7 147.937 2404.72 219.898 2418.15C276.37 2428.69 318.224 2453.3 343.517 2479.08C365.28 2501.25 381.221 2523.9 412.986 2537.91C453.144 2555.61 510.594 2557.21 575.802 2563.1C639.839 2568.89 700.442 2571.7 751.147 2586.26C786.362 2596.38 814.643 2612.73 835.956 2630.96C878.703 2667.54 855.283 2704.35 901.089 2732.32C945.434 2759.38 998.537 2768.42 1040.18 2766.88C1086.02 2765.19 1149.95 2744.98 1161.43 2709.61C1168.05 2689.22 1176.78 2666.86 1182.68 2644.07C1189.58 2617.45 1220.17 2592.1 1265.46 2581.18C1304.24 2571.83 1351.77 2571.18 1398.15 2564.24C1437.07 2558.42 1471.89 2549.98 1499.66 2538.91C1532.39 2525.86 1557.16 2508.69 1570.31 2488.76M2.27952 2439.92C65.2621 2418.49 151.899 2405.62 225.949 2419.03C283.137 2429.38 325.996 2454.09 350.431 2480.34C371.195 2502.65 384.681 2525.58 414.525 2540.6C452.204 2559.57 509.106 2563.62 573.944 2569.66C638.784 2575.71 701.207 2576.87 754.073 2590.88C791.261 2600.73 821.273 2617.32 843.629 2635.96C885.384 2670.77 867.171 2706.19 911.495 2733.41C953.82 2759.4 1004.86 2769.3 1046.81 2768.28C1092.36 2767.16 1153.52 2747.79 1167.47 2714.77C1175.94 2694.71 1185.88 2672.72 1192.01 2650.18C1198.97 2624.56 1226.78 2600.03 1269.1 2588.56C1306.48 2578.43 1353.15 2576.71 1399.04 2569.96C1438.3 2564.18 1474.11 2556.42 1503.33 2545.83C1538.2 2533.19 1565.3 2516.06 1580.38 2495.91M2.45545 2441.65C68.0435 2420.28 155.861 2406.52 232 2419.9C289.905 2430.08 333.782 2454.86 357.346 2481.6C377.124 2504.04 388.146 2527.25 416.066 2543.29C451.27 2563.52 507.616 2570.02 572.087 2576.22C637.727 2582.52 701.977 2582.03 756.998 2595.49C796.163 2605.08 827.87 2621.92 851.304 2640.95C892.017 2674.02 879.062 2708.03 921.905 2734.51C962.212 2759.42 1011.19 2770.17 1053.45 2769.67C1098.71 2769.13 1157.28 2750.62 1173.51 2719.93C1183.94 2700.21 1194.98 2678.57 1201.33 2656.29C1208.36 2631.66 1233.36 2607.92 1272.73 2595.94C1308.69 2585.01 1354.54 2582.23 1399.94 2575.67C1439.53 2569.95 1476.35 2562.87 1507 2552.75C1544.02 2540.53 1573.44 2523.44 1590.46 2503.05M2.62974 2443.38C70.8216 2422.06 159.818 2407.43 238.051 2420.77C296.669 2430.77 341.584 2455.64 364.263 2482.86C383.065 2505.44 391.616 2528.92 417.609 2545.98C450.342 2567.48 506.128 2576.43 570.233 2582.77C636.67 2589.34 702.746 2587.17 759.927 2600.1C801.07 2609.41 834.432 2626.53 858.983 2645.94C898.609 2677.28 890.96 2709.87 932.317 2735.6C970.608 2759.43 1017.52 2771.03 1060.09 2771.06C1105.06 2771.08 1161.23 2753.47 1179.55 2725.09C1192.06 2705.72 1204.07 2684.43 1210.66 2662.4C1217.73 2638.77 1239.89 2615.78 1276.37 2603.33C1310.84 2591.56 1355.93 2587.76 1400.84 2581.38C1440.76 2575.72 1478.59 2569.33 1510.67 2559.67C1549.85 2547.88 1581.59 2530.81 1600.54 2510.2M2.80602 2445.12C73.6032 2423.85 163.774 2408.34 244.104 2421.65C303.433 2431.47 349.404 2456.41 371.179 2484.13C389.019 2506.83 395.09 2530.58 419.15 2548.68C449.418 2571.44 504.636 2582.84 568.377 2589.33C635.61 2596.17 703.512 2592.31 762.853 2604.71C805.973 2613.73 840.944 2631.15 866.659 2650.93C905.158 2680.55 902.858 2711.71 942.726 2736.7C979.004 2759.44 1023.85 2771.89 1066.72 2772.45C1111.41 2773.03 1165.34 2756.36 1185.59 2730.25C1200.31 2711.27 1213.14 2690.29 1219.98 2668.51C1227.1 2645.87 1246.36 2623.62 1280.01 2610.71C1312.94 2598.07 1357.32 2593.29 1401.73 2587.1C1441.99 2581.48 1480.82 2575.8 1514.34 2566.59C1555.68 2555.23 1589.73 2538.18 1610.61 2517.34M2.98113 2446.85C76.3838 2425.63 167.726 2409.26 250.156 2422.52C310.197 2432.18 357.237 2457.19 378.095 2485.39C394.982 2508.22 398.643 2532.24 420.692 2551.37C448.595 2575.37 503.144 2589.26 566.521 2595.89C634.549 2603 704.273 2597.44 765.782 2609.33C810.878 2618.05 847.41 2635.8 874.337 2655.93C911.676 2683.84 914.859 2713.51 953.138 2737.79C987.492 2759.42 1030.19 2772.74 1073.36 2773.84C1117.77 2774.97 1169.63 2759.31 1191.64 2735.41C1208.73 2716.85 1222.21 2696.15 1229.31 2674.62C1236.46 2652.98 1252.75 2631.44 1283.65 2618.09C1314.96 2604.56 1358.71 2598.83 1402.64 2592.81C1443.22 2587.26 1483.06 2582.28 1518.02 2573.51C1561.51 2562.61 1597.88 2545.56 1620.69 2524.49M3.15612 2448.58C79.1641 2427.42 171.675 2410.18 256.208 2423.39C316.958 2432.89 365.087 2457.96 385.01 2486.65C400.956 2509.62 402.107 2533.91 422.234 2554.06C447.661 2579.33 501.649 2595.68 564.664 2602.44C633.485 2609.83 705.027 2602.56 768.706 2613.94C815.776 2622.36 853.814 2640.46 882.011 2660.92C918.16 2687.15 926.75 2715.35 963.546 2738.89C995.879 2759.44 1036.54 2773.58 1080 2775.23C1124.13 2776.91 1174.03 2762.32 1197.67 2740.57C1217.3 2722.51 1231.26 2702 1238.64 2680.73C1245.8 2660.08 1259.07 2639.24 1287.28 2625.47C1316.88 2611.03 1360.1 2604.36 1403.53 2598.53C1444.45 2593.03 1485.28 2588.76 1521.69 2580.43C1567.33 2569.99 1606.02 2552.93 1630.77 2531.63M3.33186 2450.32C81.9437 2429.2 175.624 2411.11 262.26 2424.27C323.72 2433.6 372.952 2458.73 391.927 2487.92C406.941 2511.01 405.573 2535.59 423.776 2556.76C446.727 2583.3 500.125 2602.16 562.809 2609C632.389 2616.73 705.775 2607.67 771.635 2618.56C820.674 2626.66 860.153 2645.15 889.69 2665.91C924.624 2690.48 938.644 2717.19 973.957 2739.99C1004.27 2759.45 1042.89 2774.41 1086.63 2776.62C1130.51 2778.84 1178.53 2765.44 1203.72 2745.73C1226.06 2728.25 1240.3 2707.86 1247.97 2686.84C1255.14 2667.19 1265.29 2647.04 1290.92 2632.85C1318.7 2617.48 1361.52 2609.94 1404.43 2604.24C1445.71 2598.85 1487.51 2595.26 1525.36 2587.36C1573.16 2577.38 1614.17 2560.3 1640.85 2538.78M3.50651 2452.05C84.7237 2430.99 179.531 2412.1 268.31 2425.14C330.452 2434.35 380.832 2459.5 398.842 2489.18C412.937 2512.4 409.037 2537.26 425.316 2559.45C445.792 2587.26 498.639 2608.55 560.952 2615.55C631.332 2623.54 706.514 2612.77 774.561 2623.17C825.567 2630.96 866.414 2649.87 897.365 2670.91C931.068 2693.82 950.534 2719.03 984.366 2741.08C1012.66 2759.47 1049.24 2775.24 1093.27 2778.02C1136.89 2780.76 1183.07 2768.66 1209.76 2750.89C1234.98 2734.1 1249.32 2713.71 1257.29 2692.95C1264.46 2674.29 1271.43 2654.85 1294.56 2640.24C1320.39 2623.92 1362.9 2615.46 1405.33 2609.96C1446.94 2604.61 1489.72 2601.76 1529.03 2594.28C1578.97 2584.78 1622.31 2567.68 1650.92 2545.93M3.68231 2453.79C87.505 2432.77 183.516 2412.99 274.362 2426.01C337.242 2435.03 388.729 2460.28 405.758 2490.44C418.942 2513.8 412.501 2538.94 426.858 2562.14C444.859 2591.23 497.154 2614.94 559.097 2622.11C630.28 2630.35 707.248 2617.87 777.488 2627.78C830.455 2635.25 872.587 2654.62 905.042 2675.9C937.497 2697.18 962.426 2720.87 994.777 2742.18C1021.05 2759.49 1055.61 2776.06 1099.91 2779.41C1143.28 2782.68 1187.57 2772.02 1215.8 2756.06C1244.03 2740.09 1258.32 2719.56 1266.62 2699.06C1273.77 2681.39 1277.47 2662.67 1298.2 2647.62C1321.97 2630.36 1364.29 2620.98 1406.23 2615.67C1448.17 2610.37 1491.93 2608.26 1532.71 2601.2C1584.78 2592.19 1630.45 2575.05 1661 2553.07" stroke="url(#paint3_linear_4903_5078)" stroke-opacity="0.15" stroke-miterlimit="10"/>
</g>
<defs>
<filter id="filter0_d_4903_5078" x="-8" y="-1" width="1456" height="2813" filterUnits="userSpaceOnUse" color-interpolation-filters="sRGB">
<feFlood flood-opacity="0" result="BackgroundImageFix"/>
<feColorMatrix in="SourceAlpha" type="matrix" values="0 0 0 0 0 0 0 0 0 0 0 0 0 0 0 0 0 0 127 0" result="hardAlpha"/>
<feOffset dy="4"/>
<feGaussianBlur stdDeviation="4"/>
<feComposite in2="hardAlpha" operator="out"/>
<feColorMatrix type="matrix" values="0 0 0 0 0 0 0 0 0 0 0 0 0 0 0 0 0 0 0.21 0"/>
<feBlend mode="normal" in2="BackgroundImageFix" result="effect1_dropShadow_4903_5078"/>
<feBlend mode="normal" in="SourceGraphic" in2="effect1_dropShadow_4903_5078" result="shape"/>
</filter>
<linearGradient id="paint0_linear_4903_5078" x1="0" y1="2800" x2="1131" y2="2800" gradientUnits="userSpaceOnUse">
<stop stop-color="#193054"/>
<stop offset="1" stop-color="#154992"/>
</linearGradient>
<linearGradient id="paint1_linear_4903_5078" x1="821.156" y1="519.159" x2="821.156" y2="942.741" gradientUnits="userSpaceOnUse">
<stop stop-color="#4D86D6"/>
<stop offset="1" stop-color="white"/>
</linearGradient>
<linearGradient id="paint2_linear_4903_5078" x1="702" y1="1537.5" x2="633.585" y2="1844" gradientUnits="userSpaceOnUse">
<stop stop-color="#4D86D6"/>
<stop offset="1" stop-color="white"/>
</linearGradient>
<linearGradient id="paint3_linear_4903_5078" x1="830.5" y1="2399" x2="830.5" y2="2780" gradientUnits="userSpaceOnUse">
<stop stop-color="#4D86D6"/>
<stop offset="1" stop-color="white"/>
</linearGradient>
<clipPath id="clip0_4903_5078">
<rect width="1451" height="2800" fill="white" transform="translate(-9)"/>
</clipPath>
</defs>
</svg>
