<svg width="48" height="49" viewBox="0 0 48 49" fill="none" xmlns="http://www.w3.org/2000/svg">
<g clip-path="url(#clip0_4438_4976)">
<path fill-rule="evenodd" clip-rule="evenodd" d="M33.8983 0.5C35.0811 0.5 36.0411 1.46 36.0411 2.64286V5.45429C36.0411 6.02261 35.8154 6.56765 35.4135 6.96951C35.0117 7.37138 34.4666 7.59714 33.8983 7.59714C33.33 7.59714 32.7849 7.37138 32.3831 6.96951C31.9812 6.56765 31.7554 6.02261 31.7554 5.45429V2.64286C31.7554 1.46 32.7154 0.5 33.8983 0.5ZM13.8754 30.4589C14.9831 30.4813 16.0841 30.2826 17.1139 29.8742C18.1438 29.4659 19.0818 28.8562 19.8731 28.0808C20.6644 27.3054 21.2931 26.3799 21.7222 25.3585C22.1514 24.3372 22.3724 23.2404 22.3724 22.1326C22.3724 21.0247 22.1514 19.928 21.7222 18.9066C21.2931 17.8852 20.6644 16.9597 19.8731 16.1843C19.0818 15.409 18.1438 14.7992 17.1139 14.3909C16.0841 13.9826 14.9831 13.7838 13.8754 13.8063C11.6964 13.8505 9.62157 14.7472 8.09617 16.3038C6.57078 17.8605 5.7164 19.9531 5.7164 22.1326C5.7164 24.312 6.57078 26.4046 8.09617 27.9613C9.62157 29.518 11.6964 30.4146 13.8754 30.4589ZM0 47.1114C0.0572585 43.4688 1.5445 39.9947 4.14074 37.4389C6.73698 34.8832 10.234 33.4507 13.8771 33.4507C17.5203 33.4507 21.0173 34.8832 23.6136 37.4389C26.2098 39.9947 27.697 43.4688 27.7543 47.1114C27.7543 47.4797 27.608 47.8329 27.3476 48.0933C27.0872 48.3537 26.734 48.5 26.3657 48.5H1.38857C1.0203 48.5 0.667111 48.3537 0.406703 48.0933C0.146296 47.8329 0 47.4797 0 47.1114ZM47.0263 9.04743C47.2618 8.88798 47.4633 8.68322 47.6189 8.4451C47.7745 8.20698 47.8812 7.94026 47.9326 7.6605C47.9841 7.38074 47.9793 7.09353 47.9186 6.81563C47.8579 6.53773 47.7425 6.27469 47.5791 6.04186C47.4156 5.80903 47.2075 5.61106 46.9668 5.45951C46.7261 5.30795 46.4576 5.20584 46.177 5.15913C45.8964 5.11241 45.6093 5.12203 45.3325 5.18743C45.0557 5.25282 44.7946 5.37267 44.5646 5.54L42.264 7.15486C41.8095 7.48548 41.5031 7.98143 41.4108 8.53584C41.3185 9.09026 41.4477 9.65874 41.7706 10.1188C42.0934 10.5788 42.5841 10.8936 43.1369 10.9953C43.6897 11.0969 44.2603 10.9773 44.7257 10.6623L47.0263 9.04743ZM20.2389 6.06457C19.9129 6.52938 19.7846 7.10455 19.8824 7.66381C19.9801 8.22307 20.2957 8.72069 20.76 9.04743L23.064 10.6623C23.294 10.8296 23.5551 10.9495 23.8319 11.0149C24.1088 11.0803 24.3958 11.0899 24.6764 11.0432C24.957 10.9964 25.2255 10.8943 25.4662 10.7428C25.7069 10.5912 25.9151 10.3933 26.0785 10.1604C26.2419 9.9276 26.3573 9.66456 26.418 9.38666C26.4787 9.10876 26.4835 8.82155 26.432 8.54179C26.3806 8.26203 26.2739 7.99531 26.1183 7.75719C25.9627 7.51907 25.7613 7.31431 25.5257 7.15486L23.2217 5.54C22.7569 5.21401 22.1817 5.08579 21.6225 5.1835C21.0632 5.28121 20.5656 5.59686 20.2389 6.06114V6.06457ZM33.7371 10.2371C34.7522 10.2263 35.7593 10.416 36.7008 10.7955C37.6423 11.175 38.4996 11.7367 39.2234 12.4484C39.9472 13.1601 40.5233 14.0078 40.9186 14.9427C41.3139 15.8777 41.5206 16.8815 41.5269 17.8966C41.4926 20.708 39.8126 23.3823 37.296 24.6371V28.4531C37.2906 28.6751 37.1987 28.8861 37.0398 29.0411C36.8809 29.1962 36.6677 29.2829 36.4457 29.2829H31.344C31.122 29.2829 30.9088 29.1962 30.7499 29.0411C30.591 28.8861 30.4991 28.6751 30.4937 28.4531V24.7023C29.2836 24.0855 28.2568 23.1617 27.516 22.0232C26.7753 20.8848 26.3467 19.5717 26.2731 18.2154C26.237 17.2009 26.4016 16.1892 26.7576 15.2385C27.1135 14.2877 27.6538 13.4167 28.3473 12.6753C29.0409 11.934 29.874 11.337 30.799 10.9185C31.7239 10.5001 32.7224 10.2686 33.7371 10.2371Z" fill="#193054"/>
</g>
<defs>
<clipPath id="clip0_4438_4976">
<rect width="48" height="48" fill="white" transform="translate(0 0.5)"/>
</clipPath>
</defs>
</svg>
