<svg width="20" height="19" viewBox="0 0 20 19" fill="none" xmlns="http://www.w3.org/2000/svg">
<path d="M9.78971 6.92712C9.10733 6.92712 8.4529 7.1982 7.97039 7.68071C7.48787 8.16323 7.2168 8.81766 7.2168 9.50004C7.2168 10.1824 7.48787 10.8369 7.97039 11.3194C8.4529 11.8019 9.10733 12.073 9.78971 12.073C10.4721 12.073 11.1265 11.8019 11.609 11.3194C12.0916 10.8369 12.3626 10.1824 12.3626 9.50004C12.3626 8.81766 12.0916 8.16323 11.609 7.68071C11.1265 7.1982 10.4721 6.92712 9.78971 6.92712Z" fill="white"/>
<path fill-rule="evenodd" clip-rule="evenodd" d="M5.64831 2.43994C8.40017 2.13509 11.1773 2.13509 13.9291 2.43994C15.4325 2.60777 16.6446 3.79131 16.8211 5.30023C17.1472 8.0906 17.1472 10.9094 16.8211 13.6998C16.6446 15.2087 15.4325 16.3923 13.9299 16.5609C11.1778 16.8658 8.40043 16.8658 5.64831 16.5609C4.14494 16.3923 2.9329 15.2087 2.75635 13.7006C2.43017 10.91 2.43017 8.09086 2.75635 5.30023C2.9329 3.79131 4.14494 2.60777 5.64831 2.43994ZM13.7471 4.75002C13.5371 4.75002 13.3357 4.83343 13.1873 4.9819C13.0388 5.13036 12.9554 5.33173 12.9554 5.54169C12.9554 5.75165 13.0388 5.95302 13.1873 6.10148C13.3357 6.24995 13.5371 6.33336 13.7471 6.33336C13.957 6.33336 14.1584 6.24995 14.3069 6.10148C14.4553 5.95302 14.5387 5.75165 14.5387 5.54169C14.5387 5.33173 14.4553 5.13036 14.3069 4.9819C14.1584 4.83343 13.957 4.75002 13.7471 4.75002ZM6.02831 9.50002C6.02831 8.5027 6.4245 7.54622 7.12971 6.84101C7.83493 6.13579 8.7914 5.73961 9.78873 5.73961C10.7861 5.73961 11.7425 6.13579 12.4477 6.84101C13.153 7.54622 13.5491 8.5027 13.5491 9.50002C13.5491 10.4973 13.153 11.4538 12.4477 12.159C11.7425 12.8643 10.7861 13.2604 9.78873 13.2604C8.7914 13.2604 7.83493 12.8643 7.12971 12.159C6.4245 11.4538 6.02831 10.4973 6.02831 9.50002Z" fill="white"/>
</svg>
