<svg width="270" height="53" viewBox="0 0 270 53" fill="none" xmlns="http://www.w3.org/2000/svg">
<g clip-path="url(#clip0_6_235)">
<path d="M201.525 18.8055C201.525 18.1468 201.462 17.4883 201.356 16.8084C201.249 16.1076 201.016 15.4703 200.655 14.8967C200.294 14.323 199.806 13.8558 199.19 13.4734C198.575 13.0907 197.725 12.8998 196.664 12.8998C196.26 12.8998 195.857 12.9633 195.433 13.0696C195.05 13.1544 194.711 13.2613 194.414 13.3884C194.053 13.5159 193.713 13.6647 193.395 13.8344V25.3058C193.755 25.5604 194.137 25.752 194.541 25.9218C194.902 26.0492 195.305 26.1768 195.772 26.283C196.24 26.3892 196.727 26.3892 197.237 26.283C198.192 26.1132 198.935 25.7732 199.487 25.2636C200.06 24.7111 200.485 24.0952 200.803 23.394C201.1 22.6932 201.292 21.928 201.376 21.1422C201.462 20.3138 201.525 19.5281 201.525 18.8055ZM186.411 1.06738H193.352V9.26727C193.671 9.09735 194.074 8.94823 194.541 8.82118C194.923 8.69366 195.39 8.56589 195.92 8.50229C196.473 8.39632 197.067 8.33258 197.725 8.33258C199.827 8.33258 201.547 8.60896 202.905 9.18204C204.285 9.75625 205.389 10.5202 206.217 11.5191C207.024 12.4745 207.597 13.5797 207.936 14.8331C208.254 16.0865 208.425 17.4033 208.425 18.8055C208.425 20.3138 208.234 21.7798 207.851 23.224C207.491 24.6474 206.897 25.9219 206.047 27.069C205.198 28.1947 204.115 29.1087 202.778 29.8092C201.441 30.489 199.806 30.8289 197.874 30.8289C196.049 30.8505 194.435 30.7443 193.013 30.5105C191.591 30.2981 190.401 30.0433 189.425 29.7245C188.279 29.4056 187.281 29.0235 186.411 28.5773V1.06738Z" fill="white"/>
<path d="M214.432 23.9887C214.432 24.86 214.708 25.4969 215.282 25.8584C215.855 26.2194 216.534 26.3893 217.319 26.3893C218.254 26.3893 219.038 26.3472 219.697 26.262C220.376 26.1556 220.907 26.0284 221.289 25.9005V20.9084C221.077 20.9084 220.78 20.9298 220.397 20.9513C220.037 20.972 219.654 21.0149 219.251 21.036C218.869 21.0572 218.487 21.0997 218.105 21.1635C217.744 21.2272 217.489 21.2483 217.298 21.2909C216.513 21.4824 215.833 21.7585 215.26 22.1407C214.708 22.5229 214.432 23.1389 214.432 23.9887ZM209.168 10.0108C209.762 9.81971 210.505 9.6494 211.417 9.4798C212.309 9.28825 213.222 9.11833 214.156 8.9911C215.112 8.82121 216.003 8.71475 216.852 8.62953C217.723 8.52356 218.423 8.45996 218.975 8.45996C220.143 8.45996 221.289 8.54483 222.414 8.73609C223.54 8.90569 224.516 9.24561 225.386 9.75608C226.256 10.2654 226.957 10.9879 227.466 11.9224C228.019 12.8575 228.273 14.0684 228.273 15.5555V29.4485C228.273 29.4485 228.019 29.5333 227.488 29.7031C226.999 29.8306 226.299 30.0005 225.366 30.1916C224.474 30.3617 223.369 30.5103 222.054 30.6379C220.78 30.765 219.337 30.8503 217.765 30.8503C216.406 30.8503 215.133 30.7867 213.923 30.6379C212.734 30.5103 211.673 30.2129 210.739 29.7878C209.804 29.3207 209.061 28.6832 208.446 27.8761C207.873 27.0264 207.555 25.9002 207.469 24.4768C207.384 23.2023 207.597 22.1404 208.085 21.2906C208.574 20.4197 209.232 19.7187 210.038 19.1663C210.887 18.5928 211.842 18.1465 212.904 17.8282C213.986 17.5096 215.09 17.2334 216.173 17.0419C216.64 16.957 217.149 16.8721 217.68 16.7874C218.232 16.7026 218.742 16.6383 219.229 16.5747C219.718 16.5112 220.143 16.4899 220.504 16.4474C220.886 16.4262 221.119 16.4048 221.247 16.4048V15.7885C221.247 15.1301 221.182 14.6203 221.035 14.2377C220.907 13.8555 220.673 13.5793 220.376 13.3882C220.1 13.1968 219.761 13.0695 219.314 13.0267C218.911 12.9631 218.423 12.942 217.85 12.942C217.192 12.942 216.47 13.0267 215.642 13.1967C214.836 13.3668 214.007 13.558 213.201 13.8131C212.394 14.0252 211.63 14.2801 210.909 14.5565C210.208 14.8116 209.613 15.0238 209.146 15.2153L209.168 10.0108Z" fill="white"/>
<path d="M228.825 14.7904C228.825 13.6433 229.144 12.687 229.802 11.8799C230.46 11.0729 231.266 10.4145 232.244 9.92557C233.241 9.4162 234.344 9.03364 235.512 8.82121C236.701 8.56592 237.847 8.45996 238.909 8.45996C239.843 8.45996 240.713 8.52356 241.562 8.67249C242.433 8.77846 243.239 8.92746 243.961 9.07611C244.725 9.24561 245.426 9.4162 246.042 9.60697C246.658 9.79823 247.209 9.94706 247.676 10.053C247.676 10.053 247.676 10.3082 247.676 10.8391C247.676 11.349 247.655 11.9225 247.634 12.5599C247.634 13.1759 247.612 13.7495 247.591 14.2804C247.591 14.7689 247.591 15.024 247.591 15.024C247.188 14.7689 246.658 14.5567 245.999 14.323C245.384 14.0685 244.683 13.8557 243.919 13.6648C243.176 13.4734 242.412 13.3249 241.626 13.2184C240.862 13.0908 240.161 13.0062 239.504 13.0062C239.142 13.0062 238.761 13.027 238.314 13.0488C237.869 13.0488 237.465 13.1123 237.084 13.2184C236.722 13.3249 236.425 13.4945 236.191 13.7496C235.937 13.9618 235.83 14.2805 235.83 14.6841C235.83 15.2579 236.149 15.704 236.764 16.0228C237.38 16.3196 238.166 16.6175 239.1 16.8723C240.056 17.127 241.074 17.382 242.157 17.6797C243.239 17.9556 244.259 18.3383 245.171 18.8692C246.126 19.379 246.891 20.059 247.506 20.9085C248.122 21.7156 248.44 22.799 248.44 24.1379C248.44 25.3275 248.186 26.3682 247.655 27.2392C247.145 28.0891 246.424 28.79 245.49 29.3637C244.598 29.9161 243.493 30.2983 242.178 30.5529C240.905 30.8292 239.461 30.9566 237.89 30.9566C236.425 30.9566 235.087 30.8717 233.899 30.7019C232.709 30.532 231.67 30.3834 230.799 30.2132C229.95 30.0219 229.292 29.8524 228.846 29.6819C228.4 29.5124 228.146 29.4273 228.104 29.4273V28.62C228.104 28.3653 228.104 28.1102 228.104 27.8129C228.125 27.4943 228.146 27.1547 228.146 26.7931C228.146 26.0285 228.167 25.1359 228.189 24.1379C228.634 24.3287 229.165 24.5624 229.822 24.8387C230.502 25.0936 231.245 25.306 232.03 25.5394C232.838 25.7521 233.708 25.9642 234.599 26.1557C235.491 26.3258 236.404 26.4108 237.295 26.4321C237.656 26.4321 238.059 26.4321 238.527 26.4321C238.993 26.4108 239.418 26.3473 239.843 26.2195C240.246 26.0921 240.586 25.9007 240.861 25.6887C241.159 25.4334 241.308 25.0936 241.308 24.6261C241.308 24.0531 240.989 23.6066 240.373 23.2881C239.779 22.9697 239.015 22.6718 238.081 22.4382C237.147 22.1625 236.149 21.8863 235.066 21.5883C233.984 21.2699 232.965 20.845 232.052 20.314C231.118 19.7614 230.354 19.0608 229.717 18.1894C229.123 17.2971 228.825 16.1712 228.825 14.7904Z" fill="white"/>
<path d="M262.897 17.127C262.876 16.5323 262.77 15.98 262.621 15.4488C262.451 14.9394 262.218 14.4721 261.878 14.1106C261.559 13.7286 261.135 13.4308 260.605 13.2183C260.095 13.0061 259.479 12.8998 258.757 12.8998C257.314 12.8998 256.252 13.2822 255.573 14.0471C254.915 14.8118 254.109 16.0437 254.193 18.0409L262.897 17.127ZM254.299 21.3757C254.406 22.6506 254.873 23.8404 255.636 24.7324C256.104 25.2 256.677 25.5823 257.398 25.922C258.1 26.2194 258.97 26.3681 260.01 26.3681C262.897 26.1557 266.06 25.6886 268.586 24.6687L267.865 30.0435C264.892 30.8718 262.027 30.8718 259.267 30.8718C257.42 30.8718 255.765 30.6167 254.278 30.0857C252.813 29.5763 251.561 28.8325 250.52 27.8766C249.523 26.8994 248.716 25.7095 248.144 24.3288C247.591 22.9059 247.337 21.3123 247.337 19.5491C247.337 17.7222 247.633 16.1078 248.228 14.727C248.823 13.3463 249.65 12.1779 250.669 11.2639C251.73 10.3085 252.962 9.60723 254.342 9.14008C255.722 8.65128 257.208 8.39648 258.757 8.39648C260.265 8.39648 261.624 8.62972 262.834 9.09744C264.086 9.5648 265.168 10.202 266.06 11.0091C266.994 11.8164 267.737 12.7725 268.31 13.8771C268.883 14.9395 269.266 16.0867 269.456 17.3186C269.563 17.9772 269.626 18.6356 269.669 19.3157C269.69 19.9954 269.647 20.6963 269.542 21.3972L254.406 22.6933" fill="white"/>
<path d="M81.7719 30.331H67.3219V8.48828H81.7719V10.9322H70.8835V17.7041H81.0598V20.1483H70.8835V27.9379H81.7719V30.331Z" fill="white"/>
<path d="M103.243 30.331H99.2235L92.5074 20.8604L85.5365 30.331H81.9756L90.5739 18.9257L82.5348 8.48828H86.3006L92.6089 16.8383L98.9688 8.48828H102.581L94.5936 18.824L103.243 30.331Z" fill="white"/>
<path d="M120.339 14.9036C120.339 15.8199 120.186 16.6853 119.83 17.5C119.474 18.3148 118.914 19.0787 118.1 19.7401C117.286 20.4023 116.268 20.9112 114.945 21.2676C113.623 21.6241 112.045 21.8278 110.112 21.8278H107.263V30.331H103.702V8.48828H110.57C112.249 8.48828 113.725 8.64099 114.946 8.94671C116.168 9.20115 117.185 9.65912 117.999 10.1688C118.813 10.7287 119.373 11.3903 119.779 12.1545C120.135 12.9688 120.339 13.8855 120.339 14.9036ZM107.212 19.4861H109.654C110.824 19.4861 111.842 19.3837 112.758 19.2317C113.623 19.0789 114.386 18.824 114.945 18.4675C115.505 18.1113 115.963 17.6529 116.268 17.093C116.574 16.5331 116.726 15.8202 116.726 15.0055C116.726 13.5803 116.217 12.5614 115.149 11.849C114.131 11.1361 112.503 10.8307 110.265 10.8307H107.212V19.4861Z" fill="white"/>
<path d="M124.104 21.3697V30.3818H120.542V8.53906H127.309C130.667 8.53906 133.161 9.04822 134.788 10.0668C136.417 11.0849 137.179 12.663 137.179 14.7506C137.179 15.6165 137.026 16.3799 136.722 17.042C136.417 17.7039 136.01 18.2639 135.501 18.7223C134.992 19.1807 134.433 19.5876 133.771 19.8936C133.109 20.199 132.448 20.4535 131.735 20.6572L139.317 30.433H135.145L128.429 21.3699L124.104 21.3697ZM124.104 19.0277H127.207C128.327 19.0277 129.294 18.9257 130.107 18.773C130.922 18.5693 131.583 18.3151 132.041 18.0094C132.55 17.6529 132.957 17.246 133.16 16.7363C133.415 16.2274 133.516 15.6165 133.516 14.9038C133.516 14.1909 133.363 13.58 133.109 13.0708C132.855 12.5612 132.448 12.1543 131.939 11.8488C131.431 11.5433 130.769 11.2884 129.955 11.1359C129.141 10.9834 128.224 10.9322 127.105 10.9322H124.053L124.104 19.0277Z" fill="white"/>
<path d="M153.766 30.331H139.317V8.48828H153.766V10.9322H142.878V17.7041H153.054V20.1483H142.878V27.9379H153.766V30.331Z" fill="white"/>
<path d="M170.659 24.527C170.659 25.4941 170.455 26.3597 169.997 27.1234C169.59 27.8872 168.929 28.4984 168.115 29.0583C167.3 29.5677 166.333 29.9749 165.164 30.2799C163.994 30.5346 162.671 30.6878 161.245 30.6878C159.821 30.6878 158.499 30.5861 157.277 30.4331C156.055 30.2799 155.039 30.0257 154.224 29.6695V26.9711C154.631 27.1236 155.14 27.2763 155.7 27.4291C156.259 27.5818 156.82 27.7345 157.429 27.8365C158.04 27.9382 158.651 28.0404 159.312 28.1422C159.974 28.1927 160.584 28.2439 161.245 28.2439C163.281 28.2439 164.756 27.9382 165.723 27.3275C166.69 26.7164 167.199 25.851 167.199 24.7819C167.199 24.2215 167.098 23.7636 166.894 23.3561C166.741 22.9487 166.384 22.5925 165.927 22.2868C165.469 21.9306 164.858 21.6251 164.095 21.3199C163.331 21.014 162.366 20.6578 161.144 20.3013C160.025 19.9449 159.058 19.5882 158.193 19.1813C157.379 18.7738 156.667 18.3156 156.158 17.7555C155.65 17.2465 155.242 16.6352 154.937 15.9737C154.683 15.3116 154.581 14.5477 154.581 13.7331C154.581 12.8677 154.784 12.0531 155.192 11.3909C155.599 10.6783 156.158 10.1181 156.922 9.65968C157.634 9.20175 158.549 8.79479 159.567 8.59083C160.585 8.33636 161.704 8.23438 162.976 8.23438C164.502 8.23438 165.826 8.33636 167.046 8.59083C168.268 8.79479 169.336 9.09977 170.253 9.45647L168.98 11.7986C168.166 11.4929 167.199 11.2384 166.182 11.0349C165.164 10.8312 164.044 10.7293 162.925 10.7293C161.399 10.7293 160.178 11.0349 159.313 11.5949C158.448 12.1553 158.041 12.9184 158.041 13.8863C158.041 14.4462 158.142 14.9554 158.346 15.3628C158.55 15.77 158.855 16.1265 159.313 16.4829C159.771 16.7886 160.33 17.1448 161.043 17.3992C161.755 17.705 162.671 18.0102 163.739 18.3159C164.909 18.6723 165.877 19.0285 166.741 19.436C167.606 19.7924 168.369 20.2506 168.929 20.7088C169.489 21.1667 169.946 21.7269 170.253 22.3888C170.505 22.8975 170.659 23.6614 170.659 24.527Z" fill="white"/>
<path d="M185.515 24.527C185.515 25.4941 185.312 26.3597 184.854 27.1234C184.447 27.8872 183.785 28.4984 182.972 29.0583C182.157 29.5677 181.19 29.9749 180.02 30.2799C178.85 30.5346 177.528 30.6878 176.102 30.6878C174.677 30.6878 173.355 30.5861 172.134 30.4331C170.913 30.2799 169.895 30.0257 169.081 29.6695V26.9711C169.488 27.1236 169.997 27.2763 170.557 27.4291C171.116 27.5818 171.676 27.7345 172.286 27.8365C172.897 27.9382 173.507 28.0404 174.169 28.1422C174.83 28.1927 175.442 28.2439 176.102 28.2439C178.138 28.2439 179.613 27.9382 180.579 27.3275C181.547 26.7164 182.056 25.851 182.056 24.7819C182.056 24.2215 181.954 23.7636 181.75 23.3561C181.598 22.9487 181.242 22.5925 180.784 22.2868C180.326 21.9306 179.715 21.6251 178.952 21.3199C178.188 21.014 177.222 20.6578 176.001 20.3013C174.882 19.9449 173.915 19.5882 173.049 19.1813C172.235 18.7738 171.523 18.3156 171.015 17.7555C170.506 17.2465 170.099 16.6352 169.794 15.9737C169.539 15.3116 169.438 14.5477 169.438 13.7331C169.438 12.8677 169.641 12.0531 170.048 11.3909C170.455 10.6783 171.015 10.1181 171.778 9.65968C172.49 9.20175 173.406 8.79479 174.424 8.59083C175.442 8.33636 176.561 8.23438 177.833 8.23438C179.359 8.23438 180.682 8.33636 181.903 8.59083C183.124 8.79479 184.192 9.09977 185.109 9.45647L183.836 11.7986C183.023 11.4929 182.056 11.2384 181.038 11.0349C180.021 10.8312 178.901 10.7293 177.783 10.7293C176.256 10.7293 175.034 11.0349 174.17 11.5949C173.304 12.1553 172.898 12.9184 172.898 13.8863C172.898 14.4462 172.999 14.9554 173.203 15.3628C173.406 15.77 173.712 16.1265 174.17 16.4829C174.628 16.7886 175.187 17.1448 175.899 17.3992C176.612 17.705 177.528 18.0102 178.596 18.3159C179.766 18.6723 180.733 19.0285 181.598 19.436C182.463 19.7924 183.226 20.2506 183.786 20.7088C184.345 21.1667 184.803 21.7269 185.109 22.3888C185.363 22.8975 185.515 23.6614 185.515 24.527Z" fill="white"/>
<path d="M71.0716 47.4494C70.0842 47.4494 69.3084 47.1051 68.7442 46.4164C68.1799 45.72 67.8978 44.6753 67.8978 43.2823C67.8978 41.8815 68.1799 40.8368 68.7442 40.1482C69.3084 39.4596 70.0842 39.1152 71.0716 39.1152C72.059 39.1152 72.8348 39.4596 73.399 40.1482C73.9632 40.8368 74.2453 41.8815 74.2453 43.2823C74.2453 44.6753 73.9632 45.72 73.399 46.4164C72.8348 47.1051 72.059 47.4494 71.0716 47.4494ZM71.0716 46.4986C71.722 46.4986 72.2314 46.256 72.5997 45.7708C72.9758 45.2856 73.1639 44.554 73.1639 43.5758V42.9889C73.1639 42.0107 72.9758 41.279 72.5997 40.7938C72.2314 40.3086 71.722 40.066 71.0716 40.066C70.429 40.066 69.9196 40.3086 69.5435 40.7938C69.1673 41.279 68.9793 42.0107 68.9793 42.9889V43.5758C68.9793 44.554 69.1673 45.2856 69.5435 45.7708C69.9196 46.256 70.429 46.4986 71.0716 46.4986ZM76.4046 47.3085V39.2561H79.2845C79.8174 39.2561 80.2601 39.3539 80.6128 39.5495C80.9732 39.7452 81.2436 40.0191 81.4238 40.3712C81.6041 40.7234 81.6942 41.1342 81.6942 41.6037C81.6942 42.0733 81.5962 42.488 81.4003 42.848C81.2044 43.208 80.9262 43.4897 80.5657 43.6932C80.2131 43.8888 79.786 43.9866 79.2845 43.9866H77.439V47.3085H76.4046ZM77.439 43.0476H79.2492C79.6646 43.0476 79.9937 42.9145 80.2366 42.6484C80.4874 42.3824 80.6128 42.0341 80.6128 41.6037C80.6128 41.1655 80.4952 40.8212 80.2601 40.5708C80.025 40.3204 79.6881 40.1952 79.2492 40.1952H77.439V43.0476ZM83.597 47.3085V39.2561H88.5692V40.1952H84.6314V42.7189H88.052V43.6579H84.6314V46.3695H88.6397V47.3085H83.597ZM90.7894 47.3085V39.2561H91.6828L94.6802 44.3153C94.7429 44.417 94.8095 44.554 94.88 44.7261C94.9584 44.8983 95.025 45.0548 95.0798 45.1956C95.1425 45.3287 95.1739 45.3952 95.1739 45.3952L95.2091 45.3835C95.2091 45.3835 95.2052 45.313 95.1974 45.1722C95.1974 45.0313 95.1935 44.8748 95.1856 44.7026C95.1778 44.5305 95.1739 44.4014 95.1739 44.3153V39.2561H96.1025V47.3085H95.2444L92.2235 42.1789C92.1608 42.0615 92.0863 41.9207 92.0001 41.7563C91.9218 41.5842 91.8512 41.4316 91.7885 41.2985C91.7337 41.1655 91.7063 41.099 91.7063 41.099L91.671 41.1107C91.671 41.1107 91.6749 41.1773 91.6828 41.3103C91.6906 41.4433 91.6984 41.5959 91.7063 41.7681C91.7141 41.9324 91.718 42.0694 91.718 42.1789V47.3085H90.7894ZM104.323 47.4494C103.837 47.4494 103.386 47.3711 102.971 47.2146C102.556 47.0581 102.223 46.8038 101.972 46.4516C101.729 46.0995 101.608 45.6261 101.608 45.0313C101.608 44.9922 101.608 44.9491 101.608 44.9022C101.615 44.8474 101.619 44.8122 101.619 44.7966H102.689C102.689 44.8044 102.685 44.8396 102.677 44.9022C102.677 44.957 102.677 45.0039 102.677 45.0431C102.677 45.5361 102.83 45.9039 103.136 46.1464C103.441 46.3812 103.821 46.4986 104.276 46.4986C104.817 46.4986 105.232 46.3851 105.522 46.1582C105.82 45.9234 105.969 45.5908 105.969 45.1604C105.969 44.8709 105.89 44.6361 105.733 44.4561C105.585 44.2762 105.385 44.1275 105.134 44.0101C104.891 43.8927 104.621 43.7871 104.323 43.6932C104.025 43.5992 103.723 43.4975 103.418 43.388C103.12 43.2784 102.846 43.1375 102.595 42.9654C102.352 42.7932 102.152 42.5741 101.995 42.308C101.847 42.0341 101.772 41.6898 101.772 41.2751C101.772 40.7821 101.886 40.3751 102.113 40.0543C102.348 39.7334 102.658 39.4987 103.042 39.35C103.433 39.1935 103.864 39.1152 104.335 39.1152C104.805 39.1152 105.228 39.1935 105.604 39.35C105.988 39.4987 106.294 39.7413 106.521 40.0778C106.748 40.4064 106.862 40.8408 106.862 41.3807V41.5216H105.792V41.3455C105.792 40.9308 105.655 40.6138 105.381 40.3947C105.107 40.1756 104.766 40.066 104.358 40.066C103.935 40.066 103.578 40.156 103.288 40.336C103.006 40.516 102.865 40.8016 102.865 41.1929C102.865 41.4668 102.94 41.6898 103.089 41.862C103.245 42.0341 103.445 42.1789 103.688 42.2963C103.939 42.4059 104.213 42.5076 104.511 42.6015C104.809 42.6954 105.107 42.7971 105.404 42.9067C105.702 43.0162 105.972 43.1571 106.215 43.3293C106.466 43.5014 106.666 43.7205 106.815 43.9866C106.972 44.2449 107.05 44.5774 107.05 44.9844C107.05 45.5869 106.929 46.0682 106.686 46.4282C106.45 46.7881 106.129 47.0503 105.722 47.2146C105.314 47.3711 104.848 47.4494 104.323 47.4494ZM112.068 47.4494C111.08 47.4494 110.305 47.1051 109.74 46.4164C109.176 45.72 108.894 44.6753 108.894 43.2823C108.894 41.8815 109.176 40.8368 109.74 40.1482C110.305 39.4596 111.08 39.1152 112.068 39.1152C113.055 39.1152 113.831 39.4596 114.395 40.1482C114.959 40.8368 115.242 41.8815 115.242 43.2823C115.242 44.6753 114.959 45.72 114.395 46.4164C113.831 47.1051 113.055 47.4494 112.068 47.4494ZM112.068 46.4986C112.718 46.4986 113.228 46.256 113.596 45.7708C113.972 45.2856 114.16 44.554 114.16 43.5758V42.9889C114.16 42.0107 113.972 41.279 113.596 40.7938C113.228 40.3086 112.718 40.066 112.068 40.066C111.425 40.066 110.916 40.3086 110.54 40.7938C110.164 41.279 109.975 42.0107 109.975 42.9889V43.5758C109.975 44.554 110.164 45.2856 110.54 45.7708C110.916 46.256 111.425 46.4986 112.068 46.4986ZM120.057 47.4494C119.227 47.4494 118.576 47.2146 118.106 46.7451C117.636 46.2756 117.401 45.5908 117.401 44.6909V39.2561H118.435V44.7496C118.435 45.3209 118.58 45.7552 118.87 46.0525C119.16 46.3499 119.556 46.4986 120.057 46.4986C120.567 46.4986 120.962 46.3499 121.245 46.0525C121.535 45.7552 121.679 45.3209 121.679 44.7496V39.2561H122.714V44.6909C122.714 45.5908 122.479 46.2756 122.009 46.7451C121.538 47.2146 120.888 47.4494 120.057 47.4494ZM125.121 47.3085V39.2561H128.365C129.157 39.2561 129.756 39.4635 130.164 39.8782C130.571 40.2851 130.775 40.8212 130.775 41.4864C130.775 41.9872 130.65 42.4215 130.399 42.7893C130.148 43.1493 129.796 43.4075 129.341 43.564L130.963 47.3085H129.811L128.318 43.7518H126.155V47.3085H125.121ZM126.155 42.8128H128.33C128.745 42.8128 129.075 42.6915 129.317 42.4489C129.568 42.2063 129.694 41.8855 129.694 41.4864C129.694 41.0873 129.576 40.7742 129.341 40.5473C129.106 40.3125 128.769 40.1952 128.33 40.1952H126.155V42.8128ZM135.686 47.4494C134.644 47.4494 133.852 47.1051 133.312 46.4164C132.779 45.72 132.512 44.6753 132.512 43.2823C132.512 41.8815 132.779 40.8368 133.312 40.1482C133.852 39.4596 134.644 39.1152 135.686 39.1152C136.235 39.1152 136.72 39.2287 137.144 39.4556C137.567 39.6748 137.896 40.0113 138.131 40.4651C138.374 40.9112 138.495 41.4785 138.495 42.1672H137.437C137.437 41.4629 137.277 40.9386 136.955 40.5943C136.642 40.2421 136.219 40.066 135.686 40.066C134.981 40.066 134.456 40.3086 134.111 40.7938C133.766 41.279 133.594 42.0107 133.594 42.9889V43.5758C133.594 44.554 133.766 45.2856 134.111 45.7708C134.456 46.256 134.981 46.4986 135.686 46.4986C136.227 46.4986 136.658 46.3264 136.979 45.9821C137.308 45.6378 137.473 45.1174 137.473 44.4209H138.495C138.495 45.1096 138.374 45.6808 138.131 46.1347C137.896 46.5808 137.567 46.9133 137.144 47.1325C136.72 47.3438 136.235 47.4494 135.686 47.4494ZM140.562 47.3085V39.2561H145.534V40.1952H141.596V42.7189H145.017V43.6579H141.596V46.3695H145.604V47.3085H140.562ZM151.193 47.3085V39.2561H152.227V46.3695H155.519V47.3085H151.193ZM160.245 47.4494C159.257 47.4494 158.481 47.1051 157.917 46.4164C157.353 45.72 157.071 44.6753 157.071 43.2823C157.071 41.8815 157.353 40.8368 157.917 40.1482C158.481 39.4596 159.257 39.1152 160.245 39.1152C161.232 39.1152 162.008 39.4596 162.572 40.1482C163.136 40.8368 163.418 41.8815 163.418 43.2823C163.418 44.6753 163.136 45.72 162.572 46.4164C162.008 47.1051 161.232 47.4494 160.245 47.4494ZM160.245 46.4986C160.895 46.4986 161.404 46.256 161.773 45.7708C162.149 45.2856 162.337 44.554 162.337 43.5758V42.9889C162.337 42.0107 162.149 41.279 161.773 40.7938C161.404 40.3086 160.895 40.066 160.245 40.066C159.602 40.066 159.093 40.3086 158.716 40.7938C158.34 41.279 158.152 42.0107 158.152 42.9889V43.5758C158.152 44.554 158.34 45.2856 158.716 45.7708C159.093 46.256 159.602 46.4986 160.245 46.4986ZM166.741 47.3085L164.872 39.2561H165.966L167.2 44.82C167.239 44.9765 167.274 45.1683 167.306 45.3952C167.345 45.6221 167.376 45.8217 167.4 45.9939C167.431 46.166 167.447 46.2521 167.447 46.2521H167.494C167.494 46.2521 167.501 46.1817 167.517 46.0408C167.533 45.8999 167.556 45.72 167.588 45.5008C167.619 45.2817 167.654 45.0548 167.693 44.82L168.622 39.2561H170.056L171.055 44.82C171.094 45.0157 171.13 45.227 171.161 45.4539C171.192 45.673 171.216 45.8608 171.232 46.0173C171.255 46.1738 171.267 46.2521 171.267 46.2521H171.314C171.314 46.2521 171.326 46.1699 171.349 46.0056C171.373 45.8413 171.404 45.6456 171.443 45.4187C171.482 45.1917 171.522 44.9922 171.561 44.82L172.795 39.2561H173.735L171.866 47.3085H170.526L169.539 41.8502C169.515 41.7172 169.488 41.5607 169.457 41.3807C169.433 41.1929 169.41 41.0129 169.386 40.8408C169.37 40.6608 169.355 40.516 169.339 40.4064C169.323 40.2891 169.316 40.2304 169.316 40.2304H169.269C169.269 40.2304 169.261 40.2891 169.245 40.4064C169.229 40.516 169.21 40.6608 169.186 40.8408C169.171 41.0129 169.147 41.1929 169.116 41.3807C169.092 41.5607 169.069 41.7172 169.045 41.8502L168.081 47.3085H166.741ZM174.578 44.7144V43.564H177.541V44.7144H174.578ZM182.107 47.4494C181.065 47.4494 180.273 47.1051 179.732 46.4164C179.199 45.72 178.933 44.6753 178.933 43.2823C178.933 41.8815 179.199 40.8368 179.732 40.1482C180.273 39.4596 181.065 39.1152 182.107 39.1152C182.655 39.1152 183.141 39.2287 183.564 39.4556C183.988 39.6748 184.317 40.0113 184.552 40.4651C184.795 40.9112 184.916 41.4785 184.916 42.1672H183.858C183.858 41.4629 183.698 40.9386 183.376 40.5943C183.063 40.2421 182.64 40.066 182.107 40.066C181.401 40.066 180.876 40.3086 180.532 40.7938C180.187 41.279 180.014 42.0107 180.014 42.9889V43.5758C180.014 44.554 180.187 45.2856 180.532 45.7708C180.876 46.256 181.401 46.4986 182.107 46.4986C182.647 46.4986 183.078 46.3264 183.4 45.9821C183.729 45.6378 183.893 45.1174 183.893 44.4209H184.916C184.916 45.1096 184.795 45.6808 184.552 46.1347C184.317 46.5808 183.988 46.9133 183.564 47.1325C183.141 47.3438 182.655 47.4494 182.107 47.4494ZM189.909 47.4494C188.922 47.4494 188.146 47.1051 187.582 46.4164C187.018 45.72 186.736 44.6753 186.736 43.2823C186.736 41.8815 187.018 40.8368 187.582 40.1482C188.146 39.4596 188.922 39.1152 189.909 39.1152C190.897 39.1152 191.673 39.4596 192.237 40.1482C192.801 40.8368 193.083 41.8815 193.083 43.2823C193.083 44.6753 192.801 45.72 192.237 46.4164C191.673 47.1051 190.897 47.4494 189.909 47.4494ZM189.909 46.4986C190.56 46.4986 191.069 46.256 191.437 45.7708C191.814 45.2856 192.002 44.554 192.002 43.5758V42.9889C192.002 42.0107 191.814 41.279 191.437 40.7938C191.069 40.3086 190.56 40.066 189.909 40.066C189.267 40.066 188.757 40.3086 188.381 40.7938C188.005 41.279 187.817 42.0107 187.817 42.9889V43.5758C187.817 44.554 188.005 45.2856 188.381 45.7708C188.757 46.256 189.267 46.4986 189.909 46.4986ZM195.242 47.3085V39.2561H197.746C198.702 39.2561 199.451 39.5848 199.991 40.2421C200.532 40.8916 200.802 41.8659 200.802 43.1649C200.802 44.5422 200.532 45.5791 199.991 46.2756C199.451 46.9642 198.702 47.3085 197.746 47.3085H195.242ZM196.277 46.3695H197.652C198.287 46.3695 198.788 46.1308 199.157 45.6534C199.533 45.1683 199.721 44.4366 199.721 43.4584V42.8715C199.721 41.9715 199.533 41.3025 199.157 40.8642C198.788 40.4182 198.287 40.1952 197.652 40.1952H196.277V46.3695ZM202.963 47.3085V39.2561H207.935V40.1952H203.997V42.7189H207.418V43.6579H203.997V46.3695H208.005V47.3085H202.963ZM213.594 47.3085V39.2561H216.474C217.007 39.2561 217.449 39.3539 217.802 39.5495C218.162 39.7452 218.433 40.0191 218.613 40.3712C218.793 40.7234 218.883 41.1342 218.883 41.6037C218.883 42.0733 218.785 42.488 218.59 42.848C218.394 43.208 218.115 43.4897 217.755 43.6932C217.402 43.8888 216.975 43.9866 216.474 43.9866H214.628V47.3085H213.594ZM214.628 43.0476H216.438C216.854 43.0476 217.183 42.9145 217.426 42.6484C217.677 42.3824 217.802 42.0341 217.802 41.6037C217.802 41.1655 217.684 40.8212 217.449 40.5708C217.214 40.3204 216.877 40.1952 216.438 40.1952H214.628V43.0476ZM220.786 47.3085V39.2561H221.821V46.3695H225.112V47.3085H220.786ZM226.077 47.3085L228.639 39.2561H229.967L232.53 47.3085H231.413L230.861 45.5126H227.663L227.111 47.3085H226.077ZM227.945 44.5735H230.567L229.474 40.9934C229.45 40.8994 229.423 40.7821 229.391 40.6412C229.36 40.5003 229.333 40.3751 229.309 40.2656C229.293 40.156 229.286 40.1012 229.286 40.1012H229.238C229.238 40.1012 229.227 40.1599 229.203 40.2773C229.188 40.3869 229.164 40.5121 229.133 40.6529C229.109 40.7938 229.082 40.9073 229.05 40.9934L227.945 44.5735ZM235.002 47.3085V40.1952H232.804V39.2561H238.234V40.1952H236.036V47.3085H235.002ZM240.056 47.3085V39.2561H244.711V40.1952H241.09V42.801H244.288V43.7401H241.09V47.3085H240.056ZM249.636 47.4494C248.648 47.4494 247.872 47.1051 247.308 46.4164C246.744 45.72 246.462 44.6753 246.462 43.2823C246.462 41.8815 246.744 40.8368 247.308 40.1482C247.872 39.4596 248.648 39.1152 249.636 39.1152C250.623 39.1152 251.399 39.4596 251.963 40.1482C252.527 40.8368 252.809 41.8815 252.809 43.2823C252.809 44.6753 252.527 45.72 251.963 46.4164C251.399 47.1051 250.623 47.4494 249.636 47.4494ZM249.636 46.4986C250.286 46.4986 250.795 46.256 251.164 45.7708C251.54 45.2856 251.728 44.554 251.728 43.5758V42.9889C251.728 42.0107 251.54 41.279 251.164 40.7938C250.795 40.3086 250.286 40.066 249.636 40.066C248.993 40.066 248.484 40.3086 248.108 40.7938C247.731 41.279 247.543 42.0107 247.543 42.9889V43.5758C247.543 44.554 247.731 45.2856 248.108 45.7708C248.484 46.256 248.993 46.4986 249.636 46.4986ZM254.969 47.3085V39.2561H258.213C259.004 39.2561 259.604 39.4635 260.011 39.8782C260.419 40.2851 260.623 40.8212 260.623 41.4864C260.623 41.9872 260.497 42.4215 260.246 42.7893C259.996 43.1493 259.643 43.4075 259.189 43.564L260.811 47.3085H259.659L258.166 43.7518H256.003V47.3085H254.969ZM256.003 42.8128H258.178C258.593 42.8128 258.922 42.6915 259.165 42.4489C259.416 42.2063 259.541 41.8855 259.541 41.4864C259.541 41.0873 259.424 40.7742 259.189 40.5473C258.953 40.3125 258.617 40.1952 258.178 40.1952H256.003V42.8128ZM262.595 47.3085V39.2561H264.17L265.592 44.5383C265.632 44.687 265.667 44.8631 265.698 45.0665C265.729 45.27 265.757 45.4695 265.78 45.6652C265.812 45.8608 265.831 46.0252 265.839 46.1582C265.855 46.2834 265.863 46.346 265.863 46.346H265.91C265.91 46.346 265.914 46.2795 265.921 46.1464C265.937 46.0134 265.957 45.8491 265.98 45.6534C266.004 45.4578 266.031 45.2583 266.063 45.0548C266.094 44.8513 266.129 44.6792 266.168 44.5383L267.602 39.2561H269.166V47.3085H268.131V41.4629C268.131 41.3925 268.135 41.2907 268.143 41.1577C268.151 41.0168 268.159 40.876 268.167 40.7351C268.182 40.5943 268.194 40.473 268.202 40.3712C268.21 40.2695 268.214 40.2186 268.214 40.2186H268.167C268.167 40.2186 268.155 40.2695 268.131 40.3712C268.116 40.473 268.092 40.5943 268.061 40.7351C268.029 40.876 267.998 41.0168 267.967 41.1577C267.943 41.2907 267.92 41.3925 267.896 41.4629L266.286 47.3085H265.357L263.747 41.4629C263.731 41.4081 263.708 41.3142 263.676 41.1812C263.653 41.0481 263.625 40.9073 263.594 40.7586C263.571 40.6099 263.547 40.4847 263.524 40.383C263.508 40.2734 263.5 40.2186 263.5 40.2186H263.453C263.453 40.2186 263.457 40.2734 263.465 40.383C263.473 40.4847 263.48 40.6099 263.488 40.7586C263.496 40.8994 263.504 41.0364 263.512 41.1694C263.52 41.3025 263.524 41.4003 263.524 41.4629V47.3085H262.595Z" fill="white"/>
<g filter="url(#filter0_d_6_235)">
<path fill-rule="evenodd" clip-rule="evenodd" d="M6.41161 1.06738C3.8542 1.06738 1.78101 3.13769 1.78101 5.69154V45.8862C1.78101 48.4401 3.8542 50.5103 6.41161 50.5103H54.1425C56.7 50.5103 58.7731 48.4401 58.7731 45.8862V5.69154C58.7731 3.13769 56.7 1.06738 54.1425 1.06738H6.41161ZM16.4836 9.6091C12.8654 9.74441 9.97362 12.7163 9.97362 16.3627V41.9734H16.4836H17.5228H30.277V34.7751H17.5228V16.8027H30.277V9.6043H17.5228H16.7414H16.4836V9.6091ZM18.1662 25.9667C18.1662 24.1986 19.6015 22.7654 21.372 22.7654H24.934C26.7046 22.7654 28.1398 24.1986 28.1398 25.9667C28.1398 27.7348 26.7046 29.1681 24.934 29.1681H21.372C19.6015 29.1681 18.1662 27.7348 18.1662 25.9667ZM39.0314 9.6043H31.7018V40.2326C31.7018 41.0763 32.2949 41.8016 33.1181 41.9734H48.7468C49.181 41.8123 49.659 41.601 50.1915 41.0628C51.1632 39.3935 51.6491 36.4436 51.6491 32.2129C51.6491 28.0109 51.1632 25.0465 50.1915 23.3197C49.2198 21.6504 47.6237 20.8158 45.4024 20.8158C44.4032 20.8158 43.584 20.9021 42.9457 21.0748C42.307 21.2187 39.7356 22.4818 39.1803 22.9423L39.0314 9.6043ZM43.6346 29.0177C43.9195 27.4526 40.785 27.6542 39.1821 27.9506V36.1317C42.7441 36.8431 43.7532 36.0726 43.8127 35.5981L43.6346 29.0177Z" fill="white"/>
<mask id="mask0_6_235" style="mask-type:luminance" maskUnits="userSpaceOnUse" x="1" y="1" width="58" height="50">
<path fill-rule="evenodd" clip-rule="evenodd" d="M6.41161 1.06738C3.8542 1.06738 1.78101 3.13769 1.78101 5.69154V45.8862C1.78101 48.4401 3.8542 50.5103 6.41161 50.5103H54.1425C56.7 50.5103 58.7731 48.4401 58.7731 45.8862V5.69154C58.7731 3.13769 56.7 1.06738 54.1425 1.06738H6.41161ZM16.4836 9.6091C12.8654 9.74441 9.97362 12.7163 9.97362 16.3627V41.9734H16.4836H17.5228H30.277V34.7751H17.5228V16.8027H30.277V9.6043H17.5228H16.7414H16.4836V9.6091ZM18.1662 25.9667C18.1662 24.1986 19.6015 22.7654 21.372 22.7654H24.934C26.7046 22.7654 28.1398 24.1986 28.1398 25.9667C28.1398 27.7348 26.7046 29.1681 24.934 29.1681H21.372C19.6015 29.1681 18.1662 27.7348 18.1662 25.9667ZM39.0314 9.6043H31.7018V40.2326C31.7018 41.0763 32.2949 41.8016 33.1181 41.9734H48.7468C49.181 41.8123 49.659 41.601 50.1915 41.0628C51.1632 39.3935 51.6491 36.4436 51.6491 32.2129C51.6491 28.0109 51.1632 25.0465 50.1915 23.3197C49.2198 21.6504 47.6237 20.8158 45.4024 20.8158C44.4032 20.8158 43.584 20.9021 42.9457 21.0748C42.307 21.2187 39.7356 22.4818 39.1803 22.9423L39.0314 9.6043ZM43.6346 29.0177C43.9195 27.4526 40.785 27.6542 39.1821 27.9506V36.1317C42.7441 36.8431 43.7532 36.0726 43.8127 35.5981L43.6346 29.0177Z" fill="white"/>
</mask>
<g mask="url(#mask0_6_235)">
<path d="M16.4836 9.60933L16.497 9.96479L16.8398 9.95198V9.60933H16.4836ZM9.97362 41.9737H9.61742V42.3294H9.97362V41.9737ZM30.277 41.9737V42.3294H30.6332V41.9737H30.277ZM30.277 34.7753H30.6332V34.4196H30.277V34.7753ZM17.5228 34.7753H17.1666V35.131H17.5228V34.7753ZM17.5228 16.8029V16.4472H17.1666V16.8029H17.5228ZM30.277 16.8029V17.1586H30.6332V16.8029H30.277ZM30.277 9.60453H30.6332V9.24883H30.277V9.60453ZM16.4836 9.60453V9.24883H16.1274V9.60453H16.4836ZM31.7018 9.60453V9.24883H31.3456V9.60453H31.7018ZM39.0314 9.60453L39.3876 9.60055L39.3837 9.24883H39.0314V9.60453ZM33.1181 41.9737L33.0453 42.3219L33.0813 42.3294H33.1181V41.9737ZM48.7468 41.9737V42.3294H48.8109L48.8707 42.307L48.7468 41.9737ZM50.1915 41.0631L50.4448 41.3131L50.4768 41.2811L50.4996 41.242L50.1915 41.0631ZM50.1915 23.3199L50.5021 23.1456L50.5007 23.1434L50.4996 23.1411L50.1915 23.3199ZM42.9457 21.075L43.024 21.422L43.0315 21.4203L43.0386 21.4183L42.9457 21.075ZM39.1803 22.9426L38.8241 22.9465L38.8326 23.6934L39.4079 23.2162L39.1803 22.9426ZM39.1821 27.9509L39.1172 27.6011L38.8259 27.655V27.9509H39.1821ZM43.6346 29.018L43.2841 28.9543L43.2777 28.9907L43.2784 29.0276L43.6346 29.018ZM39.1821 36.1319H38.8259V36.4236L39.1122 36.4809L39.1821 36.1319ZM43.8127 35.5984L44.166 35.6425L44.1696 35.6158L44.1689 35.5888L43.8127 35.5984ZM2.13721 5.69178C2.13721 3.33438 4.05093 1.42332 6.41161 1.42332V0.711914C3.65747 0.711914 1.4248 2.94147 1.4248 5.69178H2.13721ZM2.13721 45.8864V5.69178H1.4248V45.8864H2.13721ZM6.41161 50.1549C4.05093 50.1549 2.13721 48.2437 2.13721 45.8864H1.4248C1.4248 48.6367 3.65747 50.8663 6.41161 50.8663V50.1549ZM54.1425 50.1549H6.41161V50.8663H54.1425V50.1549ZM58.4169 45.8864C58.4169 48.2437 56.503 50.1549 54.1425 50.1549V50.8663C56.8966 50.8663 59.1293 48.6367 59.1293 45.8864H58.4169ZM58.4169 5.69178V45.8864H59.1293V5.69178H58.4169ZM54.1425 1.42332C56.503 1.42332 58.4169 3.33438 58.4169 5.69178H59.1293C59.1293 2.94147 56.8966 0.711914 54.1425 0.711914V1.42332ZM6.41161 1.42332H54.1425V0.711914H6.41161V1.42332ZM10.3298 16.3629C10.3298 12.9085 13.0694 10.093 16.497 9.96479L16.4703 9.25388C12.6613 9.39634 9.61742 12.5245 9.61742 16.3629H10.3298ZM10.3298 41.9737V16.3629H9.61742V41.9737H10.3298ZM16.4836 41.618H9.97362V42.3294H16.4836V41.618ZM17.5228 41.618H16.4836V42.3294H17.5228V41.618ZM30.277 41.618H17.5228V42.3294H30.277V41.618ZM29.9208 34.7753V41.9737H30.6332V34.7753H29.9208ZM17.5228 35.131H30.277V34.4196H17.5228V35.131ZM17.1666 16.8029V34.7753H17.879V16.8029H17.1666ZM30.277 16.4472H17.5228V17.1586H30.277V16.4472ZM29.9208 9.60453V16.8029H30.6332V9.60453H29.9208ZM17.5228 9.96024H30.277V9.24883H17.5228V9.96024ZM16.7414 9.96024H17.5228V9.24883H16.7414V9.96024ZM16.4836 9.96024H16.7414V9.24883H16.4836V9.96024ZM16.8398 9.60933V9.60453H16.1274V9.60933H16.8398ZM21.372 22.4099C19.4048 22.4099 17.81 24.0024 17.81 25.9669H18.5224C18.5224 24.3953 19.7982 23.1213 21.372 23.1213V22.4099ZM24.934 22.4099H21.372V23.1213H24.934V22.4099ZM28.496 25.9669C28.496 24.0024 26.9013 22.4099 24.934 22.4099V23.1213C26.5078 23.1213 27.7836 24.3953 27.7836 25.9669H28.496ZM24.934 29.524C26.9013 29.524 28.496 27.9315 28.496 25.9669H27.7836C27.7836 27.5386 26.5078 28.8126 24.934 28.8126V29.524ZM21.372 29.524H24.934V28.8126H21.372V29.524ZM17.81 25.9669C17.81 27.9315 19.4048 29.524 21.372 29.524V28.8126C19.7982 28.8126 18.5224 27.5386 18.5224 25.9669H17.81ZM31.7018 9.96024H39.0314V9.24883H31.7018V9.96024ZM32.058 40.2328V9.60453H31.3456V40.2328H32.058ZM33.191 41.6254C32.5325 41.4881 32.058 40.9076 32.058 40.2328H31.3456C31.3456 41.2452 32.0573 42.1156 33.0453 42.3219L33.191 41.6254ZM48.7468 41.618H33.1181V42.3294H48.7468V41.618ZM49.9382 40.813C49.456 41.3007 49.0306 41.4888 48.6228 41.6404L48.8707 42.307C49.3313 42.1362 49.862 41.9022 50.4448 41.3131L49.9382 40.813ZM51.2929 32.2131C51.2929 36.4392 50.8035 39.3041 49.8838 40.8845L50.4996 41.242C51.523 39.4837 52.0053 36.4485 52.0053 32.2131H51.2929ZM49.8809 23.4942C50.8042 25.135 51.2929 28.018 51.2929 32.2131H52.0053C52.0053 28.0042 51.5223 24.9585 50.5021 23.1456L49.8809 23.4942ZM45.4024 21.1717C47.5193 21.1717 48.9861 21.9571 49.8838 23.4986L50.4996 23.1411C49.4535 21.3441 47.728 20.4603 45.4024 20.4603V21.1717ZM43.0386 21.4183C43.6356 21.2569 44.4203 21.1717 45.4024 21.1717V20.4603C44.3858 20.4603 43.5327 20.5478 42.8523 20.7317L43.0386 21.4183ZM39.4079 23.2162C39.5194 23.1239 39.758 22.9725 40.0882 22.7865C40.4102 22.605 40.7978 22.4025 41.1896 22.2089C41.5814 22.0153 41.9743 21.8323 42.3067 21.6895C42.6486 21.5426 42.9008 21.4497 43.024 21.422L42.8673 20.728C42.671 20.7722 42.3622 20.8912 42.0253 21.036C41.6787 21.1849 41.274 21.3735 40.8737 21.5713C40.4736 21.769 40.0743 21.9776 39.7381 22.1669C39.41 22.3518 39.119 22.531 38.9527 22.6689L39.4079 23.2162ZM38.6752 9.60852L38.8241 22.9465L39.5365 22.9386L39.3876 9.60055L38.6752 9.60852ZM39.2469 28.3006C40.0323 28.1554 41.1775 28.0373 42.0758 28.1398C42.5307 28.1917 42.8741 28.2952 43.0789 28.4399C43.1761 28.5083 43.2328 28.5791 43.2634 28.6505C43.2933 28.7207 43.3094 28.8165 43.2841 28.9543L43.9851 29.0816C44.031 28.8282 44.0114 28.5879 43.9185 28.3707C43.8258 28.1547 43.6716 27.9868 43.4899 27.8587C43.1373 27.6102 42.65 27.4893 42.1567 27.4329C41.1583 27.3191 39.9347 27.45 39.1172 27.6011L39.2469 28.3006ZM39.5383 36.1319V27.9509H38.8259V36.1319H39.5383ZM43.4593 35.5544C43.4582 35.5634 43.3888 35.8111 42.7305 35.9633C42.0954 36.1102 41.0094 36.1344 39.2519 35.7833L39.1122 36.4809C40.9168 36.8412 42.1161 36.8355 42.8912 36.6566C43.6428 36.4826 44.108 36.1077 44.166 35.6425L43.4593 35.5544ZM43.2784 29.0276L43.4565 35.608L44.1689 35.5888L43.9908 29.0084L43.2784 29.0276Z" fill="white" fill-opacity="0.36"/>
</g>
</g>
</g>
<defs>
<filter id="filter0_d_6_235" x="-3.21899" y="-1.93262" width="66.9921" height="59.4434" filterUnits="userSpaceOnUse" color-interpolation-filters="sRGB">
<feFlood flood-opacity="0" result="BackgroundImageFix"/>
<feColorMatrix in="SourceAlpha" type="matrix" values="0 0 0 0 0 0 0 0 0 0 0 0 0 0 0 0 0 0 127 0" result="hardAlpha"/>
<feOffset dy="2"/>
<feGaussianBlur stdDeviation="2.5"/>
<feComposite in2="hardAlpha" operator="out"/>
<feColorMatrix type="matrix" values="0 0 0 0 0 0 0 0 0 0 0 0 0 0 0 0 0 0 0.18 0"/>
<feBlend mode="normal" in2="BackgroundImageFix" result="effect1_dropShadow_6_235"/>
<feBlend mode="normal" in="SourceGraphic" in2="effect1_dropShadow_6_235" result="shape"/>
</filter>
<clipPath id="clip0_6_235">
<rect width="270" height="53" fill="white"/>
</clipPath>
</defs>
</svg>
