<svg width="54" height="54" viewBox="0 0 54 54" fill="none" xmlns="http://www.w3.org/2000/svg">
<path d="M20.25 6.75H9C7.75736 6.75 6.75 7.75736 6.75 9V24.75C6.75 25.9926 7.75736 27 9 27H20.25C21.4926 27 22.5 25.9926 22.5 24.75V9C22.5 7.75736 21.4926 6.75 20.25 6.75Z" stroke="#08387C" stroke-width="4" stroke-linecap="round" stroke-linejoin="round"/>
<path d="M45 6.75H33.75C32.5074 6.75 31.5 7.75736 31.5 9V15.75C31.5 16.9926 32.5074 18 33.75 18H45C46.2426 18 47.25 16.9926 47.25 15.75V9C47.25 7.75736 46.2426 6.75 45 6.75Z" stroke="#08387C" stroke-width="4" stroke-linecap="round" stroke-linejoin="round"/>
<path d="M45 27H33.75C32.5074 27 31.5 28.0074 31.5 29.25V45C31.5 46.2426 32.5074 47.25 33.75 47.25H45C46.2426 47.25 47.25 46.2426 47.25 45V29.25C47.25 28.0074 46.2426 27 45 27Z" stroke="#08387C" stroke-width="4" stroke-linecap="round" stroke-linejoin="round"/>
<path d="M20.25 36H9C7.75736 36 6.75 37.0074 6.75 38.25V45C6.75 46.2426 7.75736 47.25 9 47.25H20.25C21.4926 47.25 22.5 46.2426 22.5 45V38.25C22.5 37.0074 21.4926 36 20.25 36Z" stroke="#08387C" stroke-width="4" stroke-linecap="round" stroke-linejoin="round"/>
</svg>
