<svg width="55" height="54" viewBox="0 0 55 54" fill="none" xmlns="http://www.w3.org/2000/svg">
<path d="M20.3788 31.5H11.75C11.2922 31.5249 10.8529 31.6891 10.491 31.9706C10.1291 32.2521 9.86186 32.6374 9.725 33.075L5.225 46.575C5 46.8 5 47.025 5 47.25C5 48.6 5.9 49.5 7.25 49.5H47.75C49.1 49.5 50 48.6 50 47.25C50 47.025 50 46.8 49.775 46.575L45.275 33.075C45.1381 32.6374 44.8709 32.2521 44.509 31.9706C44.1471 31.6891 43.7078 31.5249 43.25 31.5H34.6212M41 18C41 28.125 27.5 38.25 27.5 38.25C27.5 38.25 14 28.125 14 18C14 14.4196 15.4223 10.9858 17.9541 8.45406C20.4858 5.92232 23.9196 4.5 27.5 4.5C31.0804 4.5 34.5142 5.92232 37.0459 8.45406C39.5777 10.9858 41 14.4196 41 18ZM32 18C32 20.4853 29.9853 22.5 27.5 22.5C25.0147 22.5 23 20.4853 23 18C23 15.5147 25.0147 13.5 27.5 13.5C29.9853 13.5 32 15.5147 32 18Z" stroke="#08387C" stroke-width="4" stroke-linecap="round" stroke-linejoin="round"/>
</svg>
