<svg width="20" height="25" viewBox="0 0 20 25" fill="none" xmlns="http://www.w3.org/2000/svg">
<path d="M10.833 9.00523H15.4163L10.833 3.50203V9.00523ZM4.99967 2.00116H11.6663L16.6663 8.00465V20.0116C16.6663 20.5424 16.4907 21.0514 16.1782 21.4267C15.8656 21.802 15.4417 22.0128 14.9997 22.0128H4.99967C4.55765 22.0128 4.13372 21.802 3.82116 21.4267C3.5086 21.0514 3.33301 20.5424 3.33301 20.0116V4.00232C3.33301 2.89168 4.07467 2.00116 4.99967 2.00116ZM5.83301 20.0116H7.49967V14.0081H5.83301V20.0116ZM9.16634 20.0116H10.833V12.007H9.16634V20.0116ZM12.4997 20.0116H14.1663V16.0093H12.4997V20.0116Z" fill="#182E50"/>
</svg>
