<svg width="78" height="79" viewBox="0 0 78 79" fill="none" xmlns="http://www.w3.org/2000/svg">
<path d="M38.7164 55.5189C40.4233 55.5189 42.0603 54.8408 43.2673 53.6338C44.4743 52.4268 45.1523 50.7898 45.1523 49.0829C45.1523 47.376 44.4743 45.739 43.2673 44.532C42.0603 43.325 40.4233 42.6469 38.7164 42.6469C37.0094 42.6469 35.3724 43.325 34.1654 44.532C32.9584 45.739 32.2804 47.376 32.2804 49.0829C32.2804 50.7898 32.9584 52.4268 34.1654 53.6338C35.3724 54.8408 37.0094 55.5189 38.7164 55.5189ZM58.0243 26.557C59.7312 26.557 61.3683 27.235 62.5752 28.442C63.7822 29.649 64.4603 31.286 64.4603 32.9929V65.1729C64.4603 66.8798 63.7822 68.5168 62.5752 69.7238C61.3683 70.9308 59.7312 71.6089 58.0243 71.6089H19.4084C17.7015 71.6089 16.0644 70.9308 14.8575 69.7238C13.6505 68.5168 12.9724 66.8798 12.9724 65.1729V32.9929C12.9724 31.286 13.6505 29.649 14.8575 28.442C16.0644 27.235 17.7015 26.557 19.4084 26.557H22.6264V20.121C22.6264 15.8536 24.3216 11.7611 27.339 8.74365C30.3565 5.72619 34.449 4.03101 38.7164 4.03101C40.8293 4.03101 42.9216 4.44719 44.8737 5.25578C46.8258 6.06438 48.5996 7.24956 50.0937 8.74365C51.5878 10.2377 52.7729 12.0115 53.5815 13.9636C54.3901 15.9157 54.8063 18.008 54.8063 20.121V26.557H58.0243ZM38.7164 10.467C36.156 10.467 33.7004 11.4841 31.89 13.2946C30.0795 15.105 29.0624 17.5606 29.0624 20.121V26.557H48.3703V20.121C48.3703 17.5606 47.3532 15.105 45.5427 13.2946C43.7323 11.4841 41.2767 10.467 38.7164 10.467Z" fill="url(#paint0_linear_5072_3031)"/>
<defs>
<linearGradient id="paint0_linear_5072_3031" x1="38.7164" y1="4.03101" x2="38.7164" y2="71.6089" gradientUnits="userSpaceOnUse">
<stop stop-color="white"/>
<stop offset="0.0001" stop-color="white"/>
<stop offset="1" stop-color="white"/>
</linearGradient>
</defs>
</svg>
