<svg width="113" height="90" viewBox="0 0 113 90" fill="none" xmlns="http://www.w3.org/2000/svg">
<path d="M66.7015 49.7185C63.4375 49.7185 60.6585 48.5794 58.3645 46.301C56.0722 44.0227 54.926 41.2515 54.926 37.9876C54.926 34.9887 55.9509 32.3266 58.0007 30.0012C60.0505 27.6775 62.5984 26.4301 65.6443 26.2592C66.2322 22.4474 67.9855 19.2986 70.904 16.8126C73.8226 14.3267 77.2192 13.0837 81.0937 13.0837C85.4585 13.0837 89.1665 14.6093 92.2176 17.6605C95.2688 20.7134 96.7944 24.4213 96.7944 28.7844V31.4011H98.4037C100.911 31.4814 103.014 32.4016 104.713 34.1618C106.412 35.9203 107.261 38.053 107.261 40.5598C107.261 43.126 106.377 45.2945 104.608 47.0651C102.836 48.8341 100.667 49.7185 98.1027 49.7185H66.7015Z" fill="#CED9FF"/>
<g clip-path="url(#clip0_5072_3022)">
<path d="M65.5634 42.6218C64.4415 36.9364 61.3806 31.817 56.9034 28.1378C52.4263 24.4586 46.8106 22.4479 41.0157 22.4492C31.3636 22.4492 22.9806 27.9265 18.8058 35.9421C13.8971 36.4726 9.35747 38.7984 6.05933 42.4726C2.76119 46.1467 0.937171 50.9101 0.937744 55.8475C0.937744 66.9023 9.92188 75.8864 20.9767 75.8864H64.3945C73.6124 75.8864 81.0936 68.4052 81.0936 59.1873C81.0936 50.3702 74.2469 43.2229 65.5634 42.6218Z" fill="url(#paint0_linear_5072_3022)"/>
</g>
<defs>
<linearGradient id="paint0_linear_5072_3022" x1="41.0157" y1="22.4492" x2="41.0157" y2="75.8864" gradientUnits="userSpaceOnUse">
<stop stop-color="white"/>
<stop offset="0.0001" stop-color="white"/>
<stop offset="1" stop-color="white"/>
</linearGradient>
<clipPath id="clip0_5072_3022">
<rect width="80.1558" height="80.1558" fill="white" transform="translate(0.937744 9.08984)"/>
</clipPath>
</defs>
</svg>
