<svg width="37" height="37" viewBox="0 0 37 37" fill="none" xmlns="http://www.w3.org/2000/svg">
<path opacity="0.25" fill-rule="evenodd" clip-rule="evenodd" d="M18.2577 36C27.8959 36 35.7092 28.165 35.7092 18.5C35.7092 8.83502 27.8959 1 18.2577 1C8.61947 1 0.806152 8.83502 0.806152 18.5C0.806152 28.165 8.61947 36 18.2577 36Z" stroke="white" stroke-width="1.5"/>
<path d="M19.8462 14.0208H21.4501C21.5977 14.0208 21.7174 13.9076 21.7174 13.7682V12.2526C21.7174 12.1132 21.5977 12 21.4501 12H19.8462C18.2251 12 16.9057 13.2463 16.9057 14.7786V16.5468H15.0344C14.8868 16.5468 14.7671 16.6599 14.7671 16.7994V18.3149C14.7671 18.4544 14.8868 18.5675 15.0344 18.5675H16.9057V23.8721C16.9057 24.0115 17.0254 24.1247 17.173 24.1247H18.7769C18.9245 24.1247 19.0442 24.0115 19.0442 23.8721V18.5675H20.9155C21.0304 18.5675 21.1325 18.4978 21.1694 18.3948L21.7041 16.8792C21.7313 16.8024 21.7174 16.7175 21.6672 16.6513C21.6164 16.5857 21.5362 16.5468 21.4501 16.5468H19.0442V14.7786C19.0442 14.3608 19.404 14.0208 19.8462 14.0208Z" fill="white"/>
</svg>
