<svg width="85" height="67" viewBox="0 0 85 67" fill="none" xmlns="http://www.w3.org/2000/svg">
<path d="M57.879 44.2342V38.7814L36.0682 25.1497V10.1547C36.0682 7.89184 34.2415 6.06519 31.9786 6.06519C29.7157 6.06519 27.8891 7.89184 27.8891 10.1547V25.1497L6.07825 38.7814V44.2342L27.8891 37.4183V52.4132L22.4364 56.5028V60.5923L31.9786 57.8659L41.5209 60.5923V56.5028L36.0682 52.4132V37.4183L57.879 44.2342Z" fill="url(#paint0_linear_5072_3033)"/>
<path d="M71.3838 36.2451C65.4405 36.2451 60.6052 41.0804 60.6052 47.0237C60.6052 52.9671 65.4405 57.8023 71.3838 57.8023C77.3272 57.8023 82.1625 52.9671 82.1625 47.0237C82.1625 41.0804 77.3272 36.2451 71.3838 36.2451ZM71.3838 55.6466C66.6294 55.6466 62.7609 51.7782 62.7609 47.0237C62.7609 42.2693 66.6294 38.4008 71.3838 38.4008C76.1383 38.4008 80.0067 42.2693 80.0067 47.0237C80.0067 51.7782 76.1383 55.6466 71.3838 55.6466Z" fill="url(#paint1_linear_5072_3033)"/>
<path d="M72.4616 41.6343H70.3059V48.1014H76.7731V45.9457H72.4616V41.6343Z" fill="url(#paint2_linear_5072_3033)"/>
<defs>
<linearGradient id="paint0_linear_5072_3033" x1="31.9786" y1="6.06519" x2="31.9786" y2="60.5923" gradientUnits="userSpaceOnUse">
<stop stop-color="white"/>
<stop offset="0.0001" stop-color="white"/>
<stop offset="1" stop-color="white"/>
</linearGradient>
<linearGradient id="paint1_linear_5072_3033" x1="71.3838" y1="36.2451" x2="71.3838" y2="57.8023" gradientUnits="userSpaceOnUse">
<stop stop-color="white"/>
<stop offset="0.0001" stop-color="white"/>
<stop offset="1" stop-color="white"/>
</linearGradient>
<linearGradient id="paint2_linear_5072_3033" x1="73.5395" y1="41.6343" x2="73.5395" y2="48.1014" gradientUnits="userSpaceOnUse">
<stop stop-color="white"/>
<stop offset="0.0001" stop-color="white"/>
<stop offset="1" stop-color="white"/>
</linearGradient>
</defs>
</svg>
