<svg width="36" height="35" viewBox="0 0 36 35" fill="none" xmlns="http://www.w3.org/2000/svg">
<path d="M35.3061 17.5C35.3061 26.8902 27.7154 34.5 18.3546 34.5C8.99384 34.5 1.40308 26.8902 1.40308 17.5C1.40308 8.10985 8.99384 0.5 18.3546 0.5C27.7154 0.5 35.3061 8.10985 35.3061 17.5Z" stroke="#474F63"/>
<path d="M18.7908 14.9268C18.1084 14.9268 17.454 15.1978 16.9715 15.6803C16.489 16.1629 16.2179 16.8173 16.2179 17.4997C16.2179 18.1821 16.489 18.8365 16.9715 19.319C17.454 19.8015 18.1084 20.0726 18.7908 20.0726C19.4732 20.0726 20.1276 19.8015 20.6101 19.319C21.0927 18.8365 21.3637 18.1821 21.3637 17.4997C21.3637 16.8173 21.0927 16.1629 20.6101 15.6803C20.1276 15.1978 19.4732 14.9268 18.7908 14.9268Z" fill="white"/>
<path fill-rule="evenodd" clip-rule="evenodd" d="M14.6504 10.4396C17.4022 10.1347 20.1794 10.1347 22.9312 10.4396C24.4346 10.6074 25.6466 11.7909 25.8232 13.2999C26.1493 16.0902 26.1493 18.9091 25.8232 21.6994C25.6466 23.2084 24.4346 24.3919 22.932 24.5605C20.1799 24.8654 17.4025 24.8654 14.6504 24.5605C13.147 24.3919 11.935 23.2084 11.7584 21.7002C11.4322 18.9096 11.4322 16.0905 11.7584 13.2999C11.935 11.7909 13.147 10.6074 14.6504 10.4396ZM22.7491 12.7497C22.5392 12.7497 22.3378 12.8331 22.1893 12.9815C22.0409 13.13 21.9575 13.3314 21.9575 13.5413C21.9575 13.7513 22.0409 13.9526 22.1893 14.1011C22.3378 14.2496 22.5392 14.333 22.7491 14.333C22.9591 14.333 23.1605 14.2496 23.3089 14.1011C23.4574 13.9526 23.5408 13.7513 23.5408 13.5413C23.5408 13.3314 23.4574 13.13 23.3089 12.9815C23.1605 12.8331 22.9591 12.7497 22.7491 12.7497ZM15.0304 17.4997C15.0304 16.5023 15.4266 15.5459 16.1318 14.8406C16.837 14.1354 17.7935 13.7392 18.7908 13.7392C19.7881 13.7392 20.7446 14.1354 21.4498 14.8406C22.155 15.5459 22.5512 16.5023 22.5512 17.4997C22.5512 18.497 22.155 19.4535 21.4498 20.1587C20.7446 20.8639 19.7881 21.2601 18.7908 21.2601C17.7935 21.2601 16.837 20.8639 16.1318 20.1587C15.4266 19.4535 15.0304 18.497 15.0304 17.4997Z" fill="white"/>
</svg>
