<svg width="36" height="35" viewBox="0 0 36 35" fill="none" xmlns="http://www.w3.org/2000/svg">
<path d="M35.0152 17.5C35.0152 26.8902 27.4245 34.5 18.0637 34.5C8.70294 34.5 1.11218 26.8902 1.11218 17.5C1.11218 8.10985 8.70294 0.5 18.0637 0.5C27.4245 0.5 35.0152 8.10985 35.0152 17.5Z" stroke="#474F63"/>
<g clip-path="url(#clip0_5072_240)">
<path fill-rule="evenodd" clip-rule="evenodd" d="M18.0636 11.168C18.7386 11.168 19.4309 11.1854 20.102 11.2139L20.8946 11.2519L21.6533 11.297L22.3638 11.3453L23.0128 11.396C23.717 11.45 24.3797 11.7514 24.8842 12.247C25.3888 12.7427 25.7028 13.4009 25.7712 14.1058L25.8028 14.4423L25.862 15.1627C25.9172 15.9093 25.9583 16.7231 25.9583 17.5013C25.9583 18.2795 25.9172 19.0933 25.862 19.8399L25.8028 20.5603C25.7925 20.6759 25.7822 20.7875 25.7712 20.8968C25.7028 21.6018 25.3886 22.2601 24.8839 22.7558C24.3792 23.2515 23.7164 23.5528 23.012 23.6066L22.3646 23.6565L21.6541 23.7056L20.8946 23.7507L20.102 23.7887C19.4229 23.8183 18.7433 23.8336 18.0636 23.8346C17.3838 23.8336 16.7042 23.8183 16.0251 23.7887L15.2325 23.7507L14.4738 23.7056L13.7633 23.6565L13.1143 23.6066C12.4101 23.5526 11.7474 23.2512 11.2429 22.7556C10.7383 22.2599 10.4243 21.6017 10.3559 20.8968L10.3243 20.5603L10.2651 19.8399C10.2048 19.0618 10.1726 18.2817 10.1688 17.5013C10.1688 16.7231 10.2099 15.9093 10.2651 15.1627L10.3243 14.4423C10.3346 14.3267 10.3449 14.2151 10.3559 14.1058C10.4243 13.401 10.7382 12.7429 11.2426 12.2473C11.747 11.7516 12.4095 11.4502 13.1136 11.396L13.7617 11.3453L14.4722 11.297L15.2317 11.2519L16.0243 11.2139C16.7037 11.1843 17.3836 11.169 18.0636 11.168ZM16.4846 15.5815V19.4211C16.4846 19.7868 16.8793 20.0148 17.1951 19.8328L20.5109 17.913C20.5831 17.8713 20.643 17.8113 20.6847 17.7391C20.7264 17.6668 20.7483 17.5848 20.7483 17.5013C20.7483 17.4178 20.7264 17.3358 20.6847 17.2635C20.643 17.1913 20.5831 17.1313 20.5109 17.0896L17.1951 15.1706C17.1231 15.1289 17.0414 15.107 16.9582 15.107C16.875 15.107 16.7933 15.129 16.7213 15.1707C16.6493 15.2124 16.5895 15.2724 16.548 15.3447C16.5064 15.4169 16.4846 15.4989 16.4846 15.5823V15.5815Z" fill="white"/>
</g>
<defs>
<clipPath id="clip0_5072_240">
<rect width="18.9474" height="19" fill="white" transform="translate(8.58972 8)"/>
</clipPath>
</defs>
</svg>
