<svg width="26" height="26" viewBox="0 0 26 26" fill="none" xmlns="http://www.w3.org/2000/svg">
<path d="M4.87972 6.44157C5.43581 6.44157 5.96913 6.22066 6.36235 5.82744C6.75557 5.43422 6.97648 4.9009 6.97648 4.34481C6.97648 3.78871 6.75557 3.25539 6.36235 2.86217C5.96913 2.46895 5.43581 2.24805 4.87972 2.24805C4.32362 2.24805 3.7903 2.46895 3.39709 2.86217C3.00387 3.25539 2.78296 3.78871 2.78296 4.34481C2.78296 4.9009 3.00387 5.43422 3.39709 5.82744C3.7903 6.22066 4.32362 6.44157 4.87972 6.44157ZM5.9281 22.1673C6.76224 22.1673 7.56222 21.8359 8.15205 21.2461C8.74187 20.6562 9.07324 19.8563 9.07324 19.0221C9.07324 18.188 8.74187 17.388 8.15205 16.7982C7.56222 16.2083 6.76224 15.877 5.9281 15.877C5.09396 15.877 4.29398 16.2083 3.70415 16.7982C3.11432 17.388 2.78296 18.188 2.78296 19.0221C2.78296 19.8563 3.11432 20.6562 3.70415 21.2461C4.29398 21.8359 5.09396 22.1673 5.9281 22.1673ZM20.6054 23.2156C21.4396 23.2156 22.2395 22.8843 22.8294 22.2945C23.4192 21.7046 23.7506 20.9046 23.7506 20.0705C23.7506 19.2364 23.4192 18.4364 22.8294 17.8466C22.2395 17.2567 21.4396 16.9254 20.6054 16.9254C19.7713 16.9254 18.9713 17.2567 18.3815 17.8466C17.7916 18.4364 17.4603 19.2364 17.4603 20.0705C17.4603 20.9046 17.7916 21.7046 18.3815 22.2945C18.9713 22.8843 19.7713 23.2156 20.6054 23.2156ZM12.2184 14.8286C13.3306 14.8286 14.3972 14.3868 15.1836 13.6003C15.9701 12.8139 16.4119 11.7473 16.4119 10.6351C16.4119 9.52289 15.9701 8.45626 15.1836 7.66982C14.3972 6.88338 13.3306 6.44157 12.2184 6.44157C11.1062 6.44157 10.0395 6.88338 9.25311 7.66982C8.46667 8.45626 8.02486 9.52289 8.02486 10.6351C8.02486 11.7473 8.46667 12.8139 9.25311 13.6003C10.0395 14.3868 11.1062 14.8286 12.2184 14.8286ZM18.5087 6.44157C19.0647 6.44157 19.5981 6.22066 19.9913 5.82744C20.3845 5.43422 20.6054 4.9009 20.6054 4.34481C20.6054 3.78871 20.3845 3.25539 19.9913 2.86217C19.5981 2.46895 19.0647 2.24805 18.5087 2.24805C17.9526 2.24805 17.4192 2.46895 17.026 2.86217C16.6328 3.25539 16.4119 3.78871 16.4119 4.34481C16.4119 4.9009 16.6328 5.43422 17.026 5.82744C17.4192 6.22066 17.9526 6.44157 18.5087 6.44157Z" stroke="#193054" stroke-width="1.79722" stroke-linecap="round" stroke-linejoin="round"/>
<path d="M6.45239 5.91699L8.54915 8.01375M16.412 6.44118L15.3636 7.48956M18.5088 17.7113L15.3636 13.7798M8.02496 16.4008L10.1217 14.304" stroke="#193054" stroke-width="1.79722" stroke-linecap="round" stroke-linejoin="round"/>
</svg>
