<svg width="37" height="37" viewBox="0 0 37 37" fill="none" xmlns="http://www.w3.org/2000/svg">
<path opacity="0.25" fill-rule="evenodd" clip-rule="evenodd" d="M18.4515 36C28.0897 36 35.903 28.165 35.903 18.5C35.903 8.83502 28.0897 1 18.4515 1C8.81331 1 1 8.83502 1 18.5C1 28.165 8.81331 36 18.4515 36Z" stroke="white" stroke-width="1.5"/>
<path d="M14.4464 14.9671C15.2634 14.9671 15.9258 14.3029 15.9258 13.4835C15.9258 12.6642 15.2634 12 14.4464 12C13.6293 12 12.9669 12.6642 12.9669 13.4835C12.9669 14.3029 13.6293 14.9671 14.4464 14.9671Z" fill="white"/>
<path d="M15.6791 15.957H13.2134C13.0773 15.957 12.9668 16.0678 12.9668 16.2043V23.622C12.9668 23.7585 13.0773 23.8693 13.2134 23.8693H15.6791C15.8152 23.8693 15.9257 23.7585 15.9257 23.622V16.2043C15.9257 16.0678 15.8152 15.957 15.6791 15.957Z" fill="white"/>
<path d="M23.0266 15.5464C21.9728 15.1844 20.6546 15.5024 19.8641 16.0726C19.837 15.9662 19.7403 15.8871 19.6254 15.8871H17.1597C17.0236 15.8871 16.9131 15.9979 16.9131 16.1344V23.5521C16.9131 23.6886 17.0236 23.7994 17.1597 23.7994H19.6254C19.7615 23.7994 19.872 23.6886 19.872 23.5521V18.2212C20.2704 17.8771 20.7838 17.7673 21.204 17.9463C21.6113 18.1189 21.8446 18.5402 21.8446 19.1015V23.5521C21.8446 23.6886 21.955 23.7994 22.0911 23.7994H24.5569C24.693 23.7994 24.8034 23.6886 24.8034 23.5521V18.6035C24.7753 16.5715 23.8221 15.8194 23.0266 15.5464Z" fill="white"/>
</svg>
