<svg width="78" height="78" viewBox="0 0 78 78" fill="none" xmlns="http://www.w3.org/2000/svg">
<path d="M26.0414 60.6305L45.3365 15.5657C45.6608 14.813 46.2601 14.2124 47.0121 13.8865C47.7641 13.5606 48.6121 13.5338 49.3832 13.8118C50.1542 14.0897 50.7901 14.6514 51.1612 15.3822C51.5322 16.113 51.6104 16.9578 51.3799 17.7443L51.2512 18.0983L31.9561 63.1631C31.6318 63.9158 31.0325 64.5164 30.2805 64.8423C29.5285 65.1682 28.6805 65.195 27.9094 64.917C27.1384 64.6391 26.5025 64.0774 26.1314 63.3466C25.7604 62.6158 25.6821 61.771 25.9127 60.9845L26.0414 60.6305ZM7.39958 37.0812L20.2716 24.2093C20.8507 23.6321 21.6277 23.297 22.4449 23.2721C23.2621 23.2471 24.0582 23.5342 24.6714 24.0749C25.2847 24.6156 25.6691 25.3695 25.7466 26.1834C25.8242 26.9973 25.589 27.8102 25.0889 28.457L24.8218 28.7595L14.2249 39.3564L24.8218 49.9532C25.4051 50.531 25.7455 51.3098 25.7733 52.1303C25.8011 52.9508 25.5143 53.751 24.9715 54.3669C24.4288 54.9829 23.6711 55.3681 22.8536 55.4438C22.0361 55.5194 21.2206 55.2797 20.574 54.7738L20.2716 54.5035L7.39958 41.6315C6.84552 41.0774 6.51267 40.3401 6.4635 39.5581C6.41433 38.776 6.6522 38.0029 7.13249 37.3837L7.39958 37.0812ZM52.4515 24.206C53.0056 23.652 53.7428 23.3191 54.5249 23.27C55.307 23.2208 56.0801 23.4587 56.6992 23.939L56.9985 24.206L69.8737 37.0812C70.4278 37.6354 70.7606 38.3726 70.8098 39.1546C70.8589 39.9367 70.6211 40.7098 70.1408 41.329L69.8737 41.6347L56.9985 54.4906C56.4194 55.0677 55.6423 55.4028 54.8251 55.4277C54.0079 55.4527 53.2119 55.1657 52.5986 54.6249C51.9854 54.0842 51.6009 53.3303 51.5234 52.5164C51.4459 51.7025 51.6811 50.8896 52.1812 50.2428L52.4515 49.9371L63.0419 39.3564L52.445 28.7563C51.8418 28.1528 51.5029 27.3345 51.5029 26.4812C51.5029 25.6279 51.8418 24.8095 52.445 24.206H52.4515Z" fill="url(#paint0_linear_5072_3039)"/>
<defs>
<linearGradient id="paint0_linear_5072_3039" x1="38.6366" y1="13.6211" x2="38.6366" y2="65.1077" gradientUnits="userSpaceOnUse">
<stop stop-color="white"/>
<stop offset="0.0001" stop-color="white"/>
<stop offset="1" stop-color="white"/>
</linearGradient>
</defs>
</svg>
