<svg width="60" height="57" viewBox="0 0 60 57" fill="none" xmlns="http://www.w3.org/2000/svg">
<g clip-path="url(#clip0_5072_3029)">
<path d="M40.875 0.65571C31.0838 0.65571 23.1465 4.79405 23.1465 9.90637C23.1465 15.0187 31.0861 19.1592 40.875 19.1592C50.6662 19.1592 58.6035 15.0187 58.6035 9.90637C58.6035 4.79405 50.6639 0.65571 40.875 0.65571ZM58.6035 12.6545C58.5989 17.7669 50.6662 21.9073 40.875 21.9073C31.1111 21.9073 23.1919 17.8119 23.1465 12.7232V16.3424C23.1465 18.5263 24.626 20.5257 27.0494 22.109C29.5 22.7397 31.6829 23.615 33.5004 24.722C35.7536 25.2626 38.2315 25.593 40.875 25.593C50.6662 25.593 58.6035 21.4547 58.6035 16.3424V12.6545ZM58.6035 19.0905C58.6035 24.2028 50.6662 28.3433 40.875 28.3433C39.6837 28.3433 38.5265 28.2597 37.401 28.1417C38.2891 29.2725 38.895 30.5788 39.1732 31.9625C39.7382 31.9925 40.2964 32.029 40.875 32.029C50.6662 32.029 58.6035 27.8907 58.6035 22.7783V19.0905ZM18.184 24.2522C8.39287 24.2522 0.455566 28.3927 0.455566 33.505C0.455566 38.6173 8.39514 42.7578 18.184 42.7578C27.9752 42.7578 35.9125 38.6173 35.9125 33.505C35.9125 28.3927 27.9729 24.2522 18.184 24.2522ZM58.6035 25.5265C58.5989 30.6388 50.6662 34.7793 40.875 34.7793C40.3055 34.7793 39.7291 34.7407 39.1732 34.7107C39.1482 34.8716 39.1346 35.0861 39.1028 35.247C39.2163 35.5709 39.3139 35.8906 39.3139 36.2553V38.4006C39.8289 38.4242 40.3463 38.465 40.875 38.465C50.6662 38.465 58.6035 34.3266 58.6035 29.2143V25.5265ZM58.6035 31.9625C58.5989 37.0748 50.6662 41.2153 40.875 41.2153C40.3055 41.2153 39.7291 41.1767 39.1732 41.1466C39.1482 41.3075 39.1346 41.5221 39.1028 41.683C39.2163 42.0048 39.3139 42.3266 39.3139 42.6913V44.8366C39.8289 44.8602 40.3463 44.901 40.875 44.901C50.6662 44.901 58.6035 40.7626 58.6035 35.6503V31.9625ZM35.9125 36.2532C35.9079 41.3655 27.9752 45.506 18.184 45.506C8.4201 45.506 0.500948 41.4105 0.455566 36.3197V39.941C0.455566 45.0533 8.3906 49.1938 18.184 49.1938C27.9775 49.1938 35.9125 45.0533 35.9125 39.941V36.2532ZM35.9125 42.6891C35.9079 47.8015 27.9752 51.9419 18.184 51.9419C8.4201 51.9419 0.500948 47.8465 0.455566 42.7556V46.377C0.455566 51.4893 8.3906 55.6298 18.184 55.6298C27.9775 55.6298 35.9125 51.4893 35.9125 46.377V42.6891Z" fill="url(#paint0_linear_5072_3029)"/>
</g>
<defs>
<linearGradient id="paint0_linear_5072_3029" x1="29.5295" y1="0.653564" x2="29.5295" y2="55.6298" gradientUnits="userSpaceOnUse">
<stop stop-color="white"/>
<stop offset="0.0001" stop-color="white"/>
<stop offset="1" stop-color="white"/>
</linearGradient>
<clipPath id="clip0_5072_3029">
<rect width="58.9965" height="55.7785" fill="white" transform="translate(0.03125 0.252441)"/>
</clipPath>
</defs>
</svg>
