<svg width="38" height="37" viewBox="0 0 38 37" fill="none" xmlns="http://www.w3.org/2000/svg">
<path opacity="0.25" fill-rule="evenodd" clip-rule="evenodd" d="M19.1606 36C28.7988 36 36.6122 28.165 36.6122 18.5C36.6122 8.83502 28.7988 1 19.1606 1C9.52242 1 1.70911 8.83502 1.70911 18.5C1.70911 28.165 9.52242 36 19.1606 36Z" stroke="white" stroke-width="1.5"/>
<path fill-rule="evenodd" clip-rule="evenodd" d="M24.9791 24L20.1808 17.0062L20.1889 17.0127L24.5154 12H23.0696L19.5452 16.08L16.7464 12H12.9546L17.4343 18.5296L17.4338 18.5291L12.7091 24H14.1549L18.0732 19.4607L21.1874 24H24.9791ZM16.1735 13.0909L22.9059 22.9091H21.7602L15.0224 13.0909H16.1735Z" fill="white"/>
</svg>
