<svg width="85" height="80" viewBox="0 0 85 80" fill="none" xmlns="http://www.w3.org/2000/svg">
<path d="M25.4221 8.55713C23.1746 8.55713 21.0192 9.38212 19.43 10.8506C17.8408 12.3191 16.948 14.3108 16.948 16.3876V28.1333H27.5406C30.3499 28.1333 33.0442 29.1645 35.0307 31.0001C37.0172 32.8357 38.1332 35.3254 38.1332 37.9213V51.6246H50.8442V59.4551H38.1332V63.3703H61.4368C61.9987 63.3703 62.5375 63.164 62.9348 62.7969C63.3321 62.4298 63.5553 61.9319 63.5553 61.4127C63.5553 60.8935 63.3321 60.3955 62.9348 60.0284C62.5375 59.6613 61.9987 59.4551 61.4368 59.4551H55.0813V51.6246H67.7923C70.0398 51.6246 72.1952 50.7996 73.7844 49.3311C75.3736 47.8626 76.2664 45.8709 76.2664 43.7942V16.3876C76.2664 14.3108 75.3736 12.3191 73.7844 10.8506C72.1952 9.38212 70.0398 8.55713 67.7923 8.55713H25.4221ZM14.8295 32.0485C13.1439 32.0485 11.5274 32.6672 10.3355 33.7686C9.1436 34.87 8.474 36.3637 8.474 37.9213V65.3279C8.474 66.8855 9.1436 68.3792 10.3355 69.4806C11.5274 70.582 13.1439 71.2007 14.8295 71.2007H27.5406C29.2262 71.2007 30.8428 70.582 32.0346 69.4806C33.2265 68.3792 33.8961 66.8855 33.8961 65.3279V37.9213C33.8961 36.3637 33.2265 34.87 32.0346 33.7686C30.8428 32.6672 29.2262 32.0485 27.5406 32.0485H14.8295ZM16.948 61.4127C16.948 60.8935 17.1712 60.3955 17.5685 60.0284C17.9658 59.6613 18.5047 59.4551 19.0666 59.4551H23.3036C23.8654 59.4551 24.4043 59.6613 24.8016 60.0284C25.1989 60.3955 25.4221 60.8935 25.4221 61.4127C25.4221 61.9319 25.1989 62.4298 24.8016 62.7969C24.4043 63.164 23.8654 63.3703 23.3036 63.3703H19.0666C18.5047 63.3703 17.9658 63.164 17.5685 62.7969C17.1712 62.4298 16.948 61.9319 16.948 61.4127Z" fill="url(#paint0_linear_5072_3027)"/>
<defs>
<linearGradient id="paint0_linear_5072_3027" x1="42.3702" y1="8.55713" x2="42.3702" y2="71.2007" gradientUnits="userSpaceOnUse">
<stop stop-color="white"/>
<stop offset="0.0001" stop-color="white"/>
<stop offset="1" stop-color="white"/>
</linearGradient>
</defs>
</svg>
